<?xml version="1.0" standalone="no"?>
<!DOCTYPE svg PUBLIC "-//W3C//DTD SVG 20010904//EN"
 "http://www.w3.org/TR/2001/REC-SVG-20010904/DTD/svg10.dtd">
<svg version="1.0" xmlns="http://www.w3.org/2000/svg"
 width="260.000000pt" height="260.000000pt" viewBox="0 0 260.000000 260.000000"
 preserveAspectRatio="xMidYMid meet">
<metadata>
Created by potrace 1.11, written by Peter Selinger 2001-2013
</metadata>
<g transform="translate(0.000000,260.000000) scale(0.100000,-0.100000)"
fill="#000000" stroke="none">
<path d="M0 1300 l0 -1300 1300 0 1300 0 0 1300 0 1300 -1300 0 -1300 0 0
-1300z m2500 0 l0 -1200 -1200 0 -1200 0 0 1200 0 1200 1200 0 1200 0 0 -1200z"/>
<path d="M307 1782 c-15 -17 -17 -58 -17 -380 l0 -362 24 -15 c34 -23 63 -6
72 42 4 20 4 104 1 185 -3 82 -2 148 2 146 4 -2 47 -48 96 -103 198 -220 440
-429 629 -543 95 -57 166 -68 190 -29 22 35 -12 67 -144 137 -219 116 -373
230 -541 401 -58 60 -125 133 -149 164 l-42 55 43 56 c48 62 129 137 173 161
24 13 35 13 66 3 48 -16 72 -10 86 19 27 54 -28 95 -95 71 -20 -7 -56 -27 -81
-43 -59 -40 -176 -152 -201 -194 -11 -18 -24 -33 -27 -33 -4 0 -5 52 -4 115 3
94 1 121 -12 140 -19 30 -47 32 -69 7z"/>
<path d="M936 1787 c-17 -12 -18 -38 -18 -373 0 -197 1 -364 1 -370 2 -22 48
-29 166 -28 66 1 127 3 136 3 34 2 108 62 128 105 33 67 28 111 -17 157 -56
56 -127 65 -152 20 -16 -30 -2 -48 46 -60 80 -20 98 -93 31 -128 -22 -12 -63
-18 -133 -21 l-101 -4 -8 57 c-4 32 -6 179 -5 329 2 320 4 291 -16 310 -19 19
-35 20 -58 3z"/>
<path d="M1490 1788 c-34 -18 -39 -62 -8 -82 23 -15 23 -16 16 -165 -8 -177
-19 -278 -58 -542 -37 -245 -38 -264 -5 -285 31 -20 60 -11 73 24 6 15 13 108
17 207 7 219 21 408 41 575 21 173 17 164 66 139 45 -23 132 -101 179 -161
l30 -37 -30 -48 c-118 -192 -132 -334 -37 -380 64 -30 145 10 204 101 24 36
27 51 27 126 0 79 -3 91 -39 162 l-38 78 37 45 c38 47 133 125 152 125 17 0
43 -170 67 -441 14 -159 23 -191 54 -208 43 -22 90 38 63 81 -45 73 -50 93
-61 258 -5 91 -10 206 -10 256 0 89 1 92 25 98 16 4 27 16 31 33 15 59 -64 67
-157 17 -48 -27 -152 -121 -204 -187 l-30 -37 -48 60 c-109 135 -283 226 -357
188z m410 -446 c38 -100 24 -213 -29 -242 -29 -15 -39 -13 -66 15 -40 39 -35
110 15 214 22 45 44 80 49 76 5 -3 19 -31 31 -63z"/>
</g>
</svg>
