<svg xmlns="http://www.w3.org/2000/svg" xmlns:xlink="http://www.w3.org/1999/xlink">

  <!--Logo-->
<symbol id="icon-organizm" viewBox="0 0 188 188">
<path fill-rule="evenodd" clip-rule="evenodd" d="M94 188C145.915 188 188 145.915 188 94C188 42.0852 145.915 0 94 0C42.0852 0 0 42.0852 0 94C0 145.915 42.0852 188 94 188ZM156.326 81.5951H170.338C177.34 81.5951 183.038 87.2834 183.038 94.2753C183.038 101.267 177.34 106.956 170.337 106.956H156.326C154.704 114.873 151.54 122.486 147.059 129.24L156.971 139.121C159.369 141.51 160.689 144.69 160.685 148.077C160.685 151.464 159.359 154.646 156.959 157.039C154.562 159.431 151.373 160.75 147.975 160.754H147.96C144.565 160.754 141.379 159.44 138.985 157.053L129.073 147.172C122.3 151.638 114.661 154.794 106.72 156.408V170.376C106.72 177.357 101.016 183.038 94.0006 183.038C86.9855 183.038 81.281 177.357 81.281 170.376V156.408C73.3399 154.794 65.7008 151.638 58.9282 147.172L49.016 157.053C44.0692 161.991 36.0014 161.986 31.0423 157.039C28.6449 154.65 27.3189 151.469 27.3158 148.085C27.3096 144.696 28.6295 141.511 31.0299 139.12L40.942 129.24C36.461 122.486 33.2967 114.872 31.6756 106.956H17.6639C10.6612 106.956 4.96288 101.269 4.96288 94.276C4.96288 87.2834 10.6612 81.5951 17.6639 81.5943H31.6756C33.2967 73.6778 36.461 66.0646 40.942 59.3106L31.0299 49.4292C28.6326 47.0408 27.3127 43.8602 27.3158 40.4732C27.3158 37.087 28.6419 33.9041 31.0423 31.5111C33.4396 29.1196 36.6286 27.8015 40.0261 27.7961H40.0415C43.4359 27.7961 46.6218 29.1104 49.016 31.4972L58.9282 41.3794C65.7015 36.9138 73.3407 33.7578 81.281 32.1432V18.1749C81.281 11.1938 86.9863 5.51319 94.0014 5.51319C101.016 5.51319 106.721 11.1938 106.721 18.1749V32.1432C114.661 33.7578 122.3 36.9138 129.074 41.3794L138.986 31.498C143.936 26.5634 152.004 26.568 156.96 31.5118C159.357 33.9018 160.683 37.0824 160.686 40.4663C160.692 43.8556 159.372 47.0401 156.972 49.4315L147.06 59.3114C151.541 66.0653 154.705 73.6793 156.326 81.5951ZM153.671 100.616H170.338C173.834 100.616 176.679 97.7731 176.678 94.276C176.678 90.779 173.834 87.9356 170.337 87.9356H153.67C152.105 87.9356 150.776 86.803 150.53 85.2623C149.13 76.4796 145.614 68.0225 140.36 60.8043C139.444 59.5432 139.58 57.8039 140.686 56.7013L152.474 44.9481C153.669 43.7562 154.328 42.1679 154.325 40.4763C154.322 38.7832 153.66 37.1917 152.462 35.9952C149.98 33.5214 145.95 33.5176 143.481 35.9814L131.693 47.7345C130.591 48.8379 128.843 48.9757 127.579 48.0595C120.337 42.8215 111.853 39.316 103.04 37.9224C101.497 37.6776 100.36 36.3494 100.36 34.791V18.1757C100.36 14.6901 97.5055 11.8544 93.9998 11.8544C90.4934 11.8544 87.6397 14.6901 87.6397 18.1757V34.791C87.6397 36.3494 86.5036 37.6776 84.9597 37.9216C76.1466 39.3144 67.6625 42.8208 60.4211 48.0587C59.1606 48.9749 57.4128 48.8371 56.3069 47.7338L44.5195 35.9806C43.327 34.7918 41.7368 34.1374 40.0415 34.1374H40.0322C38.3339 34.1389 36.7375 34.798 35.5388 35.9945C34.337 37.1925 33.6759 38.7832 33.6759 40.4786C33.6728 42.1686 34.3309 43.7555 35.5264 44.9458L47.3153 56.6998C48.4206 57.8015 48.5573 59.5416 47.6413 60.8028C42.3871 68.0202 38.8714 76.478 37.4712 85.2608C37.2263 86.8007 35.8972 87.934 34.3316 87.934H17.6647C14.1683 87.934 11.3238 90.7774 11.3238 94.2745C11.3238 97.7716 14.1683 100.615 17.6647 100.615H34.3316C35.8964 100.615 37.2256 101.748 37.4712 103.289C38.8714 112.072 42.3871 120.529 47.6413 127.747C48.5573 129.008 48.4213 130.747 47.3153 131.85L35.5272 143.603C34.3324 144.795 33.6736 146.383 33.6767 148.075C33.679 149.768 34.3409 151.36 35.5396 152.556C38.018 155.026 42.0488 155.031 44.5203 152.57L56.3084 140.817C56.9232 140.202 57.7372 139.888 58.5567 139.888C59.2085 139.888 59.8634 140.086 60.4226 140.492C67.664 145.73 76.1481 149.235 84.9612 150.629C86.5043 150.874 87.6412 152.202 87.6412 153.76V170.376C87.6412 173.861 90.4958 176.697 94.0014 176.697C97.5078 176.697 100.362 173.861 100.362 170.375V153.76C100.362 152.201 101.498 150.873 103.042 150.629C111.855 149.236 120.339 145.73 127.58 140.492C128.844 139.58 130.592 139.714 131.694 140.817L143.482 152.57C144.675 153.759 146.265 154.413 147.96 154.413H147.97C149.668 154.412 151.265 153.753 152.463 152.556C153.665 151.358 154.326 149.767 154.326 148.072C154.329 146.382 153.671 144.795 152.476 143.605L140.687 131.85C139.582 130.748 139.445 129.008 140.361 127.747C145.616 120.53 149.131 112.072 150.532 103.289C150.776 101.749 152.106 100.616 153.671 100.616Z" fill="#475B73"/>
</symbol>
<!--Settings-->
<symbol id="icon-settings" viewBox="0 0 28 28">
<g clip-path="url(#clip0)">
<path d="M25.5334 16.6861C24.0643 14.1416 24.948 10.8814 27.5065 9.39912L24.7546 4.63299C23.9689 5.09412 23.0545 5.35837 22.0789 5.35837C19.138 5.35837 16.7545 2.95912 16.7545 -0.00100708H11.2516C11.2586 0.912493 11.0311 1.83912 10.542 2.68524C9.07289 5.22974 5.80738 6.09512 3.24538 4.61987L0.494385 9.38599C1.28626 9.83662 1.97226 10.4955 2.45963 11.3407C3.92613 13.8809 3.04763 17.1359 0.49876 18.6199L3.25063 23.386C4.03376 22.9292 4.94376 22.6685 5.91413 22.6685C8.84538 22.6685 11.2228 25.0529 11.2376 27.999H16.7405C16.7379 27.0942 16.9671 26.179 17.4501 25.3407C18.9166 22.8006 22.1743 21.9335 24.7345 23.3991L27.4864 18.633C26.6998 18.1824 26.0181 17.5252 25.5334 16.6852V16.6861ZM14 19.669C10.8693 19.669 8.33088 17.1306 8.33088 13.9999C8.33088 10.8691 10.8693 8.33074 14 8.33074C17.1308 8.33074 19.6691 10.8691 19.6691 13.9999C19.6691 17.1306 17.1308 19.669 14 19.669Z" fill="#2C3138"/>
</g>
<defs>
<clipPath id="clip0">
<rect width="28" height="28" fill="white"/>
</clipPath>
</defs>
</symbol>
<!--User-->
<symbol id="icon-user" viewBox="0 0 28 28">
<path d="M14 0C21.734 0 28 6.266 28 14C28 21.688 21.766 28 14 28C6.25 28 0 21.703 0 14C0 6.266 6.266 0 14 0ZM23.672 21.109C25.125 19.109 26 16.656 26 14C26 7.391 20.609 2 14 2C7.391 2 2 7.391 2 14C2 16.656 2.875 19.109 4.328 21.109C4.89 18.312 6.25 16 9.109 16C10.375 17.234 12.093 18 14 18C15.907 18 17.625 17.234 18.891 16C21.75 16 23.11 18.312 23.672 21.109ZM20 11C20 7.687 17.312 5 14 5C10.688 5 8 7.688 8 11C8 14.312 10.688 17 14 17C17.312 17 20 14.312 20 11Z" fill="#2C3138"/>
</symbol>
<!--pencil-->
<symbol id="icon-pencil" viewBox="0 0 32 32">
<path d="M27 0c2.761 0 5 2.239 5 5 0 1.126-0.372 2.164-1 3l-2 2-7-7 2-2c0.836-0.628 1.874-1 3-1zM2 23l-2 9 9-2 18.5-18.5-7-7-18.5 18.5zM22.362 11.362l-14 14-1.724-1.724 14-14 1.724 1.724z"></path>
</symbol>
<!--search-->
<symbol id="icon-search" viewBox="0 0 48 48">
<path d="M29.652 13.998c2.16 0.5 3.879 2.34 4.379 4.35 0.171 0.94 0.99 1.65 1.971 1.65 1.1 0 2-0.9 2-2 0-1.44-1.21-3.63-2.86-5.27-1.62-1.6-3.55-2.73-5.14-2.73-1.1 0-2 0.93-2 2.030 0 0.979 0.71 1.8 1.65 1.97zM2.162 40.218c-1.55 1.549-1.55 4.070 0 5.619 1.55 1.551 4.070 1.551 5.61 0l11.489-11.48c2.681 1.672 5.84 2.641 9.24 2.641 9.67 0 17.5-7.83 17.5-17.5s-7.83-17.5-17.5-17.5-17.5 7.83-17.5 17.5c0 3.39 0.971 6.56 2.641 9.24l-11.48 11.48zM16.002 19.498c0-6.9 5.601-12.5 12.5-12.5 6.9 0 12.5 5.6 12.5 12.5s-5.6 12.5-12.5 12.5c-6.899-0.001-12.5-5.601-12.5-12.5z"></path>
</symbol>
<!--trashcan-->
<symbol id="icon-trashcan" viewBox="0 0 48 48">
<path d="M42.5 10h-6.5v-6c0-2.21-1.79-4-4-4h-16c-2.21 0-4 1.79-4 4v6h-6.5c-1.38 0-2.5 1.12-2.5 2.5s1.12 2.5 2.5 2.5h1.5v29c0 2.21 1.79 4 4 4h26c2.21 0 4-1.79 4-4l-0-29h1.5c1.38 0 2.5-1.12 2.5-2.5s-1.12-2.5-2.5-2.5zM31 10h-14v-2.8c0-1.22 0.98-2.2 2.2-2.2h9.6c1.22 0 2.2 0.98 2.2 2.2v2.8zM17 17v24c0 1.1-0.9 2-2 2s-2-0.9-2-2v-24c0-1.1 0.9-2 2-2s2 0.9 2 2zM26 17v24c0 1.1-0.9 2-2 2s-2-0.9-2-2v-24c0-1.1 0.9-2 2-2s2 0.9 2 2zM35 17v24c0 1.1-0.9 2-2 2s-2-0.9-2-2v-24c0-1.1 0.9-2 2-2s2 0.9 2 2z"></path>
</symbol>
<!--save-->
<symbol id="icon-save" viewBox="0 0 24 28">
<path d="M6 24h12v-6h-12v6zM20 24h2v-14c0-0.297-0.266-0.938-0.469-1.141l-4.391-4.391c-0.219-0.219-0.828-0.469-1.141-0.469v6.5c0 0.828-0.672 1.5-1.5 1.5h-9c-0.828 0-1.5-0.672-1.5-1.5v-6.5h-2v20h2v-6.5c0-0.828 0.672-1.5 1.5-1.5h13c0.828 0 1.5 0.672 1.5 1.5v6.5zM14 9.5v-5c0-0.266-0.234-0.5-0.5-0.5h-3c-0.266 0-0.5 0.234-0.5 0.5v5c0 0.266 0.234 0.5 0.5 0.5h3c0.266 0 0.5-0.234 0.5-0.5zM24 10v14.5c0 0.828-0.672 1.5-1.5 1.5h-21c-0.828 0-1.5-0.672-1.5-1.5v-21c0-0.828 0.672-1.5 1.5-1.5h14.5c0.828 0 1.969 0.469 2.562 1.062l4.375 4.375c0.594 0.594 1.062 1.734 1.062 2.562z"></path>
</symbol>
</svg>