<svg xmlns="http://www.w3.org/2000/svg" xmlns:xlink="http://www.w3.org/1999/xlink">

<!--Settings-->
<symbol id="icon-settings" viewBox="0 0 28 28">
<g clip-path="url(#clip0)">
<path d="M25.5334 16.6861C24.0643 14.1416 24.948 10.8814 27.5065 9.39912L24.7546 4.63299C23.9689 5.09412 23.0545 5.35837 22.0789 5.35837C19.138 5.35837 16.7545 2.95912 16.7545 -0.00100708H11.2516C11.2586 0.912493 11.0311 1.83912 10.542 2.68524C9.07289 5.22974 5.80738 6.09512 3.24538 4.61987L0.494385 9.38599C1.28626 9.83662 1.97226 10.4955 2.45963 11.3407C3.92613 13.8809 3.04763 17.1359 0.49876 18.6199L3.25063 23.386C4.03376 22.9292 4.94376 22.6685 5.91413 22.6685C8.84538 22.6685 11.2228 25.0529 11.2376 27.999H16.7405C16.7379 27.0942 16.9671 26.179 17.4501 25.3407C18.9166 22.8006 22.1743 21.9335 24.7345 23.3991L27.4864 18.633C26.6998 18.1824 26.0181 17.5252 25.5334 16.6852V16.6861ZM14 19.669C10.8693 19.669 8.33088 17.1306 8.33088 13.9999C8.33088 10.8691 10.8693 8.33074 14 8.33074C17.1308 8.33074 19.6691 10.8691 19.6691 13.9999C19.6691 17.1306 17.1308 19.669 14 19.669Z"/>
</g>
<defs>
<clipPath id="clip0">
<rect width="28" height="28" fill="white"/>
</clipPath>
</defs>
</symbol>

</svg>
