<svg aria-hidden="true" style="position: absolute; width: 0; height: 0; overflow: hidden;" version="1.1" xmlns="http://www.w3.org/2000/svg" xmlns:xlink="http://www.w3.org/1999/xlink">
<defs>
<symbol id="icon-add" viewBox="0 0 100 100">
<title>add</title>
<path d="M45,5 C67.0530303,5 85,22.8712121 85,44.8257576 C85,66.8787879 67.0530303,84.8257576 45,84.8257576 C22.9393939,84.8257576 5,66.8787879 5,44.8257576 C5,22.8636364 22.9469697,5 45,5 Z M45,12.3560606 C27.0075758,12.3560606 12.3636364,26.9166667 12.3636364,44.8181818 C12.3636364,62.8106061 27.0075758,77.4545455 45,77.4545455 C62.9924242,77.4545455 77.6363636,62.8181818 77.6363636,44.8181818 C77.6287879,26.9242424 62.9924242,12.3560606 45,12.3560606 Z M45,28.1212121 C47.030303,28.1212121 48.6818182,29.7727273 48.6818182,31.8030303 L48.681,41.143 L58.0151515,41.1439394 C60.0454545,41.1439394 61.6969697,42.7954545 61.6969697,44.8257576 C61.6969697,46.8560606 60.0530303,48.5075758 58.0151515,48.5075758 L48.681,48.507 L48.6818182,58.0151515 C48.6818182,60.0454545 47.030303,61.6969697 45,61.6969697 C42.969697,61.6969697 41.3181818,60.0454545 41.3181818,58.0151515 L41.318,48.507 L31.8030303,48.5075758 C29.7727273,48.5075758 28.1212121,46.8560606 28.1212121,44.8257576 C28.1212121,42.7954545 29.7727273,41.1439394 31.8030303,41.1439394 L41.318,41.143 L41.3181818,31.8030303 C41.3181818,29.7727273 42.969697,28.1212121 45,28.1212121 Z" fill="#000000" fill-rule="nonzero"></path>
</symbol>

<symbol id="icon-delete" viewBox="0 0 100 100">
<title>delete</title>
<path d="M50,5.75C25.562,5.75,5.75,25.562,5.75,50S25.562,94.25,50,94.25S94.25,74.438,94.25,50S74.438,5.75,50,5.75z    M71.481,63.902l-7.578,7.579c-0.26,0.259-0.611,0.405-0.978,0.405c-0.366,0-0.717-0.146-0.977-0.405L49.681,59.213l-11.63,11.63   c-0.259,0.259-0.61,0.404-0.977,0.404s-0.718-0.146-0.977-0.404l-7.578-7.579c-0.54-0.54-0.54-1.415,0-1.954l11.63-11.63   l-11.63-11.629c-0.54-0.54-0.54-1.415,0-1.954l7.578-7.578c0.518-0.519,1.435-0.519,1.953,0l11.63,11.629l11.63-11.629   c0.259-0.259,0.611-0.405,0.977-0.405c0.367,0,0.718,0.146,0.977,0.405l7.577,7.578c0.541,0.54,0.541,1.415,0,1.954L59.213,49.68   l12.268,12.269C72.02,62.488,72.02,63.363,71.481,63.902z"></path>
</symbol>


<symbol id="icon-ballOfYarn" viewBox="0 0 100 100">
<title>ballOfYarn</title>
<path d="M91.3,28.3c0-0.1-0.1-0.2-0.1-0.2c-1.2-2.6-2.7-5-4.4-7.2c-0.1-0.2-0.2-0.3-0.3-0.4c-2.1-2.7-4.5-5.1-7.3-7.2  C79.1,13.1,79,13,78.9,13C72.2,8,64,5,55,5C32.9,5,15,22.9,15,45c0,9,3,17.2,7.9,23.9c0.1,0.1,0.2,0.2,0.3,0.4  c2.1,2.7,4.5,5.1,7.1,7.2c0.1,0.1,0.3,0.2,0.4,0.3c2.2,1.7,4.7,3.2,7.2,4.4c0.1,0,0.2,0.1,0.2,0.1c0.6,0.3,1.2,0.5,1.8,0.8  c-1.1,0.7-2.2,1.4-3.1,2.4c-2.5,2.5-6.5,2.5-9,0c-4.4-4.4-11.6-4.4-16,0l-6.3,6.3c-1,1-1,2.6,0,3.5C6.2,94.8,6.9,95,7.5,95  s1.3-0.2,1.8-0.7l6.3-6.2c2.5-2.5,6.5-2.5,9,0c4.4,4.4,11.6,4.4,16,0c1.9-1.9,4.5-3,7.3-3H55c22.1,0,40-17.9,40-40  C95,39,93.7,33.4,91.3,28.3z M69.2,13c-1.1,0.2-2.3,0.4-3.4,0.6c-0.5-0.8-0.9-1.6-1.4-2.3C66.1,11.8,67.6,12.3,69.2,13z M55,10  c1.1,0,2.1,0.1,3.2,0.2c0.8,1.6,1.7,3.3,2.6,4.9c-1.6,0.5-3.2,1.1-4.7,1.8c-1.3-2.2-2.4-4.5-3.5-6.8C53.4,10,54.2,10,55,10z   M47.5,10.8c1.2,2.8,2.6,5.6,4.1,8.3c-1.4,0.8-2.9,1.7-4.2,2.6c-1.8-3.1-3.3-6.3-4.7-9.5C44.2,11.7,45.8,11.2,47.5,10.8z M38.1,14.4  c1.5,3.5,3.3,7,5.2,10.4c-1.3,1.1-2.6,2.2-3.8,3.4c-2.1-3.6-4-7.3-5.7-11C35.2,16.1,36.6,15.2,38.1,14.4z M29.9,20.6  c1.8,3.8,3.8,7.6,6,11.3c-1.2,1.4-2.3,2.7-3.3,4.2c-2.3-3.6-4.4-7.4-6.2-11.2C27.5,23.3,28.6,21.9,29.9,20.6z M23,59.2  c-1.9-4.3-3-9.1-3-14.2c0-0.2,0-0.5,0-0.7c1.5,2.4,3.1,4.8,4.8,7.1C24,53.9,23.4,56.5,23,59.2z M21.1,36.3c0.6-2.2,1.3-4.3,2.3-6.3  c1.9,3.7,4,7.2,6.3,10.7c-1,1.7-1.9,3.4-2.7,5.1C24.9,42.7,22.9,39.5,21.1,36.3z M29.7,69.2c-0.8-0.8-1.5-1.7-2.2-2.5  c-0.3-11.9,5.2-24.7,14.8-34.3c9.6-9.6,22.4-15.1,34.3-14.8c0.9,0.7,1.7,1.4,2.5,2.2c-11.9,1-23.8,6.7-33.3,16.2  C36.4,45.4,30.7,57.2,29.7,69.2z M37,75c-0.8-0.5-1.6-1-2.4-1.6c-0.2-11.9,5.3-24.5,14.8-34c9.5-9.5,22.1-15,34-14.8  c0.6,0.8,1.1,1.5,1.6,2.4c-11.5,1.3-23,7-32,16C43.9,52,38.3,63.5,37,75z M44.6,78.4c-1-0.3-1.9-0.6-2.8-1c0.7-11,6-22.2,14.7-30.9  c8.7-8.7,19.9-14,30.9-14.7c0.4,0.9,0.7,1.9,1,2.8C78.1,36.6,68.1,42,60,50C52,58.1,46.6,68.1,44.6,78.4z M49.4,79.6  c0.1-0.7,0.3-1.4,0.5-2.2c1.1,0.9,2.2,1.7,3.4,2.6C52,79.9,50.7,79.8,49.4,79.6z M61.3,79.4c-3.4-2.2-6.6-4.6-9.8-7.2  c0.6-1.6,1.3-3.2,2.1-4.8c4.5,3.7,9.3,7.1,14.2,10.2C65.7,78.4,63.5,79,61.3,79.4z M73.1,74.9c-6-3.4-11.7-7.4-17.1-12  c0.9-1.4,1.8-2.8,2.9-4.1c5.8,4.9,12,9.2,18.7,12.8C76.2,72.9,74.7,74,73.1,74.9z M81.3,68c-6.8-3.6-13.3-7.9-19.2-13  c0.5-0.5,0.9-1,1.4-1.5c0.7-0.7,1.4-1.4,2.2-2c5.8,4.8,12,9,18.7,12.4C83.5,65.4,82.5,66.7,81.3,68z M86.8,59.6  c-6.1-3.1-11.8-6.9-17.1-11.3c1.4-1,2.9-2,4.4-2.9c4.6,3.6,9.4,6.8,14.5,9.5C88.1,56.5,87.5,58.1,86.8,59.6z M89.7,49.8  c-3.7-2-7.3-4.4-10.8-6.9c1.8-0.8,3.7-1.5,5.6-2.1c1.8,1.3,3.6,2.4,5.5,3.5c0,0.3,0,0.5,0,0.8C90,46.6,89.9,48.2,89.7,49.8z"></path>
</symbol>

</defs>
</svg>
