<!-- Generated by IcoMoon.io -->
<svg version="1.1" xmlns="http://www.w3.org/2000/svg" width="18" height="28" viewBox="0 0 18 28">
<title>microphone</title>
<path d="M18 11v2c0 4.625-3.5 8.437-8 8.937v2.063h4c0.547 0 1 0.453 1 1s-0.453 1-1 1h-10c-0.547 0-1-0.453-1-1s0.453-1 1-1h4v-2.063c-4.5-0.5-8-4.312-8-8.937v-2c0-0.547 0.453-1 1-1s1 0.453 1 1v2c0 3.859 3.141 7 7 7s7-3.141 7-7v-2c0-0.547 0.453-1 1-1s1 0.453 1 1zM14 5v8c0 2.75-2.25 5-5 5s-5-2.25-5-5v-8c0-2.75 2.25-5 5-5s5 2.25 5 5z"></path>
</svg>
