<!-- Generated by IcoMoon.io -->
<svg version="1.1" xmlns="http://www.w3.org/2000/svg" width="22" height="28" viewBox="0 0 22 28">
<title>microphone-slash</title>
<path d="M4.234 14.766l-1.578 1.578c-0.422-1.031-0.656-2.156-0.656-3.344v-2c0-0.547 0.453-1 1-1s1 0.453 1 1v2c0 0.609 0.094 1.203 0.234 1.766zM21.641 5.359l-5.641 5.641v2c0 2.75-2.25 5-5 5-0.594 0-1.172-0.109-1.703-0.297l-1.5 1.5c0.953 0.5 2.047 0.797 3.203 0.797 3.859 0 7-3.141 7-7v-2c0-0.547 0.453-1 1-1s1 0.453 1 1v2c0 4.625-3.5 8.437-8 8.937v2.063h4c0.547 0 1 0.453 1 1s-0.453 1-1 1h-10c-0.547 0-1-0.453-1-1s0.453-1 1-1h4v-2.063c-1.328-0.141-2.578-0.594-3.672-1.266l-3.969 3.969c-0.203 0.203-0.516 0.203-0.719 0l-1.281-1.281c-0.203-0.203-0.203-0.516 0-0.719l19.281-19.281c0.203-0.203 0.516-0.203 0.719 0l1.281 1.281c0.203 0.203 0.203 0.516 0 0.719zM15.703 3.297l-9.703 9.703v-8c0-2.75 2.25-5 5-5 2.156 0 4 1.391 4.703 3.297z"></path>
</svg>
