<!-- Generated by IcoMoon.io -->
<svg version="1.1" xmlns="http://www.w3.org/2000/svg" width="24" height="28" viewBox="0 0 24 28">
<title>sticky-note-o</title>
<path d="M21.875 20h-3.875v3.875c0.266-0.094 0.531-0.234 0.641-0.344l2.891-2.891c0.109-0.109 0.25-0.375 0.344-0.641zM17.5 18h4.5v-14h-20v20h14v-4.5c0-0.828 0.672-1.5 1.5-1.5zM24 3.5v16c0 0.828-0.484 1.984-1.062 2.562l-2.875 2.875c-0.578 0.578-1.734 1.062-2.562 1.062h-16c-0.828 0-1.5-0.672-1.5-1.5v-21c0-0.828 0.672-1.5 1.5-1.5h21c0.828 0 1.5 0.672 1.5 1.5z"></path>
</svg>
