<svg width="79" height="71" viewBox="0 0 79 71" fill="none" xmlns="http://www.w3.org/2000/svg">
<path id="computer" d="M25.5738 57.0492H51.8033M9.18031 13C9.18031 7.47716 13.6575 3 19.1803 3H58.1967C63.7195 3 68.1967 7.47715 68.1967 13V29.0656C68.1967 34.5884 63.7196 39.0656 58.1967 39.0656H19.1803C13.6575 39.0656 9.18031 34.5884 9.18031 29.0656V13ZM6.96324 46.0335C8.28362 41.8838 12.1377 39.0656 16.4925 39.0656H61.4832C65.5438 39.0656 69.2012 41.521 70.7387 45.2792L74.3601 54.1317C77.0515 60.7105 72.2127 67.918 65.1047 67.918H13.6758C6.90775 67.918 2.09445 61.3355 4.14654 54.886L6.96324 46.0335Z" stroke="#3B3A39" stroke-opacity="0.1" stroke-width="6"/>
</svg>
