<svg width="65" height="65" viewBox="0 0 65 65" fill="none" xmlns="http://www.w3.org/2000/svg">
<g clip-path="url(#clip0)">
<path d="M21.6667 49.3539C19.324 49.8305 17.7315 49.6816 16.6021 49.3241C15.9765 49.1264 15.4348 48.8474 14.9392 48.5061C13.826 47.737 12.9702 46.678 11.9085 45.332C10.9444 44.1105 9.60645 42.3339 7.70791 41.3345C7.20687 41.0691 6.66249 40.8551 6.07208 40.7061C4.62041 40.3432 3.14979 41.2261 2.78687 42.6778C2.42395 44.1295 3.30687 45.6001 4.75854 45.963L5.17833 46.1255C5.86083 46.4857 6.49729 47.2197 7.65374 48.6876C8.64499 49.9443 9.97208 51.6614 11.8598 52.9641C12.759 53.5843 13.7854 54.1178 14.9717 54.4916C16.9 55.1009 19.1019 55.2499 21.6694 54.8572L21.6667 59.5832C21.6667 61.0782 22.88 62.2916 24.375 62.2916C25.87 62.2916 27.0833 61.0782 27.0833 59.5832V49.102C27.0833 49.0451 27.0806 48.9801 27.0779 48.9151C27.0617 48.6876 27.059 48.4601 27.0671 48.2353C27.1212 46.6943 27.7198 45.1857 28.8681 43.9968C29.2608 43.5932 29.5344 43.057 29.6102 42.4476C29.7944 40.9634 28.7408 39.6093 27.2567 39.4251C26.3358 39.3114 25.4231 39.1705 24.5321 38.9945C22.3925 38.572 20.4208 37.9518 18.7173 37.0093C15.1477 35.0349 12.1875 31.338 12.1875 23.1399C12.1685 20.1418 13.2681 17.1328 15.5025 14.7874C16.1985 14.0453 16.4504 12.9674 16.0794 11.9707C15.321 9.94219 15.1558 7.69156 15.6975 5.49239C17.0273 5.78219 19.3673 6.61906 22.8665 8.96719C23.5056 9.3924 24.31 9.54677 25.1035 9.32469C30.5121 7.81615 36.5923 7.69427 42.6265 9.3301C43.3604 9.52781 44.1675 9.41948 44.8419 8.96448C48.3437 6.61906 50.681 5.78219 52.0108 5.49239C52.5227 7.56698 52.436 9.81219 51.629 11.9707C51.2796 12.9241 51.4719 14.0155 52.2058 14.7874C54.2587 16.9405 55.5208 19.8574 55.5208 23.0749C55.5208 31.403 52.5037 35.1134 48.899 37.058C47.2117 37.968 45.2617 38.5611 43.1492 38.9539C42.2771 39.1164 41.386 39.2409 40.4869 39.3411C39.9181 39.4034 39.3548 39.6499 38.9052 40.0859C37.83 41.1259 37.8002 42.8403 38.8402 43.9155C39.0217 44.1024 39.1923 44.3028 39.3494 44.5086C40.2729 45.7247 40.7631 47.2576 40.6358 48.8907C40.6358 48.9557 40.6331 49.0289 40.6277 49.102V59.5832C40.6277 61.0782 41.841 62.2916 43.336 62.2916C44.831 62.2916 46.0444 61.0782 46.0444 59.5832V49.3132C46.1852 47.4607 45.8927 45.6759 45.2535 44.0536C47.3579 43.5905 49.4867 42.8972 51.4746 41.8247C57.116 38.7805 60.9429 33.0443 60.9429 23.0749C60.9429 19.0043 59.5454 15.2559 57.2081 12.293C58.1696 8.65031 57.8202 4.9101 56.4146 1.64114C56.0842 0.874686 55.4423 0.335728 54.6948 0.113645C53.7279 -0.173439 50.004 -0.72323 42.8512 3.80239C36.6952 2.33719 30.5094 2.42385 24.8517 3.79698C17.7044 -0.723231 13.9831 -0.173439 13.0162 0.113645C12.2146 0.351978 11.6052 0.926145 11.2965 1.64385C9.79604 5.14302 9.60645 8.88052 10.5056 12.293C7.98687 15.4834 6.74916 19.3374 6.77083 23.1724C6.77083 32.982 10.5327 38.6722 16.0902 41.7489C18.1269 42.8755 20.3152 43.6041 22.4737 44.097C21.9727 45.3645 21.6965 46.6997 21.6504 48.043C21.6369 48.4249 21.6423 48.8068 21.664 49.1887L21.6667 49.3539Z" fill="#3B3A39" fill-opacity="0.1"/>
</g>
<defs>
<clipPath id="clip0">
<rect width="65" height="65" fill="white"/>
</clipPath>
</defs>
</svg>
