<svg width="80" height="65" viewBox="0 0 80 65" fill="none" xmlns="http://www.w3.org/2000/svg">
<rect x="3" y="3" width="74" height="59" rx="7" stroke="#3B3A39" stroke-opacity="0.1" stroke-width="6"/>
<path fill-rule="evenodd" clip-rule="evenodd" d="M71.7801 6.41694C72.0332 7.68414 71.6686 9.05023 70.6863 10.0325L42.0325 38.6863C40.4704 40.2484 37.9378 40.2484 36.3757 38.6863L9.3137 11.6243C7.78814 10.0988 7.75246 7.64753 9.20663 6.07867C7.37752 6.44671 5.99998 8.06248 5.99998 10V16.7959L32.133 42.9289C36.0383 46.8342 42.3699 46.8342 46.2752 42.9289L74 15.2041V10C74 8.43038 73.0959 7.07192 71.7801 6.41694ZM5.93524 0.860646C7.17717 0.307467 8.55267 0 9.99998 0H6.79589L5.93524 0.860646ZM70 0C72.6008 0 74.9698 0.992913 76.7485 2.62036C76.2863 1.72454 75.6798 0.883932 74.9289 0.133029L74.7959 0H70Z" fill="#3B3A39" fill-opacity="0.1"/>
</svg>
