<svg width="80" height="65" viewBox="0 0 80 65" fill="none" xmlns="http://www.w3.org/2000/svg">
<path fill-rule="evenodd" clip-rule="evenodd" d="M70 6H10C7.79086 6 6 7.79086 6 10V55C6 57.2091 7.79086 59 10 59H70C72.2091 59 74 57.2091 74 55V10C74 7.79086 72.2091 6 70 6ZM10 0C4.47715 0 0 4.47715 0 10V55C0 60.5228 4.47715 65 10 65H70C75.5229 65 80 60.5228 80 55V10C80 4.47715 75.5229 0 70 0H10Z" fill="#3B3A39" fill-opacity="0.1"/>
<path fill-rule="evenodd" clip-rule="evenodd" d="M71.7801 6.41694C72.0332 7.68414 71.6686 9.05023 70.6863 10.0325L42.0325 38.6863C40.4704 40.2484 37.9378 40.2484 36.3757 38.6863L9.31373 11.6243C7.78817 10.0988 7.75249 7.64753 9.20666 6.07867C7.37755 6.44671 6 8.06248 6 10V16.7959L32.133 42.9289C36.0383 46.8342 42.3699 46.8342 46.2752 42.9289L74 15.2041V10C74 8.43038 73.0959 7.07192 71.7801 6.41694ZM5.93527 0.860646C7.17719 0.307467 8.55269 0 10 0H6.79591L5.93527 0.860646ZM70 0C72.6009 0 74.9698 0.992913 76.7485 2.62036C76.2864 1.72454 75.6798 0.883932 74.9289 0.133029L74.7959 0H70Z" fill="#3B3A39" fill-opacity="0.1"/>
</svg>
