<svg width="50" height="65" viewBox="0 0 50 65" fill="none" xmlns="http://www.w3.org/2000/svg">
<path fill-rule="evenodd" clip-rule="evenodd" d="M40 6H10C7.79086 6 6 7.79086 6 10V55C6 57.2091 7.79086 59 10 59H40C42.2091 59 44 57.2091 44 55V10C44 7.79086 42.2091 6 40 6ZM10 0C4.47715 0 0 4.47715 0 10V55C0 60.5228 4.47715 65 10 65H40C45.5228 65 50 60.5228 50 55V10C50 4.47715 45.5228 0 40 0H10Z" fill="#3B3A39" fill-opacity="0.1"/>
<path fill-rule="evenodd" clip-rule="evenodd" d="M37 51H12V49H37V51Z" fill="#3B3A39" fill-opacity="0.1"/>
<path fill-rule="evenodd" clip-rule="evenodd" d="M37 42H12V40H37V42Z" fill="#3B3A39" fill-opacity="0.1"/>
<path fill-rule="evenodd" clip-rule="evenodd" d="M37 33H12V31H37V33Z" fill="#3B3A39" fill-opacity="0.1"/>
<path fill-rule="evenodd" clip-rule="evenodd" d="M37 24H12V22H37V24Z" fill="#3B3A39" fill-opacity="0.1"/>
<path fill-rule="evenodd" clip-rule="evenodd" d="M37 15H12V13H37V15Z" fill="#3B3A39" fill-opacity="0.1"/>
</svg>
