<!-- Generated by IcoMoon.io -->
<svg version="1.1" xmlns="http://www.w3.org/2000/svg" width="32" height="28" viewBox="0 0 32 28">
<title>bell-slash-o</title>
<path d="M16.25 26.5c0-0.141-0.109-0.25-0.25-0.25-1.234 0-2.25-1.016-2.25-2.25 0-0.141-0.109-0.25-0.25-0.25s-0.25 0.109-0.25 0.25c0 1.516 1.234 2.75 2.75 2.75 0.141 0 0.25-0.109 0.25-0.25zM7.859 19.078l13.703-11.875c-0.781-1.641-2.594-3.203-5.563-3.203-4.094 0-6 2.984-6 5 0 4-0.703 7.344-2.141 10.078zM29 22c0 1.094-0.906 2-2 2h-7c0 2.203-1.797 4-4 4s-3.984-1.781-4-3.984l2.328-2.016h11.828c-1.734-1.953-2.906-4.328-3.547-7.172l1.734-1.516c0.797 4.656 2.844 7.156 4.656 8.687zM30.344 0.25l1.313 1.5c0.172 0.219 0.156 0.531-0.047 0.719l-29.25 25.344c-0.203 0.172-0.531 0.156-0.703-0.063l-1.313-1.5c-0.172-0.219-0.156-0.531 0.047-0.703l2.906-2.516c-0.187-0.313-0.297-0.656-0.297-1.031 2.312-1.953 5-5.453 5-13 0-3 2.484-6.281 6.625-6.891-0.078-0.187-0.125-0.391-0.125-0.609 0-0.828 0.672-1.5 1.5-1.5s1.5 0.672 1.5 1.5c0 0.219-0.047 0.422-0.125 0.609 2.688 0.391 4.672 1.906 5.734 3.75l6.531-5.672c0.203-0.172 0.531-0.156 0.703 0.063z"></path>
</svg>
