<!-- Generated by IcoMoon.io -->
<svg version="1.1" xmlns="http://www.w3.org/2000/svg" width="16" height="28" viewBox="0 0 16 28">
<title>thermometer-1</title>
<path d="M10 21c0 1.656-1.344 3-3 3s-3-1.344-3-3c0-1.25 0.781-2.391 2-2.828v-2.172h2v2.172c1.219 0.438 2 1.578 2 2.828zM12 21c0-1.641-0.781-3.078-2-4v-12c0-1.656-1.344-3-3-3s-3 1.344-3 3v12c-1.219 0.922-2 2.359-2 4 0 2.766 2.234 5 5 5s5-2.234 5-5zM14 21c0 3.859-3.141 7-7 7s-7-3.141-7-7c0-1.906 0.766-3.625 2-4.891v-11.109c0-2.766 2.234-5 5-5s5 2.234 5 5v11.109c1.234 1.266 2 2.984 2 4.891zM16 12v2h-3v-2h3zM16 8v2h-3v-2h3zM16 4v2h-3v-2h3z"></path>
</svg>
