<svg xmlns="http://www.w3.org/2000/svg" xmlns:xlink="http://www.w3.org/1999/xlink">

<!--Asparagus-->
<symbol id="icon-asparagus" viewBox="0 0 61 159">
<path d="M10.4137 40.2401C10.2816 37.6573 12.3387 35.5 14.9274 35.5H41.8284C44.3624 35.5 46.3904 37.5391 46.3352 40.0606C46.1226 49.7624 45.6761 71.8087 45.5203 92.2749C45.4424 102.508 45.4372 112.348 45.5704 120.055C45.637 123.908 45.7383 127.231 45.8827 129.806C46.0259 132.357 46.2136 134.228 46.4688 135.135C49.3487 145.368 50.2266 151.592 50.4406 155.09C50.5611 157.059 48.9899 158.5 46.9006 158.5H10.3691C8.17289 158.5 6.45106 156.925 6.52326 154.823C6.65303 151.045 7.38322 144.578 10.1138 135.139C11.1453 131.573 11.728 125.004 12.018 116.927C12.3087 108.829 12.3063 99.1574 12.1478 89.3478C11.8308 69.7274 10.8889 49.5347 10.4137 40.2401Z" fill="#9ADE65" stroke="white"/>
<ellipse cx="35.8154" cy="123.659" rx="3.50391" ry="3.21191" transform="rotate(-15 35.8154 123.659)" fill="black"/>
<ellipse cx="21.2158" cy="123.659" rx="3.50391" ry="3.21191" transform="rotate(-15 21.2158 123.659)" fill="black"/>
<path d="M24.5918 127.826C24.5918 127.826 25.7082 131.33 28.3877 131.33C31.0672 131.33 32.1836 127.826 32.1836 127.826" stroke="black" stroke-width="3"/>
<path d="M24.1561 11.2411C25.0797 9.2683 25.7521 7.8347 26.4 6.82404C27.0426 5.82187 27.6125 5.31551 28.2946 5.10469C28.9059 4.91575 29.7006 4.91017 30.3146 5.09052C30.9998 5.29181 31.5763 5.78944 32.2318 6.7805C32.8929 7.78012 33.584 9.2014 34.5334 11.1575C37.2838 16.8238 40.333 23.8056 42.0184 29.9197C42.8617 32.979 43.3551 35.7915 43.3117 38.0993C43.2682 40.4176 42.6866 42.1262 41.4939 43.1151C37.34 46.5592 33.0598 48.25 28.9237 48.25C24.7917 48.25 20.7407 46.5627 17.0381 43.1332C15.982 42.155 15.4862 40.4525 15.5003 38.1305C15.5143 35.8256 16.0309 33.0192 16.8725 29.9685C18.5544 23.8716 21.5036 16.9069 24.1561 11.2411Z" fill="#9ADE65" stroke="white"/>
<path d="M41.1561 16.2411C42.0797 14.2683 42.7521 12.8347 43.4 11.824C44.0426 10.8219 44.6125 10.3155 45.2946 10.1047C45.9059 9.91575 46.7006 9.91017 47.3146 10.0905C47.9998 10.2918 48.5763 10.7894 49.2318 11.7805C49.8929 12.7801 50.584 14.2014 51.5334 16.1575C54.2838 21.8238 57.333 28.8056 59.0184 34.9197C59.8617 37.979 60.3551 40.7915 60.3117 43.0993C60.2682 45.4176 59.6866 47.1262 58.4939 48.1151C54.34 51.5592 50.0598 53.25 45.9237 53.25C41.7917 53.25 37.7407 51.5627 34.0381 48.1332C32.982 47.155 32.4862 45.4525 32.5003 43.1305C32.5143 40.8256 33.0309 38.0192 33.8725 34.9685C35.5544 28.8716 38.5036 21.9069 41.1561 16.2411Z" fill="#9ADE65" stroke="white"/>
<path d="M9.15614 16.2411C10.0797 14.2683 10.7521 12.8347 11.4 11.824C12.0426 10.8219 12.6125 10.3155 13.2946 10.1047C13.9059 9.91575 14.7006 9.91017 15.3146 10.0905C15.9998 10.2918 16.5763 10.7894 17.2318 11.7805C17.8929 12.7801 18.584 14.2014 19.5334 16.1575C22.2838 21.8238 25.333 28.8056 27.0184 34.9197C27.8617 37.979 28.3551 40.7915 28.3117 43.0993C28.2682 45.4176 27.6866 47.1262 26.4939 48.1151C22.34 51.5592 18.0598 53.25 13.9237 53.25C9.79169 53.25 5.74071 51.5627 2.03805 48.1332C0.981991 47.155 0.486151 45.4525 0.500293 43.1305C0.514332 40.8256 1.03091 38.0192 1.87249 34.9685C3.55444 28.8716 6.50361 21.9069 9.15614 16.2411Z" fill="#9ADE65" stroke="white"/>
<path d="M36.1561 34.2411C37.0797 32.2683 37.7521 30.8347 38.4 29.824C39.0426 28.8219 39.6125 28.3155 40.2946 28.1047C40.9059 27.9158 41.7006 27.9102 42.3146 28.0905C42.9998 28.2918 43.5763 28.7894 44.2318 29.7805C44.8929 30.7801 45.584 32.2014 46.5334 34.1575C49.2838 39.8238 52.333 46.8056 54.0184 52.9197C54.8617 55.979 55.3551 58.7915 55.3117 61.0993C55.2682 63.4176 54.6866 65.1262 53.4939 66.1151C49.34 69.5592 45.0598 71.25 40.9237 71.25C36.7917 71.25 32.7407 69.5627 29.0381 66.1332C27.982 65.155 27.4862 63.4525 27.5003 61.1305C27.5143 58.8256 28.0309 56.0192 28.8725 52.9685C30.5544 46.8716 33.5036 39.9069 36.1561 34.2411Z" fill="#9ADE65" stroke="white"/>
<path d="M12.1561 34.2411C13.0797 32.2683 13.7521 30.8347 14.4 29.824C15.0426 28.8219 15.6125 28.3155 16.2946 28.1047C16.9059 27.9158 17.7006 27.9102 18.3146 28.0905C18.9998 28.2918 19.5763 28.7894 20.2318 29.7805C20.8929 30.7801 21.584 32.2014 22.5334 34.1575C25.2838 39.8238 28.333 46.8056 30.0184 52.9197C30.8617 55.979 31.3551 58.7915 31.3117 61.0993C31.2682 63.4176 30.6866 65.1262 29.4939 66.1151C25.34 69.5592 21.0598 71.25 16.9237 71.25C12.7917 71.25 8.74071 69.5627 5.03805 66.1332C3.98199 65.155 3.48615 63.4525 3.50029 61.1305C3.51433 58.8256 4.03091 56.0192 4.87249 52.9685C6.55444 46.8716 9.50361 39.9069 12.1561 34.2411Z" fill="#9ADE65" stroke="white"/>
<path d="M23.7017 32.1954C24.6408 30.2247 25.3247 28.7919 25.9791 27.7824C26.6286 26.7806 27.1995 26.2761 27.8762 26.0682C28.4876 25.8803 29.2697 25.8746 29.8839 26.0537C30.5636 26.2519 31.1414 26.7473 31.8042 27.7376C32.4722 28.7357 33.1754 30.1556 34.141 32.1089C37.2417 38.3806 40.8306 46.3848 42.8679 53.4516C43.8873 56.9875 44.5092 60.259 44.4999 62.9473C44.4906 65.6485 43.8461 67.652 42.4588 68.7993C37.8382 72.6204 33.0727 74.5 28.4631 74.5C23.8576 74.5 19.3457 72.6239 15.2253 68.8174C13.9954 67.681 13.4489 65.6839 13.5037 62.9796C13.5581 60.2948 14.2033 57.0303 15.2174 53.5039C17.2442 46.4557 20.7122 38.4692 23.7017 32.1954Z" fill="#9ADE65" stroke="white"/>
<path d="M39.6093 97.5497C40.6287 95.7284 41.3646 94.4166 42.0811 93.5165C42.7819 92.6361 43.4169 92.2105 44.2188 92.09C44.5154 92.0455 44.9166 92.0596 45.3299 92.131C45.7431 92.2024 46.1258 92.3238 46.3902 92.4653C47.1058 92.8483 47.5604 93.46 47.9237 94.5177C48.2954 95.5998 48.5468 97.0731 48.8937 99.1187C49.2181 101.032 49.3818 102.833 49.2585 104.264C49.1322 105.729 48.7213 106.632 48.0773 106.999C46.0035 108.18 44.034 108.575 42.2733 108.264C40.5167 107.954 38.9064 106.932 37.5644 105.163C37.153 104.621 37.1124 103.644 37.5151 102.229C37.9064 100.854 38.6702 99.2275 39.6093 97.5497Z" fill="#9ADE65" stroke="white"/>
<path d="M9.75191 86.1828C10.0869 84.1226 10.3299 82.6383 10.6953 81.5474C11.0526 80.4805 11.5038 79.8633 12.2162 79.4758C12.4796 79.3326 12.8615 79.2085 13.2742 79.1343C13.6869 79.0601 14.0881 79.0433 14.3849 79.0858C15.1884 79.2009 15.8248 79.6203 16.5279 80.4899C17.2473 81.3797 17.9874 82.6781 19.0131 84.4817C19.9722 86.1682 20.7422 87.8055 21.1156 89.1919C21.4979 90.6115 21.4207 91.6007 20.941 92.1658C19.3964 93.9852 17.6805 95.0295 15.9199 95.34C14.1633 95.6497 12.3004 95.24 10.4344 94.0367C9.86242 93.6679 9.49004 92.7635 9.38451 91.2964C9.28192 89.8703 9.44332 88.0806 9.75191 86.1828Z" fill="#9ADE65" stroke="white"/>
</symbol>
<!--broccoli-->
<symbol id="icon-broccoli" viewBox="0 0 173 162">
<path d="M68.0018 62.6154C68.2263 59.4757 70.8389 57.0432 73.9866 57.0432H95.7986C98.9806 57.0432 101.609 59.5273 101.789 62.7042L107.037 155.439C107.232 158.881 104.494 161.778 101.047 161.778H67.3572C63.875 161.778 61.1242 158.824 61.3725 155.351L68.0018 62.6154Z" fill="white"/>
<rect width="21.1266" height="54.0213" rx="6" transform="matrix(-0.713068 -0.701095 0.713068 -0.701095 100.188 120.729)" fill="white"/>
<rect width="21.1266" height="50.6976" rx="6" transform="matrix(0.713068 -0.701095 0.713068 0.701095 29.9243 85.1849)" fill="white"/>
<path d="M68.5554 63.5577C68.7763 60.415 71.3902 57.9784 74.5406 57.9784H95.2036C98.3878 57.9784 101.017 60.4657 101.194 63.645L106.25 154.51C106.442 157.949 103.704 160.843 100.259 160.843H68.1543C64.6749 160.843 61.9251 157.893 62.169 154.423L68.5554 63.5577Z" fill="#9ADE65"/>
<rect width="20.5726" height="52.6045" rx="6" transform="matrix(-0.707093 -0.70712 0.707093 -0.70712 99.642 120.527)" fill="#9ADE65"/>
<rect width="20.5726" height="49.368" rx="6" transform="matrix(0.707093 -0.70712 0.707093 0.70712 31.7946 85.6175)" fill="#9ADE65"/>
<path d="M87.0473 21.6781C87.0473 33.6506 77.413 43.3563 65.5286 43.3563C53.6441 43.3563 44.0098 33.6506 44.0098 21.6781C44.0098 9.70563 53.6441 0 65.5286 0C77.413 0 87.0473 9.70563 87.0473 21.6781Z" fill="white"/>
<path d="M73.897 43.3563C73.897 55.3288 64.2627 65.0344 52.3782 65.0344C40.4938 65.0344 30.8595 55.3288 30.8595 43.3563C30.8595 31.3838 40.4938 21.6781 52.3782 21.6781C64.2627 21.6781 73.897 31.3838 73.897 43.3563Z" fill="white"/>
<path d="M89.4383 57.8084C89.4383 69.7809 79.804 79.4865 67.9195 79.4865C56.0351 79.4865 46.4008 69.7809 46.4008 57.8084C46.4008 45.8358 56.0351 36.1302 67.9195 36.1302C79.804 36.1302 89.4383 45.8358 89.4383 57.8084Z" fill="white"/>
<path d="M103.784 43.3563C103.784 55.3288 94.1498 65.0344 82.2654 65.0344C70.3809 65.0344 60.7466 55.3288 60.7466 43.3563C60.7466 31.3838 70.3809 21.6781 82.2654 21.6781C94.1498 21.6781 103.784 31.3838 103.784 43.3563Z" fill="white"/>
<path d="M119.325 57.8084C119.325 69.7809 109.691 79.4865 97.8067 79.4865C85.9222 79.4865 76.2879 69.7809 76.2879 57.8084C76.2879 45.8358 85.9222 36.1302 97.8067 36.1302C109.691 36.1302 119.325 45.8358 119.325 57.8084Z" fill="white"/>
<path d="M136.062 43.3563C136.062 55.3288 126.428 65.0344 114.543 65.0344C102.659 65.0344 93.0247 55.3288 93.0247 43.3563C93.0247 31.3838 102.659 21.6781 114.543 21.6781C126.428 21.6781 136.062 31.3838 136.062 43.3563Z" fill="white"/>
<path d="M120.521 21.6781C120.521 33.6506 110.887 43.3563 99.0022 43.3563C87.1177 43.3563 77.4834 33.6506 77.4834 21.6781C77.4834 9.70563 87.1177 0 99.0022 0C110.887 0 120.521 9.70563 120.521 21.6781Z" fill="white"/>
<path d="M86.9676 22.2095C86.9676 33.8298 77.5475 43.25 65.9271 43.25C54.3067 43.25 44.8866 33.8298 44.8866 22.2095C44.8866 10.5891 54.3067 1.16891 65.9271 1.16891C77.5475 1.16891 86.9676 10.5891 86.9676 22.2095Z" fill="#425B28"/>
<path d="M74.1095 43.25C74.1095 54.8704 64.6894 64.2905 53.069 64.2905C41.4486 64.2905 32.0284 54.8704 32.0284 43.25C32.0284 31.6296 41.4486 22.2095 53.069 22.2095C64.6894 22.2095 74.1095 31.6296 74.1095 43.25Z" fill="#425B28"/>
<path d="M89.3055 57.277C89.3055 68.8974 79.8853 78.3176 68.2649 78.3176C56.6446 78.3176 47.2244 68.8974 47.2244 57.277C47.2244 45.6567 56.6446 36.2365 68.2649 36.2365C79.8853 36.2365 89.3055 45.6567 89.3055 57.277Z" fill="#425B28"/>
<path d="M103.332 43.25C103.332 54.8704 93.9123 64.2905 82.292 64.2905C70.6716 64.2905 61.2514 54.8704 61.2514 43.25C61.2514 31.6296 70.6716 22.2095 82.292 22.2095C93.9123 22.2095 103.332 31.6296 103.332 43.25Z" fill="#425B28"/>
<path d="M118.528 57.277C118.528 68.8974 109.108 78.3176 97.4879 78.3176C85.8675 78.3176 76.4474 68.8974 76.4474 57.277C76.4474 45.6567 85.8675 36.2365 97.4879 36.2365C109.108 36.2365 118.528 45.6567 118.528 57.277Z" fill="#425B28"/>
<path d="M134.893 43.25C134.893 54.8704 125.473 64.2905 113.853 64.2905C102.232 64.2905 92.8122 54.8704 92.8122 43.25C92.8122 31.6296 102.232 22.2095 113.853 22.2095C125.473 22.2095 134.893 31.6296 134.893 43.25Z" fill="#425B28"/>
<path d="M119.697 22.2095C119.697 33.8298 110.277 43.25 98.6568 43.25C87.0365 43.25 77.6163 33.8298 77.6163 22.2095C77.6163 10.5891 87.0365 1.16891 98.6568 1.16891C110.277 1.16891 119.697 10.5891 119.697 22.2095Z" fill="#425B28"/>
<path d="M133.788 42.5912C133.788 52.1692 126.081 59.9337 116.573 59.9337C107.066 59.9337 99.3582 52.1692 99.3582 42.5912C99.3582 33.0132 107.066 25.2487 116.573 25.2487C126.081 25.2487 133.788 33.0132 133.788 42.5912Z" fill="white"/>
<path d="M123.268 59.9337C123.268 69.5117 115.56 77.2762 106.053 77.2762C96.5453 77.2762 88.8379 69.5117 88.8379 59.9337C88.8379 50.3557 96.5453 42.5912 106.053 42.5912C115.56 42.5912 123.268 50.3557 123.268 59.9337Z" fill="white"/>
<path d="M135.701 71.4953C135.701 81.0733 127.994 88.8378 118.486 88.8378C108.978 88.8378 101.271 81.0733 101.271 71.4953C101.271 61.9173 108.978 54.1528 118.486 54.1528C127.994 54.1528 135.701 61.9173 135.701 71.4953Z" fill="white"/>
<path d="M147.178 59.9337C147.178 69.5117 139.47 77.2762 129.963 77.2762C120.455 77.2762 112.748 69.5117 112.748 59.9337C112.748 50.3557 120.455 42.5912 129.963 42.5912C139.47 42.5912 147.178 50.3557 147.178 59.9337Z" fill="white"/>
<path d="M159.611 71.4953C159.611 81.0733 151.903 88.8378 142.396 88.8378C132.888 88.8378 125.181 81.0733 125.181 71.4953C125.181 61.9173 132.888 54.1528 142.396 54.1528C151.903 54.1528 159.611 61.9173 159.611 71.4953Z" fill="white"/>
<path d="M173 59.9337C173 69.5117 165.293 77.2762 155.785 77.2762C146.277 77.2762 138.57 69.5117 138.57 59.9337C138.57 50.3557 146.277 42.5912 155.785 42.5912C165.293 42.5912 173 50.3557 173 59.9337Z" fill="white"/>
<path d="M160.567 42.5912C160.567 52.1692 152.86 59.9337 143.352 59.9337C133.844 59.9337 126.137 52.1692 126.137 42.5912C126.137 33.0132 133.844 25.2487 143.352 25.2487C152.86 25.2487 160.567 33.0132 160.567 42.5912Z" fill="white"/>
<path d="M133.724 43.0162C133.724 52.3125 126.188 59.8487 116.892 59.8487C107.596 59.8487 100.06 52.3125 100.06 43.0162C100.06 33.7199 107.596 26.1838 116.892 26.1838C126.188 26.1838 133.724 33.7199 133.724 43.0162Z" fill="#425B28"/>
<path d="M123.438 59.8487C123.438 69.145 115.902 76.6811 106.606 76.6811C97.3092 76.6811 89.7731 69.145 89.7731 59.8487C89.7731 50.5524 97.3092 43.0162 106.606 43.0162C115.902 43.0162 123.438 50.5524 123.438 59.8487Z" fill="#425B28"/>
<path d="M135.595 71.0703C135.595 80.3666 128.059 87.9027 118.762 87.9027C109.466 87.9027 101.93 80.3666 101.93 71.0703C101.93 61.774 109.466 54.2379 118.762 54.2379C128.059 54.2379 135.595 61.774 135.595 71.0703Z" fill="#425B28"/>
<path d="M146.816 59.8487C146.816 69.145 139.28 76.6811 129.984 76.6811C120.688 76.6811 113.151 69.145 113.151 59.8487C113.151 50.5524 120.688 43.0162 129.984 43.0162C139.28 43.0162 146.816 50.5524 146.816 59.8487Z" fill="#425B28"/>
<path d="M158.973 71.0703C158.973 80.3666 151.437 87.9027 142.141 87.9027C132.844 87.9027 125.308 80.3666 125.308 71.0703C125.308 61.774 132.844 54.2379 142.141 54.2379C151.437 54.2379 158.973 61.774 158.973 71.0703Z" fill="#425B28"/>
<path d="M172.065 59.8487C172.065 69.145 164.529 76.6811 155.233 76.6811C145.936 76.6811 138.4 69.145 138.4 59.8487C138.4 50.5524 145.936 43.0162 155.233 43.0162C164.529 43.0162 172.065 50.5524 172.065 59.8487Z" fill="#425B28"/>
<path d="M159.908 43.0162C159.908 52.3125 152.372 59.8487 143.076 59.8487C133.779 59.8487 126.243 52.3125 126.243 43.0162C126.243 33.7199 133.779 26.1838 143.076 26.1838C152.372 26.1838 159.908 33.7199 159.908 43.0162Z" fill="#425B28"/>
<path d="M44.9502 43.5263C44.9502 53.1043 37.2428 60.8688 27.7353 60.8688C18.2277 60.8688 10.5203 53.1043 10.5203 43.5263C10.5203 33.9483 18.2277 26.1838 27.7353 26.1838C37.2428 26.1838 44.9502 33.9483 44.9502 43.5263Z" fill="white"/>
<path d="M34.43 60.8688C34.43 70.4468 26.7226 78.2113 17.215 78.2113C7.70741 78.2113 0 70.4468 0 60.8688C0 51.2908 7.70741 43.5263 17.215 43.5263C26.7226 43.5263 34.43 51.2908 34.43 60.8688Z" fill="white"/>
<path d="M46.863 72.4305C46.863 82.0085 39.1556 89.773 29.648 89.773C20.1405 89.773 12.433 82.0085 12.433 72.4305C12.433 62.8525 20.1405 55.088 29.648 55.088C39.1556 55.088 46.863 62.8525 46.863 72.4305Z" fill="white"/>
<path d="M58.3397 60.8688C58.3397 70.4468 50.6323 78.2113 41.1247 78.2113C31.6171 78.2113 23.9097 70.4468 23.9097 60.8688C23.9097 51.2908 31.6171 43.5263 41.1247 43.5263C50.6323 43.5263 58.3397 51.2908 58.3397 60.8688Z" fill="white"/>
<path d="M70.7727 72.4305C70.7727 82.0085 63.0653 89.773 53.5577 89.773C44.0502 89.773 36.3428 82.0085 36.3428 72.4305C36.3428 62.8525 44.0502 55.088 53.5577 55.088C63.0653 55.088 70.7727 62.8525 70.7727 72.4305Z" fill="white"/>
<path d="M84.1622 60.8688C84.1622 70.4468 76.4548 78.2113 66.9472 78.2113C57.4396 78.2113 49.7322 70.4468 49.7322 60.8688C49.7322 51.2908 57.4396 43.5263 66.9472 43.5263C76.4548 43.5263 84.1622 51.2908 84.1622 60.8688Z" fill="white"/>
<path d="M71.7291 43.5263C71.7291 53.1043 64.0217 60.8688 54.5141 60.8688C45.0066 60.8688 37.2991 53.1043 37.2991 43.5263C37.2991 33.9483 45.0066 26.1838 54.5141 26.1838C64.0217 26.1838 71.7291 33.9483 71.7291 43.5263Z" fill="white"/>
<path d="M44.8865 43.9514C44.8865 53.2477 37.3504 60.7838 28.0541 60.7838C18.7578 60.7838 11.2217 53.2477 11.2217 43.9514C11.2217 34.6551 18.7578 27.1189 28.0541 27.1189C37.3504 27.1189 44.8865 34.6551 44.8865 43.9514Z" fill="#425B28"/>
<path d="M34.6 60.7838C34.6 70.0801 27.0639 77.6162 17.7676 77.6162C8.47132 77.6162 0.935181 70.0801 0.935181 60.7838C0.935181 51.4875 8.47132 43.9514 17.7676 43.9514C27.0639 43.9514 34.6 51.4875 34.6 60.7838Z" fill="#425B28"/>
<path d="M46.7568 72.0054C46.7568 81.3017 39.2207 88.8378 29.9244 88.8378C20.6281 88.8378 13.0919 81.3017 13.0919 72.0054C13.0919 62.7091 20.6281 55.173 29.9244 55.173C39.2207 55.173 46.7568 62.7091 46.7568 72.0054Z" fill="#425B28"/>
<path d="M57.9784 60.7838C57.9784 70.0801 50.4423 77.6162 41.146 77.6162C31.8497 77.6162 24.3136 70.0801 24.3136 60.7838C24.3136 51.4875 31.8497 43.9514 41.146 43.9514C50.4423 43.9514 57.9784 51.4875 57.9784 60.7838Z" fill="#425B28"/>
<path d="M70.1352 72.0054C70.1352 81.3017 62.599 88.8378 53.3027 88.8378C44.0065 88.8378 36.4703 81.3017 36.4703 72.0054C36.4703 62.7091 44.0065 55.173 53.3027 55.173C62.599 55.173 70.1352 62.7091 70.1352 72.0054Z" fill="#425B28"/>
<path d="M83.2271 60.7838C83.2271 70.0801 75.6909 77.6162 66.3946 77.6162C57.0983 77.6162 49.5622 70.0801 49.5622 60.7838C49.5622 51.4875 57.0983 43.9514 66.3946 43.9514C75.6909 43.9514 83.2271 51.4875 83.2271 60.7838Z" fill="#425B28"/>
<path d="M71.0703 43.9514C71.0703 53.2477 63.5342 60.7838 54.2379 60.7838C44.9416 60.7838 37.4054 53.2477 37.4054 43.9514C37.4054 34.6551 44.9416 27.1189 54.2379 27.1189C63.5342 27.1189 71.0703 34.6551 71.0703 43.9514Z" fill="#425B28"/>
<ellipse cx="96.5237" cy="132.663" rx="5.61081" ry="5.14324" transform="rotate(-15 96.5237 132.663)" fill="black"/>
<ellipse cx="73.1453" cy="132.663" rx="5.61081" ry="5.14324" transform="rotate(-15 73.1453 132.663)" fill="black"/>
<path d="M78.5513 139.335C78.5513 139.335 80.339 144.946 84.6296 144.946C88.9203 144.946 90.708 139.335 90.708 139.335" stroke="black" stroke-width="3"/>
</symbol>
<!--carrot-->
<symbol id="icon-carrot" viewBox="0 0 72 189">
<path d="M44.1705 26.3415C44.1705 35.398 43.0065 45.2336 41.0625 52.7924C40.0895 56.5753 38.9284 59.7595 37.6368 61.9863C36.322 64.2532 34.9766 65.3537 33.6948 65.3537C32.4131 65.3537 31.0677 64.2532 29.7529 61.9863C28.4613 59.7595 27.3001 56.5753 26.3272 52.7924C24.3832 45.2336 23.2192 35.398 23.2192 26.3415C23.2192 17.2638 24.0989 11.5382 25.8623 7.71314C27.5723 4.0041 30.1325 2.04258 33.6744 0.55016C36.173 1.83368 38.7423 3.80275 40.7153 7.57109C42.75 11.4574 44.1705 17.2956 44.1705 26.3415Z" fill="#425B28" stroke="white"/>
<path d="M33.6949 11.8537L34.6101 64.0781" stroke="black" stroke-width="2"/>
<line x1="34.1258" y1="26.9959" x2="39.3941" y2="16.4593" stroke="black"/>
<line x1="34.1258" y1="38.4105" x2="39.3941" y2="27.874" stroke="black"/>
<line x1="34.1258" y1="48.9471" x2="39.3941" y2="38.4105" stroke="black"/>
<line y1="-0.5" x2="11.7803" y2="-0.5" transform="matrix(-0.447214 -0.894427 -0.894427 0.447214 33.6949 27.2195)" stroke="black"/>
<line y1="-0.5" x2="11.7803" y2="-0.5" transform="matrix(-0.447214 -0.894427 -0.894427 0.447214 33.6949 38.6342)" stroke="black"/>
<line y1="-0.5" x2="11.7803" y2="-0.5" transform="matrix(-0.447214 -0.894427 -0.894427 0.447214 33.6949 49.1707)" stroke="black"/>
<path d="M56.3002 36.2642C53.9562 45.0121 50.2862 54.2113 46.4521 61.0094C44.5333 64.4116 42.5875 67.1868 40.7636 69.0034C38.9069 70.8528 37.3225 71.5675 36.0844 71.2358C34.8464 70.904 33.8316 69.4929 33.1483 66.9629C32.4771 64.4777 32.1796 61.1014 32.219 57.1956C32.2975 49.3913 33.7189 39.5895 36.0629 30.8416C38.4123 22.0733 40.7439 16.7704 43.4373 13.5321C46.049 10.392 49.0296 9.15995 52.837 8.63509C54.9183 10.5216 56.8905 13.0885 57.8209 17.2391C58.7805 21.5196 58.6414 27.5265 56.3002 36.2642Z" fill="#425B28" stroke="white"/>
<path d="M49.9312 19.5587L37.2985 70.2405" stroke="black" stroke-width="2"/>
<line x1="46.4283" y1="34.2965" x2="54.2441" y2="25.4825" stroke="black"/>
<line x1="43.474" y1="45.3222" x2="51.2899" y2="36.5082" stroke="black"/>
<line x1="40.7469" y1="55.4997" x2="48.5627" y2="46.6857" stroke="black"/>
<line y1="-0.5" x2="11.7803" y2="-0.5" transform="matrix(-0.20048 -0.979698 -0.979698 0.20048 45.9542 34.401)" stroke="black"/>
<line y1="-0.5" x2="11.7803" y2="-0.5" transform="matrix(-0.20048 -0.979698 -0.979698 0.20048 43 45.4267)" stroke="black"/>
<line y1="-0.5" x2="11.7803" y2="-0.5" transform="matrix(-0.20048 -0.979698 -0.979698 0.20048 40.2728 55.6042)" stroke="black"/>
<path d="M30.9402 30.8416C33.2842 39.5895 34.7055 49.3913 34.7841 57.1956C34.8234 61.1014 34.5259 64.4777 33.8547 66.9629C33.1714 69.4929 32.1567 70.904 30.9186 71.2358C29.6806 71.5675 28.0962 70.8528 26.2394 69.0034C24.4156 67.1868 22.4698 64.4116 20.551 61.0094C16.7168 54.2113 13.0469 45.0121 10.7029 36.2642C8.35339 27.4958 7.72114 21.7376 8.43452 17.5865C9.12627 13.5613 11.0915 11.004 14.1265 8.64569C16.8721 9.23878 19.8635 10.4758 22.7446 13.6051C25.7159 16.8323 28.5989 22.1039 30.9402 30.8416Z" fill="#425B28" stroke="white"/>
<path d="M17.0718 19.5587L31.4725 69.7668" stroke="black" stroke-width="2"/>
<line x1="21.407" y1="34.0735" x2="23.7687" y2="22.5324" stroke="black"/>
<line x1="24.3613" y1="45.0992" x2="26.7231" y2="33.5581" stroke="black"/>
<line x1="27.0884" y1="55.2767" x2="29.4501" y2="43.7356" stroke="black"/>
<line y1="-0.5" x2="11.7803" y2="-0.5" transform="matrix(-0.66347 -0.748203 -0.748203 0.66347 21.0488 34.401)" stroke="black"/>
<line y1="-0.5" x2="11.7803" y2="-0.5" transform="matrix(-0.66347 -0.748203 -0.748203 0.66347 24.0032 45.4267)" stroke="black"/>
<line y1="-0.5" x2="11.7803" y2="-0.5" transform="matrix(-0.66347 -0.748203 -0.748203 0.66347 26.7302 55.6042)" stroke="black"/>
<path d="M71.5 95.7073C71.5 111.662 68.413 134.881 62.5454 154.1C59.611 163.712 55.9909 172.29 51.7355 178.455C47.4706 184.633 42.6453 188.28 37.3171 188.28C31.9831 188.28 26.9925 184.626 22.4794 178.444C17.9775 172.276 14.0296 163.696 10.7669 154.085C4.24216 134.865 0.5 111.651 0.5 95.7073C0.5 79.763 4.24014 71.5263 10.5747 67.2162C13.7599 65.0489 17.6458 63.841 22.1484 63.1783C26.6529 62.5154 31.7413 62.4024 37.3171 62.4024C42.8939 62.4024 47.8152 62.5155 52.0701 63.1777C56.3215 63.8394 59.8706 65.0442 62.722 67.2015C68.4045 71.5008 71.5 79.734 71.5 95.7073Z" fill="#EAA656" stroke="white"/>
<ellipse cx="48.3751" cy="137.077" rx="5.26829" ry="4.82927" transform="rotate(-15 48.3751 137.077)" fill="black"/>
<ellipse cx="26.4239" cy="137.077" rx="5.26829" ry="4.82927" transform="rotate(-15 26.4239 137.077)" fill="black"/>
<path d="M31.4998 143.341C31.4998 143.341 33.1784 148.61 37.2071 148.61C41.2358 148.61 42.9144 143.341 42.9144 143.341" stroke="black" stroke-width="3"/>
<path d="M11.3047 79.0244C11.3047 79.0244 19.815 82.0976 35.4173 82.0976C51.0195 82.0976 60.4754 79.0244 60.4754 79.0244" stroke="black"/>
<path d="M13.0608 92.1951C13.0608 92.1951 20.9632 95.2683 35.451 95.2683C49.9388 95.2683 58.7193 92.1951 58.7193 92.1951" stroke="black"/>
<path d="M14.8169 105.366C14.8169 105.366 22.1115 108.439 35.4848 108.439C48.8582 108.439 56.9632 105.366 56.9632 105.366" stroke="black"/>
<path d="M17.451 118.537C17.451 118.537 24.1377 121.61 36.3966 121.61C48.6556 121.61 56.0852 118.537 56.0852 118.537" stroke="black"/>
<path d="M20.9633 157.171C20.9633 157.171 26.4342 160.244 36.4642 160.244C46.4942 160.244 52.573 157.171 52.573 157.171" stroke="black"/>
<path d="M22.7192 167.707C22.7192 167.707 27.5823 170.78 36.4978 170.78C45.4134 170.78 50.8168 167.707 50.8168 167.707" stroke="black"/>
</symbol>
<!--cauliflower-->
<symbol id="icon-cauliflower" viewBox="0 0 173 121">
<path d="M59.1724 44.1365C59.6013 41.1873 62.1298 39 65.11 39H107.215C110.263 39 112.827 41.2855 113.176 44.3137L121.23 114.27C121.64 117.833 118.855 120.957 115.27 120.957H54.9357C51.2783 120.957 48.4718 117.713 48.9982 114.093L59.1724 44.1365Z" fill="white"/>
<path d="M60.054 44.8825C60.4766 41.9269 63.008 39.7318 65.9936 39.7318H106.266C109.318 39.7318 111.884 42.0237 112.227 45.0569L119.981 113.55C120.384 117.108 117.6 120.225 114.019 120.225H56.1998C52.5482 120.225 49.7434 116.991 50.2603 113.376L60.054 44.8825Z" fill="#D2CFC2"/>
<path d="M87.0473 21.6781C87.0473 33.6506 77.413 43.3563 65.5286 43.3563C53.6441 43.3563 44.0098 33.6506 44.0098 21.6781C44.0098 9.70563 53.6441 0 65.5286 0C77.413 0 87.0473 9.70563 87.0473 21.6781Z" fill="white"/>
<path d="M73.897 43.3563C73.897 55.3288 64.2627 65.0344 52.3782 65.0344C40.4938 65.0344 30.8595 55.3288 30.8595 43.3563C30.8595 31.3838 40.4938 21.6781 52.3782 21.6781C64.2627 21.6781 73.897 31.3838 73.897 43.3563Z" fill="white"/>
<path d="M89.4383 57.8084C89.4383 69.7809 79.804 79.4865 67.9195 79.4865C56.0351 79.4865 46.4008 69.7809 46.4008 57.8084C46.4008 45.8358 56.0351 36.1302 67.9195 36.1302C79.804 36.1302 89.4383 45.8358 89.4383 57.8084Z" fill="white"/>
<path d="M103.784 43.3563C103.784 55.3288 94.1498 65.0344 82.2654 65.0344C70.3809 65.0344 60.7466 55.3288 60.7466 43.3563C60.7466 31.3838 70.3809 21.6781 82.2654 21.6781C94.1498 21.6781 103.784 31.3838 103.784 43.3563Z" fill="white"/>
<path d="M119.325 57.8084C119.325 69.7809 109.691 79.4865 97.8067 79.4865C85.9222 79.4865 76.2879 69.7809 76.2879 57.8084C76.2879 45.8358 85.9222 36.1302 97.8067 36.1302C109.691 36.1302 119.325 45.8358 119.325 57.8084Z" fill="white"/>
<path d="M136.062 43.3563C136.062 55.3288 126.428 65.0344 114.543 65.0344C102.659 65.0344 93.0247 55.3288 93.0247 43.3563C93.0247 31.3838 102.659 21.6781 114.543 21.6781C126.428 21.6781 136.062 31.3838 136.062 43.3563Z" fill="white"/>
<path d="M120.521 21.6781C120.521 33.6506 110.887 43.3563 99.0022 43.3563C87.1177 43.3563 77.4834 33.6506 77.4834 21.6781C77.4834 9.70563 87.1177 0 99.0022 0C110.887 0 120.521 9.70563 120.521 21.6781Z" fill="white"/>
<path d="M86.9676 22.2095C86.9676 33.8298 77.5475 43.25 65.9271 43.25C54.3067 43.25 44.8866 33.8298 44.8866 22.2095C44.8866 10.5891 54.3067 1.16891 65.9271 1.16891C77.5475 1.16891 86.9676 10.5891 86.9676 22.2095Z" fill="#D2CFC2"/>
<path d="M74.1095 43.25C74.1095 54.8704 64.6894 64.2905 53.069 64.2905C41.4486 64.2905 32.0284 54.8704 32.0284 43.25C32.0284 31.6296 41.4486 22.2095 53.069 22.2095C64.6894 22.2095 74.1095 31.6296 74.1095 43.25Z" fill="#D2CFC2"/>
<path d="M89.3055 57.277C89.3055 68.8974 79.8853 78.3176 68.2649 78.3176C56.6446 78.3176 47.2244 68.8974 47.2244 57.277C47.2244 45.6567 56.6446 36.2365 68.2649 36.2365C79.8853 36.2365 89.3055 45.6567 89.3055 57.277Z" fill="#D2CFC2"/>
<path d="M103.332 43.25C103.332 54.8704 93.9123 64.2905 82.292 64.2905C70.6716 64.2905 61.2514 54.8704 61.2514 43.25C61.2514 31.6296 70.6716 22.2095 82.292 22.2095C93.9123 22.2095 103.332 31.6296 103.332 43.25Z" fill="#D2CFC2"/>
<path d="M118.528 57.277C118.528 68.8974 109.108 78.3176 97.4879 78.3176C85.8675 78.3176 76.4474 68.8974 76.4474 57.277C76.4474 45.6567 85.8675 36.2365 97.4879 36.2365C109.108 36.2365 118.528 45.6567 118.528 57.277Z" fill="#D2CFC2"/>
<path d="M134.893 43.25C134.893 54.8704 125.473 64.2905 113.853 64.2905C102.232 64.2905 92.8122 54.8704 92.8122 43.25C92.8122 31.6296 102.232 22.2095 113.853 22.2095C125.473 22.2095 134.893 31.6296 134.893 43.25Z" fill="#D2CFC2"/>
<path d="M119.697 22.2095C119.697 33.8298 110.277 43.25 98.6568 43.25C87.0365 43.25 77.6163 33.8298 77.6163 22.2095C77.6163 10.5891 87.0365 1.16891 98.6568 1.16891C110.277 1.16891 119.697 10.5891 119.697 22.2095Z" fill="#D2CFC2"/>
<path d="M133.788 42.5912C133.788 52.1692 126.081 59.9337 116.573 59.9337C107.066 59.9337 99.3582 52.1692 99.3582 42.5912C99.3582 33.0132 107.066 25.2487 116.573 25.2487C126.081 25.2487 133.788 33.0132 133.788 42.5912Z" fill="white"/>
<path d="M123.268 59.9337C123.268 69.5117 115.56 77.2762 106.053 77.2762C96.5453 77.2762 88.8379 69.5117 88.8379 59.9337C88.8379 50.3557 96.5453 42.5912 106.053 42.5912C115.56 42.5912 123.268 50.3557 123.268 59.9337Z" fill="white"/>
<path d="M135.701 71.4953C135.701 81.0733 127.994 88.8378 118.486 88.8378C108.978 88.8378 101.271 81.0733 101.271 71.4953C101.271 61.9173 108.978 54.1528 118.486 54.1528C127.994 54.1528 135.701 61.9173 135.701 71.4953Z" fill="white"/>
<path d="M147.178 59.9337C147.178 69.5117 139.47 77.2762 129.963 77.2762C120.455 77.2762 112.748 69.5117 112.748 59.9337C112.748 50.3557 120.455 42.5912 129.963 42.5912C139.47 42.5912 147.178 50.3557 147.178 59.9337Z" fill="white"/>
<path d="M159.611 71.4953C159.611 81.0733 151.903 88.8378 142.396 88.8378C132.888 88.8378 125.181 81.0733 125.181 71.4953C125.181 61.9173 132.888 54.1528 142.396 54.1528C151.903 54.1528 159.611 61.9173 159.611 71.4953Z" fill="white"/>
<path d="M173 59.9337C173 69.5117 165.293 77.2762 155.785 77.2762C146.277 77.2762 138.57 69.5117 138.57 59.9337C138.57 50.3557 146.277 42.5912 155.785 42.5912C165.293 42.5912 173 50.3557 173 59.9337Z" fill="white"/>
<path d="M160.567 42.5912C160.567 52.1692 152.86 59.9337 143.352 59.9337C133.844 59.9337 126.137 52.1692 126.137 42.5912C126.137 33.0132 133.844 25.2487 143.352 25.2487C152.86 25.2487 160.567 33.0132 160.567 42.5912Z" fill="white"/>
<path d="M133.724 43.0162C133.724 52.3125 126.188 59.8487 116.892 59.8487C107.596 59.8487 100.06 52.3125 100.06 43.0162C100.06 33.7199 107.596 26.1838 116.892 26.1838C126.188 26.1838 133.724 33.7199 133.724 43.0162Z" fill="#D2CFC2"/>
<path d="M123.438 59.8487C123.438 69.145 115.902 76.6811 106.606 76.6811C97.3092 76.6811 89.7731 69.145 89.7731 59.8487C89.7731 50.5524 97.3092 43.0162 106.606 43.0162C115.902 43.0162 123.438 50.5524 123.438 59.8487Z" fill="#D2CFC2"/>
<path d="M135.595 71.0703C135.595 80.3666 128.059 87.9027 118.762 87.9027C109.466 87.9027 101.93 80.3666 101.93 71.0703C101.93 61.774 109.466 54.2379 118.762 54.2379C128.059 54.2379 135.595 61.774 135.595 71.0703Z" fill="#D2CFC2"/>
<path d="M146.816 59.8487C146.816 69.145 139.28 76.6811 129.984 76.6811C120.688 76.6811 113.151 69.145 113.151 59.8487C113.151 50.5524 120.688 43.0162 129.984 43.0162C139.28 43.0162 146.816 50.5524 146.816 59.8487Z" fill="#D2CFC2"/>
<path d="M158.973 71.0703C158.973 80.3666 151.437 87.9027 142.141 87.9027C132.844 87.9027 125.308 80.3666 125.308 71.0703C125.308 61.774 132.844 54.2379 142.141 54.2379C151.437 54.2379 158.973 61.774 158.973 71.0703Z" fill="#D2CFC2"/>
<path d="M172.065 59.8487C172.065 69.145 164.529 76.6811 155.233 76.6811C145.936 76.6811 138.4 69.145 138.4 59.8487C138.4 50.5524 145.936 43.0162 155.233 43.0162C164.529 43.0162 172.065 50.5524 172.065 59.8487Z" fill="#D2CFC2"/>
<path d="M159.908 43.0162C159.908 52.3125 152.372 59.8487 143.076 59.8487C133.779 59.8487 126.243 52.3125 126.243 43.0162C126.243 33.7199 133.779 26.1838 143.076 26.1838C152.372 26.1838 159.908 33.7199 159.908 43.0162Z" fill="#D2CFC2"/>
<path d="M44.9502 43.5263C44.9502 53.1043 37.2428 60.8688 27.7353 60.8688C18.2277 60.8688 10.5203 53.1043 10.5203 43.5263C10.5203 33.9483 18.2277 26.1838 27.7353 26.1838C37.2428 26.1838 44.9502 33.9483 44.9502 43.5263Z" fill="white"/>
<path d="M34.43 60.8688C34.43 70.4468 26.7226 78.2113 17.215 78.2113C7.70741 78.2113 0 70.4468 0 60.8688C0 51.2908 7.70741 43.5263 17.215 43.5263C26.7226 43.5263 34.43 51.2908 34.43 60.8688Z" fill="white"/>
<path d="M46.863 72.4305C46.863 82.0085 39.1556 89.773 29.648 89.773C20.1405 89.773 12.433 82.0085 12.433 72.4305C12.433 62.8525 20.1405 55.088 29.648 55.088C39.1556 55.088 46.863 62.8525 46.863 72.4305Z" fill="white"/>
<path d="M58.3397 60.8688C58.3397 70.4468 50.6323 78.2113 41.1247 78.2113C31.6171 78.2113 23.9097 70.4468 23.9097 60.8688C23.9097 51.2908 31.6171 43.5263 41.1247 43.5263C50.6323 43.5263 58.3397 51.2908 58.3397 60.8688Z" fill="white"/>
<path d="M70.7727 72.4305C70.7727 82.0085 63.0653 89.773 53.5577 89.773C44.0502 89.773 36.3428 82.0085 36.3428 72.4305C36.3428 62.8525 44.0502 55.088 53.5577 55.088C63.0653 55.088 70.7727 62.8525 70.7727 72.4305Z" fill="white"/>
<path d="M84.1622 60.8688C84.1622 70.4468 76.4548 78.2113 66.9472 78.2113C57.4396 78.2113 49.7322 70.4468 49.7322 60.8688C49.7322 51.2908 57.4396 43.5263 66.9472 43.5263C76.4548 43.5263 84.1622 51.2908 84.1622 60.8688Z" fill="white"/>
<path d="M71.7291 43.5263C71.7291 53.1043 64.0217 60.8688 54.5141 60.8688C45.0066 60.8688 37.2991 53.1043 37.2991 43.5263C37.2991 33.9483 45.0066 26.1838 54.5141 26.1838C64.0217 26.1838 71.7291 33.9483 71.7291 43.5263Z" fill="white"/>
<path d="M44.8865 43.9514C44.8865 53.2477 37.3504 60.7838 28.0541 60.7838C18.7578 60.7838 11.2217 53.2477 11.2217 43.9514C11.2217 34.6551 18.7578 27.1189 28.0541 27.1189C37.3504 27.1189 44.8865 34.6551 44.8865 43.9514Z" fill="#D2CFC2"/>
<path d="M34.6 60.7838C34.6 70.0801 27.0639 77.6162 17.7676 77.6162C8.47132 77.6162 0.935181 70.0801 0.935181 60.7838C0.935181 51.4875 8.47132 43.9514 17.7676 43.9514C27.0639 43.9514 34.6 51.4875 34.6 60.7838Z" fill="#D2CFC2"/>
<path d="M46.7568 72.0054C46.7568 81.3017 39.2207 88.8378 29.9244 88.8378C20.6281 88.8378 13.0919 81.3017 13.0919 72.0054C13.0919 62.7091 20.6281 55.173 29.9244 55.173C39.2207 55.173 46.7568 62.7091 46.7568 72.0054Z" fill="#D2CFC2"/>
<path d="M57.9784 60.7838C57.9784 70.0801 50.4423 77.6162 41.146 77.6162C31.8497 77.6162 24.3136 70.0801 24.3136 60.7838C24.3136 51.4875 31.8497 43.9514 41.146 43.9514C50.4423 43.9514 57.9784 51.4875 57.9784 60.7838Z" fill="#D2CFC2"/>
<path d="M70.1352 72.0054C70.1352 81.3017 62.599 88.8378 53.3027 88.8378C44.0065 88.8378 36.4703 81.3017 36.4703 72.0054C36.4703 62.7091 44.0065 55.173 53.3027 55.173C62.599 55.173 70.1352 62.7091 70.1352 72.0054Z" fill="#D2CFC2"/>
<path d="M83.2271 60.7838C83.2271 70.0801 75.6909 77.6162 66.3946 77.6162C57.0983 77.6162 49.5622 70.0801 49.5622 60.7838C49.5622 51.4875 57.0983 43.9514 66.3946 43.9514C75.6909 43.9514 83.2271 51.4875 83.2271 60.7838Z" fill="#D2CFC2"/>
<path d="M71.0703 43.9514C71.0703 53.2477 63.5342 60.7838 54.2379 60.7838C44.9416 60.7838 37.4054 53.2477 37.4054 43.9514C37.4054 34.6551 44.9416 27.1189 54.2379 27.1189C63.5342 27.1189 71.0703 34.6551 71.0703 43.9514Z" fill="#D2CFC2"/>
<ellipse cx="97.1292" cy="101.265" rx="5.61081" ry="5.14324" transform="rotate(-15 97.1292 101.265)" fill="black"/>
<ellipse cx="73.7508" cy="101.265" rx="5.61081" ry="5.14324" transform="rotate(-15 73.7508 101.265)" fill="black"/>
<path d="M79.1567 107.936C79.1567 107.936 80.9445 113.547 85.2351 113.547C89.5257 113.547 91.3135 107.936 91.3135 107.936" stroke="black" stroke-width="3"/>
</symbol>
<!--corn-->
<symbol id="icon-corn" viewBox="0 0 87 163">
<path d="M13.5 86C13.5 53.9944 21.376 5 43.6829 5C65.9898 5 72.5 53.9944 72.5 86C72.5 118.006 65.9898 140.5 43.6829 140.5C21.376 140.5 13.5 118.006 13.5 86Z" fill="#F5D253"/>
<path d="M45.5 20C45.5 25.1484 40.2373 29.5 33.5 29.5C26.7627 29.5 21.5 25.1484 21.5 20C21.5 14.8516 26.7627 10.5 33.5 10.5C40.2373 10.5 45.5 14.8516 45.5 20Z" fill="#F5D253" stroke="white"/>
<path d="M38.5 30C38.5 35.1484 33.2373 39.5 26.5 39.5C19.7627 39.5 14.5 35.1484 14.5 30C14.5 24.8516 19.7627 20.5 26.5 20.5C33.2373 20.5 38.5 24.8516 38.5 30Z" fill="#F5D253" stroke="white"/>
<path d="M72.5 34C72.5 39.1484 67.2373 43.5 60.5 43.5C53.7627 43.5 48.5 39.1484 48.5 34C48.5 28.8516 53.7627 24.5 60.5 24.5C67.2373 24.5 72.5 28.8516 72.5 34Z" fill="#F5D253" stroke="white"/>
<path d="M56.5 34C56.5 39.1484 51.2373 43.5 44.5 43.5C37.7627 43.5 32.5 39.1484 32.5 34C32.5 28.8516 37.7627 24.5 44.5 24.5C51.2373 24.5 56.5 28.8516 56.5 34Z" fill="#F5D253" stroke="white"/>
<path d="M37.5 44C37.5 49.1484 32.2373 53.5 25.5 53.5C18.7627 53.5 13.5 49.1484 13.5 44C13.5 38.8516 18.7627 34.5 25.5 34.5C32.2373 34.5 37.5 38.8516 37.5 44Z" fill="#F5D253" stroke="white"/>
<path d="M73.5 44C73.5 49.1484 68.2373 53.5 61.5 53.5C54.7627 53.5 49.5 49.1484 49.5 44C49.5 38.8516 54.7627 34.5 61.5 34.5C68.2373 34.5 73.5 38.8516 73.5 44Z" fill="#F5D253" stroke="white"/>
<path d="M55.5 50C55.5 55.1484 50.2373 59.5 43.5 59.5C36.7627 59.5 31.5 55.1484 31.5 50C31.5 44.8516 36.7627 40.5 43.5 40.5C50.2373 40.5 55.5 44.8516 55.5 50Z" fill="#F5D253" stroke="white"/>
<path d="M35.5 60C35.5 65.1484 30.2373 69.5 23.5 69.5C16.7627 69.5 11.5 65.1484 11.5 60C11.5 54.8516 16.7627 50.5 23.5 50.5C30.2373 50.5 35.5 54.8516 35.5 60Z" fill="#F5D253" stroke="white"/>
<path d="M75.5 60C75.5 65.1484 70.2373 69.5 63.5 69.5C56.7627 69.5 51.5 65.1484 51.5 60C51.5 54.8516 56.7627 50.5 63.5 50.5C70.2373 50.5 75.5 54.8516 75.5 60Z" fill="#F5D253" stroke="white"/>
<path d="M55.5 63C55.5 68.1484 50.2373 72.5 43.5 72.5C36.7627 72.5 31.5 68.1484 31.5 63C31.5 57.8516 36.7627 53.5 43.5 53.5C50.2373 53.5 55.5 57.8516 55.5 63Z" fill="#F5D253" stroke="white"/>
<path d="M35.5 74C35.5 79.1484 30.2373 83.5 23.5 83.5C16.7627 83.5 11.5 79.1484 11.5 74C11.5 68.8516 16.7627 64.5 23.5 64.5C30.2373 64.5 35.5 68.8516 35.5 74Z" fill="#F5D253" stroke="white"/>
<path d="M75.5 74C75.5 79.1484 70.2373 83.5 63.5 83.5C56.7627 83.5 51.5 79.1484 51.5 74C51.5 68.8516 56.7627 64.5 63.5 64.5C70.2373 64.5 75.5 68.8516 75.5 74Z" fill="#F5D253" stroke="white"/>
<path d="M55.5 78C55.5 83.1484 50.2373 87.5 43.5 87.5C36.7627 87.5 31.5 83.1484 31.5 78C31.5 72.8516 36.7627 68.5 43.5 68.5C50.2373 68.5 55.5 72.8516 55.5 78Z" fill="#F5D253" stroke="white"/>
<path d="M35.5 88C35.5 93.1484 30.2373 97.5 23.5 97.5C16.7627 97.5 11.5 93.1484 11.5 88C11.5 82.8516 16.7627 78.5 23.5 78.5C30.2373 78.5 35.5 82.8516 35.5 88Z" fill="#F5D253" stroke="white"/>
<path d="M75.5 88C75.5 93.1484 70.2373 97.5 63.5 97.5C56.7627 97.5 51.5 93.1484 51.5 88C51.5 82.8516 56.7627 78.5 63.5 78.5C70.2373 78.5 75.5 82.8516 75.5 88Z" fill="#F5D253" stroke="white"/>
<path d="M55.5 10C55.5 15.1484 50.2373 19.5 43.5 19.5C36.7627 19.5 31.5 15.1484 31.5 10C31.5 4.85164 36.7627 0.5 43.5 0.5C50.2373 0.5 55.5 4.85164 55.5 10Z" fill="#F5D253" stroke="white"/>
<path d="M34.5 102C34.5 107.148 29.2373 111.5 22.5 111.5C15.7627 111.5 10.5 107.148 10.5 102C10.5 96.8516 15.7627 92.5 22.5 92.5C29.2373 92.5 34.5 96.8516 34.5 102Z" fill="#F5D253" stroke="white"/>
<path d="M75.5 102C75.5 107.148 70.2373 111.5 63.5 111.5C56.7627 111.5 51.5 107.148 51.5 102C51.5 96.8516 56.7627 92.5 63.5 92.5C70.2373 92.5 75.5 96.8516 75.5 102Z" fill="#F5D253" stroke="white"/>
<path d="M54.5 92C54.5 97.1484 49.2373 101.5 42.5 101.5C35.7627 101.5 30.5 97.1484 30.5 92C30.5 86.8516 35.7627 82.5 42.5 82.5C49.2373 82.5 54.5 86.8516 54.5 92Z" fill="#F5D253" stroke="white"/>
<path d="M54.5 106C54.5 111.148 49.2373 115.5 42.5 115.5C35.7627 115.5 30.5 111.148 30.5 106C30.5 100.852 35.7627 96.5 42.5 96.5C49.2373 96.5 54.5 100.852 54.5 106Z" fill="#F5D253" stroke="white"/>
<path d="M47.5 132C47.5 137.148 42.2373 141.5 35.5 141.5C28.7627 141.5 23.5 137.148 23.5 132C23.5 126.852 28.7627 122.5 35.5 122.5C42.2373 122.5 47.5 126.852 47.5 132Z" fill="#F5D253" stroke="white"/>
<path d="M63.5 132C63.5 137.148 58.2373 141.5 51.5 141.5C44.7627 141.5 39.5 137.148 39.5 132C39.5 126.852 44.7627 122.5 51.5 122.5C58.2373 122.5 63.5 126.852 63.5 132Z" fill="#F5D253" stroke="white"/>
<path d="M55.5 117C55.5 122.148 50.2373 126.5 43.5 126.5C36.7627 126.5 31.5 122.148 31.5 117C31.5 111.852 36.7627 107.5 43.5 107.5C50.2373 107.5 55.5 111.852 55.5 117Z" fill="#F5D253" stroke="white"/>
<path d="M68.5 20C68.5 25.1484 63.2373 29.5 56.5 29.5C49.7627 29.5 44.5 25.1484 44.5 20C44.5 14.8516 49.7627 10.5 56.5 10.5C63.2373 10.5 68.5 14.8516 68.5 20Z" fill="#F5D253" stroke="white"/>
<path d="M32.96 145.026C32.4078 142.817 34.0785 140.677 36.3555 140.677H51.2213C53.4673 140.677 55.1321 142.763 54.6343 144.953L51.4525 158.953C51.0903 160.547 49.6737 161.677 48.0395 161.677H39.8555C38.2495 161.677 36.8495 160.584 36.46 159.026L32.96 145.026Z" fill="#425B28" stroke="white"/>
<path d="M29.7977 144.246L29.76 144.195L29.3565 144.49L29.7599 144.195L29.7598 144.194L29.7591 144.193L29.7565 144.19L29.7458 144.175L29.7039 144.118C29.6669 144.067 29.6122 143.992 29.5416 143.895C29.4003 143.7 29.1952 143.417 28.9401 143.062C28.4299 142.353 27.7201 141.359 26.9215 140.219C25.3228 137.936 23.375 135.078 21.9621 132.754C10.5015 113.906 6.4945 84.621 5.37033 59.9674C4.80892 47.6554 4.96725 36.5258 5.266 28.4741C5.41537 24.4485 5.59981 21.193 5.74684 18.9447C5.82036 17.8205 5.88452 16.9481 5.93027 16.3573C5.95314 16.0618 5.97141 15.8367 5.98394 15.6857L5.9983 15.5153L6.00198 15.4726L6.00283 15.4628L6.00329 15.4585L6.00615 15.4324C6.00875 15.409 6.01275 15.3738 6.01825 15.3278C6.02924 15.2358 6.04619 15.1005 6.06977 14.93C6.11695 14.5886 6.19056 14.1068 6.29596 13.547C6.50776 12.4222 6.84398 11.0046 7.34266 9.78307C7.59189 9.17255 7.87545 8.62669 8.19355 8.19506C8.51316 7.76136 8.84773 7.4699 9.19075 7.32456C9.80282 7.06522 10.7121 7.18112 12.0497 8.63394C12.6813 9.31993 13.6034 10.9553 14.7378 13.4571C15.8612 15.9346 17.1664 19.2001 18.5753 23.0867C21.3927 30.8589 24.6174 41.0942 27.6259 52.4362C33.6461 75.1321 38.7847 102.203 38.0857 122.819C37.7353 133.155 36.9843 139.642 36.0647 143.563C35.6043 145.526 35.1089 146.813 34.6219 147.613C34.133 148.414 33.7025 148.649 33.3887 148.684C33.0626 148.721 32.6783 148.566 32.2384 148.176C31.8062 147.792 31.3913 147.244 31.0246 146.66C30.6608 146.081 30.3591 145.491 30.1476 145.043C30.0421 144.82 29.9599 144.634 29.9042 144.504C29.8764 144.439 29.8553 144.389 29.8413 144.355L29.8258 144.317L29.8221 144.308L29.8213 144.306L29.8213 144.306L29.8212 144.305L29.7977 144.246Z" fill="#425B28" stroke="white"/>
<path d="M56.856 144.298L56.8561 144.297L56.8562 144.297L56.8794 144.238L56.9167 144.187L57.3213 144.481L56.9168 144.187L56.9169 144.187L56.9176 144.186L56.9202 144.182L56.9307 144.168L56.9724 144.11C57.009 144.059 57.0633 143.984 57.1334 143.887C57.2736 143.692 57.4771 143.409 57.7302 143.054C58.2365 142.345 58.9409 141.35 59.7333 140.209C61.3198 137.925 63.2527 135.066 64.6552 132.741C76.0302 113.885 80.0246 84.5978 81.1578 59.9449C81.7237 47.6331 81.5753 36.5043 81.2854 28.4532C81.1404 24.428 80.9601 21.1728 80.816 18.9247C80.744 17.8007 80.6811 16.9284 80.6362 16.3376C80.6137 16.0422 80.5958 15.8171 80.5835 15.6661L80.5694 15.4957L80.5658 15.4529L80.5649 15.4432L80.5649 15.4424L80.5645 15.4388L80.5617 15.4127C80.5591 15.3893 80.5552 15.3541 80.5497 15.3081C80.5389 15.216 80.5222 15.0808 80.499 14.9102C80.4525 14.5689 80.3799 14.0871 80.2758 13.5274C80.0667 12.4027 79.7345 10.9853 79.241 9.76399C78.9944 9.15358 78.7137 8.60796 78.3988 8.17668C78.0822 7.74319 77.7514 7.45284 77.413 7.30844C76.8119 7.05189 75.9135 7.16453 74.5856 8.61928C73.959 9.30577 73.0435 10.942 71.9171 13.4445C70.8016 15.9229 69.5053 19.1892 68.1058 23.0767C65.3071 30.8506 62.1026 41.0878 59.1118 52.4314C53.127 75.1306 48.0124 102.204 48.6895 122.818C49.029 133.154 49.7685 139.64 50.677 143.561C51.1319 145.524 51.6221 146.81 52.1043 147.609C52.5886 148.411 53.0142 148.643 53.3214 148.678C53.641 148.714 54.0203 148.56 54.457 148.17C54.8855 147.786 55.2973 147.237 55.6613 146.653C56.0224 146.073 56.322 145.483 56.532 145.035C56.6367 144.812 56.7184 144.626 56.7737 144.496C56.8013 144.431 56.8223 144.381 56.8362 144.347L56.8516 144.309L56.8553 144.3L56.856 144.298Z" fill="#425B28" stroke="white"/>
<ellipse cx="55.1292" cy="37.2648" rx="5.61081" ry="5.14324" transform="rotate(-15 55.1292 37.2648)" fill="black"/>
<ellipse cx="31.7508" cy="37.2648" rx="5.61081" ry="5.14324" transform="rotate(-15 31.7508 37.2648)" fill="black"/>
<path d="M37.1567 43.9365C37.1567 43.9365 38.9445 49.5473 43.2351 49.5473C47.5257 49.5473 49.3135 43.9365 49.3135 43.9365" stroke="black" stroke-width="3"/>
</symbol>
<!--cucumber-->
<symbol id="icon-cucumber" viewBox="0 0 113 105">
<circle cx="56.5" cy="52.5" r="52" fill="#425B28" stroke="white"/>
<circle cx="56.5" cy="52.5" r="45.5" fill="#9ADE65"/>
<path d="M53.7949 50.6416C54.8836 48.371 58.1164 48.371 59.2051 50.6416L75.6572 84.9529C76.6121 86.9443 75.1606 89.25 72.9521 89.25H40.0479C37.8394 89.25 36.3879 86.9443 37.3428 84.9529L53.7949 50.6416Z" fill="#C6F5A2"/>
<path d="M53.7949 50.6416C54.8836 48.371 58.1164 48.371 59.2051 50.6416L75.6572 84.9529C76.6121 86.9443 75.1606 89.25 72.9521 89.25H40.0479C37.8394 89.25 36.3879 86.9443 37.3428 84.9529L53.7949 50.6416Z" fill="#C6F5A2"/>
<path d="M53.7949 50.6416C54.8836 48.371 58.1164 48.371 59.2051 50.6416L75.6572 84.9529C76.6121 86.9443 75.1606 89.25 72.9521 89.25H40.0479C37.8394 89.25 36.3879 86.9443 37.3428 84.9529L53.7949 50.6416Z" fill="#C6F5A2"/>
<path d="M53.7949 50.6416C54.8836 48.371 58.1164 48.371 59.2051 50.6416L75.6572 84.9529C76.6121 86.9443 75.1606 89.25 72.9521 89.25H40.0479C37.8394 89.25 36.3879 86.9443 37.3428 84.9529L53.7949 50.6416Z" fill="#C6F5A2"/>
<path d="M59.2051 53.3584C58.1164 55.629 54.8836 55.629 53.7949 53.3584L37.3428 19.0471C36.3879 17.0557 37.8394 14.75 40.0479 14.75L72.9521 14.75C75.1606 14.75 76.6121 17.0557 75.6572 19.0471L59.2051 53.3584Z" fill="#C6F5A2"/>
<path d="M59.2051 53.3584C58.1164 55.629 54.8836 55.629 53.7949 53.3584L37.3428 19.0471C36.3879 17.0557 37.8394 14.75 40.0479 14.75L72.9521 14.75C75.1606 14.75 76.6121 17.0557 75.6572 19.0471L59.2051 53.3584Z" fill="#C6F5A2"/>
<path d="M59.2051 53.3584C58.1164 55.629 54.8836 55.629 53.7949 53.3584L37.3428 19.0471C36.3879 17.0557 37.8394 14.75 40.0479 14.75L72.9521 14.75C75.1606 14.75 76.6121 17.0557 75.6572 19.0471L59.2051 53.3584Z" fill="#C6F5A2"/>
<path d="M59.2051 53.3584C58.1164 55.629 54.8836 55.629 53.7949 53.3584L37.3428 19.0471C36.3879 17.0557 37.8394 14.75 40.0479 14.75L72.9521 14.75C75.1606 14.75 76.6121 17.0557 75.6572 19.0471L59.2051 53.3584Z" fill="#C6F5A2"/>
<path d="M57.6239 57.3972C55.9925 55.479 57.3074 52.5258 59.8244 52.4547L93.2248 51.5116C95.4324 51.4492 96.9484 53.713 96.0501 55.7306L84.298 82.1261C83.3998 84.1437 80.7031 84.5318 79.2722 82.8495L57.6239 57.3972Z" fill="#C6F5A2"/>
<path d="M57.6239 57.3972C55.9925 55.479 57.3074 52.5258 59.8244 52.4547L93.2248 51.5116C95.4324 51.4492 96.9484 53.713 96.0501 55.7306L84.298 82.1261C83.3998 84.1437 80.7031 84.5318 79.2722 82.8495L57.6239 57.3972Z" fill="#C6F5A2"/>
<path d="M57.6239 57.3972C55.9925 55.479 57.3074 52.5258 59.8244 52.4547L93.2248 51.5116C95.4324 51.4492 96.9484 53.713 96.0501 55.7306L84.298 82.1261C83.3998 84.1437 80.7031 84.5318 79.2722 82.8495L57.6239 57.3972Z" fill="#C6F5A2"/>
<path d="M57.6239 57.3972C55.9925 55.479 57.3074 52.5258 59.8244 52.4547L93.2248 51.5116C95.4324 51.4492 96.9484 53.713 96.0501 55.7306L84.298 82.1261C83.3998 84.1437 80.7031 84.5318 79.2722 82.8495L57.6239 57.3972Z" fill="#C6F5A2"/>
<path d="M62.2873 53.8981C59.7901 54.2216 58.0294 51.5104 59.3407 49.3607L76.7408 20.8352C77.8909 18.9497 80.6151 18.9113 81.8179 20.7635L97.5545 44.9956C98.7573 46.8478 97.6141 49.3209 95.4239 49.6046L62.2873 53.8981Z" fill="#C6F5A2"/>
<path d="M62.2873 53.8981C59.7901 54.2216 58.0294 51.5104 59.3407 49.3607L76.7408 20.8352C77.8909 18.9497 80.6151 18.9113 81.8179 20.7635L97.5545 44.9956C98.7573 46.8478 97.6141 49.3209 95.4239 49.6046L62.2873 53.8981Z" fill="#C6F5A2"/>
<path d="M62.2873 53.8981C59.7901 54.2216 58.0294 51.5104 59.3407 49.3607L76.7408 20.8352C77.8909 18.9497 80.6151 18.9113 81.8179 20.7635L97.5545 44.9956C98.7573 46.8478 97.6141 49.3209 95.4239 49.6046L62.2873 53.8981Z" fill="#C6F5A2"/>
<path d="M62.2873 53.8981C59.7901 54.2216 58.0294 51.5104 59.3407 49.3607L76.7408 20.8352C77.8909 18.9497 80.6151 18.9113 81.8179 20.7635L97.5545 44.9956C98.7573 46.8478 97.6141 49.3209 95.4239 49.6046L62.2873 53.8981Z" fill="#C6F5A2"/>
<path d="M53.6292 51.3607C54.9405 53.5104 53.1798 56.2217 50.6826 55.8981L17.546 51.6047C15.3558 51.3209 14.2126 48.8478 15.4154 46.9956L31.1519 22.7635C32.3548 20.9113 35.079 20.9497 36.2291 22.8352L53.6292 51.3607Z" fill="#C6F5A2"/>
<path d="M53.6292 51.3607C54.9405 53.5104 53.1798 56.2217 50.6826 55.8981L17.546 51.6047C15.3558 51.3209 14.2126 48.8478 15.4154 46.9956L31.1519 22.7635C32.3548 20.9113 35.079 20.9497 36.2291 22.8352L53.6292 51.3607Z" fill="#C6F5A2"/>
<path d="M53.6292 51.3607C54.9405 53.5104 53.1798 56.2217 50.6826 55.8981L17.546 51.6047C15.3558 51.3209 14.2126 48.8478 15.4154 46.9956L31.1519 22.7635C32.3548 20.9113 35.079 20.9497 36.2291 22.8352L53.6292 51.3607Z" fill="#C6F5A2"/>
<path d="M53.6292 51.3607C54.9405 53.5104 53.1798 56.2217 50.6826 55.8981L17.546 51.6047C15.3558 51.3209 14.2126 48.8478 15.4154 46.9956L31.1519 22.7635C32.3548 20.9113 35.079 20.9497 36.2291 22.8352L53.6292 51.3607Z" fill="#C6F5A2"/>
<path d="M52.5741 54.0899C55.0911 54.1609 56.406 57.1142 54.7746 59.0323L33.1263 84.4847C31.6954 86.167 28.9987 85.7788 28.1004 83.7613L16.3484 57.3657C15.4501 55.3482 16.9661 53.0844 19.1737 53.1467L52.5741 54.0899Z" fill="#C6F5A2"/>
<path d="M52.5741 54.0899C55.0911 54.1609 56.406 57.1142 54.7746 59.0323L33.1263 84.4847C31.6954 86.167 28.9987 85.7788 28.1004 83.7613L16.3484 57.3657C15.4501 55.3482 16.9661 53.0844 19.1737 53.1467L52.5741 54.0899Z" fill="#C6F5A2"/>
<path d="M52.5741 54.0899C55.0911 54.1609 56.406 57.1142 54.7746 59.0323L33.1263 84.4847C31.6954 86.167 28.9987 85.7788 28.1004 83.7613L16.3484 57.3657C15.4501 55.3482 16.9661 53.0844 19.1737 53.1467L52.5741 54.0899Z" fill="#C6F5A2"/>
<path d="M52.5741 54.0899C55.0911 54.1609 56.406 57.1142 54.7746 59.0323L33.1263 84.4847C31.6954 86.167 28.9987 85.7788 28.1004 83.7613L16.3484 57.3657C15.4501 55.3482 16.9661 53.0844 19.1737 53.1467L52.5741 54.0899Z" fill="#C6F5A2"/>
<ellipse cx="75" cy="49.5" rx="1.5" ry="3" transform="rotate(-90 75 49.5)" fill="white"/>
<ellipse cx="75" cy="59.5" rx="1.5" ry="3" transform="rotate(-90 75 59.5)" fill="white"/>
<ellipse cx="39" cy="49.5" rx="1.5" ry="3" transform="rotate(-90 39 49.5)" fill="white"/>
<ellipse cx="39" cy="59.5" rx="1.5" ry="3" transform="rotate(-90 39 59.5)" fill="white"/>
<ellipse cx="51.5" cy="44" rx="1.5" ry="3" fill="white"/>
<ellipse cx="61.5" cy="44" rx="1.5" ry="3" fill="white"/>
<ellipse cx="51.5" cy="68" rx="1.5" ry="3" fill="white"/>
<ellipse cx="61.5" cy="68" rx="1.5" ry="3" fill="white"/>
<ellipse cx="63.8154" cy="53.6592" rx="3.50391" ry="3.21191" transform="rotate(-15 63.8154 53.6592)" fill="black"/>
<ellipse cx="49.2158" cy="53.6592" rx="3.50391" ry="3.21191" transform="rotate(-15 49.2158 53.6592)" fill="black"/>
<path d="M52.5918 57.8257C52.5918 57.8257 53.7082 61.3296 56.3877 61.3296C59.0672 61.3296 60.1836 57.8257 60.1836 57.8257" stroke="black" stroke-width="3"/>
</symbol>
<!--mixed-->
<symbol id="icon-mixed" viewBox="0 0 210 104">
<path d="M61.8988 62.506C66.114 74.0873 57.7113 87.9741 42.813 93.3966C27.9147 98.8192 12.5516 93.5824 8.33631 82.0011C4.12106 70.4198 12.5238 56.533 27.4221 51.1105C42.3204 45.6879 57.6835 50.9247 61.8988 62.506Z" fill="#F5D253" stroke="white"/>
<path d="M203.529 37.0984C200.339 49.003 185.491 55.5588 170.177 51.4554C154.862 47.352 145.281 34.2503 148.471 22.3457C151.661 10.4411 166.509 3.8853 181.823 7.98872C197.138 12.0921 206.719 25.1938 203.529 37.0984Z" fill="#F5D253" stroke="white"/>
<path d="M189.067 62.7731C191.207 74.9104 180.521 87.1271 164.907 89.8802C149.294 92.6333 135.073 84.8083 132.933 72.671C130.793 60.5337 141.479 48.317 157.093 45.5639C172.706 42.8108 186.927 50.6358 189.067 62.7731Z" fill="#F5D253" stroke="white"/>
<circle cx="137" cy="44.722" r="33.5" fill="#9ADE65" stroke="white"/>
<ellipse cx="149.219" cy="48.8376" rx="6" ry="5.5" transform="rotate(-15 149.219 48.8376)" fill="black"/>
<ellipse cx="124.219" cy="48.8376" rx="6" ry="5.5" transform="rotate(-15 124.219 48.8376)" fill="black"/>
<path d="M130 55.972C130 55.972 131.912 61.972 136.5 61.972C141.088 61.972 143 55.972 143 55.972" stroke="black" stroke-width="3"/>
<circle cx="58.5" cy="40.222" r="39" fill="#F59525" stroke="white"/>
<circle cx="58.5001" cy="40.222" r="34.2333" fill="#EAA656"/>
<ellipse cx="71.2191" cy="47.8376" rx="6" ry="5.5" transform="rotate(-15 71.2191 47.8376)" fill="black"/>
<ellipse cx="46.2191" cy="47.8376" rx="6" ry="5.5" transform="rotate(-15 46.2191 47.8376)" fill="black"/>
<path d="M52 54.972C52 54.972 53.9118 60.972 58.5 60.972C63.0882 60.972 65 54.972 65 54.972" stroke="black" stroke-width="3"/>
<path d="M126.5 77.722C126.5 90.0466 113.854 100.222 98 100.222C82.1456 100.222 69.5 90.0466 69.5 77.722C69.5 65.3975 82.1456 55.222 98 55.222C113.854 55.222 126.5 65.3975 126.5 77.722Z" fill="#F5D253" stroke="white"/>
</symbol>
<!--mushroom-->
<symbol id="icon-mushroom" viewBox="0 0 127 120">
<path d="M41.2422 58.9175H87.7215C87.7215 58.9175 109.652 111.943 87.7215 115.871C65.7911 119.799 65.4639 121.108 41.2422 115.871C17.0204 110.634 41.2422 58.9175 41.2422 58.9175Z" fill="white"/>
<path d="M5.50514 23.5637C10.7991 15.9128 19.3443 10.1443 29.5629 6.28758C39.7782 2.43211 51.634 0.5 63.5 0.500001C75.366 0.500001 87.2218 2.43212 97.4371 6.28758C107.656 10.1443 116.201 15.9128 121.495 23.5637C124.716 28.2189 126.104 34.1103 126.425 40.1861C126.746 46.2579 125.999 52.4729 124.989 57.7374C123.458 65.7203 116.112 70.8557 107.898 70.8557H19.1015C10.8878 70.8557 3.54249 65.7203 2.01104 57.7374C1.00109 52.4729 0.254496 46.2579 0.575298 40.1861C0.896312 34.1103 2.28397 28.2189 5.50514 23.5637Z" fill="#7E6D57" stroke="white"/>
<ellipse cx="74.046" cy="91.2133" rx="4.52076" ry="4.14403" transform="rotate(-15 74.046 91.2133)" fill="black"/>
<ellipse cx="55.2095" cy="91.2133" rx="4.52076" ry="4.14403" transform="rotate(-15 55.2095 91.2133)" fill="black"/>
<path d="M59.5652 96.5889C59.5652 96.5889 61.0056 101.11 64.4627 101.11C67.9197 101.11 69.3602 96.5889 69.3602 96.5889" stroke="black" stroke-width="3"/>
</symbol>
<!--peas-->
<symbol id="icon-peas" viewBox="0 0 181 82">
<circle cx="34" cy="46" r="33.5" fill="#9ADE65" stroke="white"/>
<ellipse cx="46.2191" cy="50.1155" rx="6" ry="5.5" transform="rotate(-15 46.2191 50.1155)" fill="black"/>
<ellipse cx="21.2191" cy="50.1155" rx="6" ry="5.5" transform="rotate(-15 21.2191 50.1155)" fill="black"/>
<path d="M27 57.25C27 57.25 28.9118 63.25 33.5 63.25C38.0882 63.25 40 57.25 40 57.25" stroke="black" stroke-width="3"/>
<circle cx="147" cy="48" r="33.5" fill="#9ADE65" stroke="white"/>
<ellipse cx="159.219" cy="52.1155" rx="6" ry="5.5" transform="rotate(-15 159.219 52.1155)" fill="black"/>
<ellipse cx="134.219" cy="52.1155" rx="6" ry="5.5" transform="rotate(-15 134.219 52.1155)" fill="black"/>
<path d="M140 59.25C140 59.25 141.912 65.25 146.5 65.25C151.088 65.25 153 59.25 153 59.25" stroke="black" stroke-width="3"/>
<circle cx="92" cy="34" r="33.5" fill="#9ADE65" stroke="white"/>
<ellipse cx="104.219" cy="38.1155" rx="6" ry="5.5" transform="rotate(-15 104.219 38.1155)" fill="black"/>
<ellipse cx="79.2191" cy="38.1155" rx="6" ry="5.5" transform="rotate(-15 79.2191 38.1155)" fill="black"/>
<path d="M85 45.25C85 45.25 86.9118 51.25 91.5 51.25C96.0882 51.25 98 45.25 98 45.25" stroke="black" stroke-width="3"/>
</symbol>
<!--pepper-->
<symbol id="icon-pepper" viewBox="0 0 176 160">
<path d="M75.0246 3.45336C75.2936 1.75253 76.7597 0.5 78.4817 0.5H88.7313C90.4533 0.5 91.9194 1.75253 92.1883 3.45335L95.1943 22.4637C95.5303 24.5883 93.8883 26.5103 91.7373 26.5103H75.4757C73.3246 26.5103 71.6827 24.5883 72.0186 22.4637L75.0246 3.45336Z" fill="#425B28" stroke="white"/>
<path d="M26.6271 47.4162C30.8304 32.2749 37.9121 23.3258 46.2398 21.7714C54.5322 20.2236 64.4378 25.9534 74.4858 41.1131C84.5325 56.2706 94.4399 76.5848 97.9692 95.7523C101.499 114.924 98.6339 132.814 83.3369 143.361C82.0103 144.275 80.783 145.133 79.6364 145.934C76.788 147.924 74.4383 149.565 72.3057 150.868C69.3259 152.689 66.8162 153.817 64.0397 154.282C58.4605 155.218 51.6925 153.504 37.7575 148.925C28.366 145.839 22.4626 139.894 18.9965 132.228C15.5203 124.54 14.4885 115.1 14.9113 105.051C15.6914 86.5064 21.4124 66.0613 25.6063 51.0736C25.9586 49.8145 26.3002 48.5939 26.6271 47.4162Z" fill="#A7362F" stroke="white"/>
<path d="M93.7127 39.2753C102.515 25.7864 112.625 20.6174 121.968 22.3902C131.362 24.1728 140.24 33.0105 146.428 48.1444C152.633 63.3197 159.691 85.1263 160.637 104.754C161.111 114.568 160.054 123.795 156.634 131.366C153.223 138.919 147.454 144.842 138.44 148.074C136.875 148.635 135.424 149.165 134.068 149.66C130.699 150.891 127.92 151.906 125.457 152.647C122.015 153.682 119.245 154.166 116.428 153.948C110.769 153.509 104.807 150.239 92.8627 142.498C76.7279 132.04 72.4805 113.083 74.5248 93.2326C76.5684 73.3896 84.8931 52.7913 93.7127 39.2753Z" fill="#A7362F" stroke="white"/>
<path d="M51.3286 40.4134C57.7079 28.4693 71.3118 22.6155 84.7353 22.6991C98.164 22.7828 111.231 28.8043 116.574 40.3872C122.024 52.2025 132.013 74.9531 135.646 96.906C137.463 107.883 137.682 118.615 134.983 127.665C132.291 136.693 126.694 144.055 116.829 148.341C115.119 149.083 113.535 149.782 112.054 150.435C108.371 152.059 105.33 153.4 102.606 154.431C98.7976 155.873 95.6517 156.692 92.3119 156.818C85.61 157.07 78.0365 154.54 62.7282 148.336C42.049 139.955 35.9065 119.166 36.6123 97.2447C37.3176 75.3375 44.8693 52.5072 51.3286 40.4134Z" fill="#A7362F" stroke="white"/>
<ellipse rx="6.95033" ry="5.64595" transform="matrix(0.973913 -0.226921 0.294478 0.955658 101.824 115.284)" fill="black"/>
<ellipse rx="6.95033" ry="5.64595" transform="matrix(0.973913 -0.226921 0.294478 0.955658 72.6244 115.284)" fill="black"/>
<path d="M79.3762 122.53C79.3762 122.53 81.6091 128.624 86.968 128.624C92.3269 128.624 94.5598 122.53 94.5598 122.53" stroke="black" stroke-width="3"/>
</symbol>
<!--radish-->
<symbol id="icon-radish" viewBox="0 0 109 203">
<path d="M63.7683 26.3415C63.7683 35.398 62.6043 45.2336 60.6603 52.7924C59.6874 56.5753 58.5262 59.7595 57.2347 61.9863C55.9198 64.2532 54.5744 65.3537 53.2927 65.3537C52.011 65.3537 50.6655 64.2532 49.3507 61.9863C48.0592 59.7595 46.898 56.5753 45.9251 52.7924C43.9811 45.2336 42.8171 35.398 42.8171 26.3415C42.8171 17.2638 43.6967 11.5382 45.4602 7.71314C47.1702 4.0041 49.7303 2.04258 53.2722 0.55016C55.7708 1.83368 58.3402 3.80275 60.3131 7.57109C62.3479 11.4574 63.7683 17.2956 63.7683 26.3415Z" fill="#425B28" stroke="white"/>
<path d="M53.2927 11.8537L54.2079 64.0781" stroke="black" stroke-width="2"/>
<line x1="53.7235" y1="26.9959" x2="58.9918" y2="16.4593" stroke="black"/>
<line x1="53.7235" y1="38.4105" x2="58.9918" y2="27.874" stroke="black"/>
<line x1="53.7235" y1="48.9471" x2="58.9918" y2="38.4105" stroke="black"/>
<line y1="-0.5" x2="11.7803" y2="-0.5" transform="matrix(-0.447214 -0.894427 -0.894427 0.447214 53.2927 27.2195)" stroke="black"/>
<line y1="-0.5" x2="11.7803" y2="-0.5" transform="matrix(-0.447214 -0.894427 -0.894427 0.447214 53.2927 38.6342)" stroke="black"/>
<line y1="-0.5" x2="11.7803" y2="-0.5" transform="matrix(-0.447214 -0.894427 -0.894427 0.447214 53.2927 49.1707)" stroke="black"/>
<path d="M75.898 36.2642C73.554 45.0121 69.884 54.2113 66.0499 61.0094C64.131 64.4116 62.1853 67.1868 60.3614 69.0034C58.5047 70.8528 56.9203 71.5675 55.6822 71.2358C54.4442 70.904 53.4294 69.4929 52.7461 66.9629C52.0749 64.4777 51.7774 61.1014 51.8167 57.1956C51.8953 49.3913 53.3167 39.5895 55.6607 30.8416C58.0101 22.0733 60.3417 16.7704 63.035 13.5321C65.6467 10.392 68.6273 9.15995 72.4348 8.63509C74.5161 10.5216 76.4882 13.0885 77.4187 17.2391C78.3782 21.5196 78.2392 27.5265 75.898 36.2642Z" fill="#425B28" stroke="white"/>
<path d="M69.5291 19.5587L56.8964 70.2405" stroke="black" stroke-width="2"/>
<line x1="66.0262" y1="34.2965" x2="73.8421" y2="25.4825" stroke="black"/>
<line x1="63.0719" y1="45.3222" x2="70.8877" y2="36.5082" stroke="black"/>
<line x1="60.3448" y1="55.4997" x2="68.1607" y2="46.6857" stroke="black"/>
<line y1="-0.5" x2="11.7803" y2="-0.5" transform="matrix(-0.20048 -0.979698 -0.979698 0.20048 65.5522 34.401)" stroke="black"/>
<line y1="-0.5" x2="11.7803" y2="-0.5" transform="matrix(-0.20048 -0.979698 -0.979698 0.20048 62.5978 45.4267)" stroke="black"/>
<line y1="-0.5" x2="11.7803" y2="-0.5" transform="matrix(-0.20048 -0.979698 -0.979698 0.20048 59.8708 55.6042)" stroke="black"/>
<path d="M50.538 30.8416C52.882 39.5895 54.3033 49.3913 54.3819 57.1956C54.4212 61.1014 54.1237 64.4777 53.4525 66.9629C52.7692 69.4929 51.7545 70.904 50.5164 71.2358C49.2783 71.5675 47.6939 70.8528 45.8372 69.0034C44.0133 67.1868 42.0676 64.4116 40.1487 61.0094C36.3146 54.2113 32.6446 45.0121 30.3006 36.2642C27.9512 27.4958 27.3189 21.7376 28.0323 17.5865C28.724 13.5613 30.6893 11.004 33.7242 8.64569C36.4699 9.23878 39.4613 10.4758 42.3424 13.6051C45.3136 16.8323 48.1967 22.1039 50.538 30.8416Z" fill="#425B28" stroke="white"/>
<path d="M36.6696 19.5587L51.0702 69.7668" stroke="black" stroke-width="2"/>
<line x1="41.0048" y1="34.0735" x2="43.3665" y2="22.5324" stroke="black"/>
<line x1="43.9591" y1="45.0992" x2="46.3208" y2="33.5581" stroke="black"/>
<line x1="46.6862" y1="55.2767" x2="49.0479" y2="43.7356" stroke="black"/>
<line y1="-0.5" x2="11.7803" y2="-0.5" transform="matrix(-0.66347 -0.748203 -0.748203 0.66347 40.6466 34.401)" stroke="black"/>
<line y1="-0.5" x2="11.7803" y2="-0.5" transform="matrix(-0.66347 -0.748203 -0.748203 0.66347 43.601 45.4267)" stroke="black"/>
<line y1="-0.5" x2="11.7803" y2="-0.5" transform="matrix(-0.66347 -0.748203 -0.748203 0.66347 46.328 55.6042)" stroke="black"/>
<path d="M109 119C109 146.614 40.5 208 54.5 169C73.5 208 0 146.614 0 119C0 91.3858 24.4005 69 54.5 69C84.5995 69 109 91.3858 109 119Z" fill="white"/>
<path d="M61.9998 185C54.4998 200.5 65.0374 202.5 61.9998 202.5C58.9622 202.5 56.4996 198.5 50.9998 185C45.5 171.5 53.4622 176 56.4998 176C59.5374 176 69.4998 169.5 61.9998 185Z" fill="white"/>
<mask id="path-27-inside-1" fill="white">
<path fill-rule="evenodd" clip-rule="evenodd" d="M11.0177 143.714C34.8214 134.811 58.038 129.463 97.7397 145.062C104.359 135.664 109 126.188 109 119C109 91.3858 84.5995 69 54.5 69C24.4005 69 0 91.3858 0 119C0 125.844 4.51503 134.763 11.0177 143.714Z"/>
</mask>
<path fill-rule="evenodd" clip-rule="evenodd" d="M11.0177 143.714C34.8214 134.811 58.038 129.463 97.7397 145.062C104.359 135.664 109 126.188 109 119C109 91.3858 84.5995 69 54.5 69C24.4005 69 0 91.3858 0 119C0 125.844 4.51503 134.763 11.0177 143.714Z" fill="#A7362F"/>
<path d="M11.0177 143.714L10.2087 144.301L10.6557 144.917L11.368 144.65L11.0177 143.714ZM97.7397 145.062L97.374 145.993L98.1051 146.28L98.5573 145.638L97.7397 145.062ZM11.368 144.65C23.2321 140.213 34.8695 136.693 48.4534 136.199C62.0328 135.705 77.6249 138.233 97.374 145.993L98.1054 144.131C78.1529 136.292 62.2858 133.694 48.3806 134.2C34.4799 134.706 22.607 138.312 10.6674 142.777L11.368 144.65ZM98.5573 145.638C101.892 140.903 104.744 136.128 106.765 131.611C108.781 127.105 110 122.792 110 119H108C108 122.396 106.898 126.415 104.939 130.794C102.985 135.161 100.207 139.823 96.9222 144.486L98.5573 145.638ZM110 119C110 90.7541 85.0689 68 54.5 68V70C84.1301 70 108 92.0174 108 119H110ZM54.5 68C23.9311 68 -1 90.7541 -1 119H1C1 92.0174 24.8699 70 54.5 70V68ZM-1 119C-1 122.625 0.190736 126.717 2.1625 130.986C4.13947 135.267 6.93214 139.791 10.2087 144.301L11.8268 143.126C8.6006 138.685 5.88442 134.275 3.97821 130.148C2.06678 126.009 1 122.219 1 119H-1Z" fill="white" mask="url(#path-27-inside-1)"/>
<ellipse cx="63.1811" cy="121.251" rx="4.68936" ry="4.29858" transform="rotate(-15 63.1811 121.251)" fill="black"/>
<ellipse cx="43.6421" cy="121.251" rx="4.68936" ry="4.29858" transform="rotate(-15 43.6421 121.251)" fill="black"/>
<path d="M48.1603 126.827C48.1603 126.827 49.6544 131.516 53.2404 131.516C56.8264 131.516 58.3206 126.827 58.3206 126.827" stroke="black" stroke-width="3"/>
</symbol>
<!--tomato-->
<symbol id="icon-tomato" viewBox="0 0 113 105">
<circle cx="56.5" cy="52.5" r="52" fill="#98444F" stroke="white"/>
<circle cx="56.5" cy="52.5" r="45.5" fill="#C24141"/>
<path d="M53.7949 50.6416C54.8836 48.371 58.1164 48.371 59.2051 50.6416L75.6572 84.9529C76.6121 86.9443 75.1606 89.25 72.9521 89.25H40.0479C37.8394 89.25 36.3879 86.9443 37.3428 84.9529L53.7949 50.6416Z" fill="#C6F5A2"/>
<path d="M53.7949 50.6416C54.8836 48.371 58.1164 48.371 59.2051 50.6416L75.6572 84.9529C76.6121 86.9443 75.1606 89.25 72.9521 89.25H40.0479C37.8394 89.25 36.3879 86.9443 37.3428 84.9529L53.7949 50.6416Z" fill="#C6F5A2"/>
<path d="M53.7949 50.6416C54.8836 48.371 58.1164 48.371 59.2051 50.6416L75.6572 84.9529C76.6121 86.9443 75.1606 89.25 72.9521 89.25H40.0479C37.8394 89.25 36.3879 86.9443 37.3428 84.9529L53.7949 50.6416Z" fill="#C6F5A2"/>
<path d="M53.7949 50.6416C54.8836 48.371 58.1164 48.371 59.2051 50.6416L75.6572 84.9529C76.6121 86.9443 75.1606 89.25 72.9521 89.25H40.0479C37.8394 89.25 36.3879 86.9443 37.3428 84.9529L53.7949 50.6416Z" fill="#D05A5A"/>
<path d="M59.2051 53.3584C58.1164 55.629 54.8836 55.629 53.7949 53.3584L37.3428 19.0471C36.3879 17.0557 37.8394 14.75 40.0479 14.75L72.9521 14.75C75.1606 14.75 76.6121 17.0557 75.6572 19.0471L59.2051 53.3584Z" fill="#C6F5A2"/>
<path d="M59.2051 53.3584C58.1164 55.629 54.8836 55.629 53.7949 53.3584L37.3428 19.0471C36.3879 17.0557 37.8394 14.75 40.0479 14.75L72.9521 14.75C75.1606 14.75 76.6121 17.0557 75.6572 19.0471L59.2051 53.3584Z" fill="#C6F5A2"/>
<path d="M59.2051 53.3584C58.1164 55.629 54.8836 55.629 53.7949 53.3584L37.3428 19.0471C36.3879 17.0557 37.8394 14.75 40.0479 14.75L72.9521 14.75C75.1606 14.75 76.6121 17.0557 75.6572 19.0471L59.2051 53.3584Z" fill="#C6F5A2"/>
<path d="M59.2051 53.3584C58.1164 55.629 54.8836 55.629 53.7949 53.3584L37.3428 19.0471C36.3879 17.0557 37.8394 14.75 40.0479 14.75L72.9521 14.75C75.1606 14.75 76.6121 17.0557 75.6572 19.0471L59.2051 53.3584Z" fill="#D05A5A"/>
<path d="M57.6239 57.3972C55.9925 55.479 57.3074 52.5258 59.8244 52.4547L93.2248 51.5116C95.4324 51.4492 96.9484 53.713 96.0501 55.7306L84.298 82.1261C83.3998 84.1437 80.7031 84.5318 79.2722 82.8495L57.6239 57.3972Z" fill="#C6F5A2"/>
<path d="M57.6239 57.3972C55.9925 55.479 57.3074 52.5258 59.8244 52.4547L93.2248 51.5116C95.4324 51.4492 96.9484 53.713 96.0501 55.7306L84.298 82.1261C83.3998 84.1437 80.7031 84.5318 79.2722 82.8495L57.6239 57.3972Z" fill="#C6F5A2"/>
<path d="M57.6239 57.3972C55.9925 55.479 57.3074 52.5258 59.8244 52.4547L93.2248 51.5116C95.4324 51.4492 96.9484 53.713 96.0501 55.7306L84.298 82.1261C83.3998 84.1437 80.7031 84.5318 79.2722 82.8495L57.6239 57.3972Z" fill="#C6F5A2"/>
<path d="M57.6239 57.3972C55.9925 55.479 57.3074 52.5258 59.8244 52.4547L93.2248 51.5116C95.4324 51.4492 96.9484 53.713 96.0501 55.7306L84.298 82.1261C83.3998 84.1437 80.7031 84.5318 79.2722 82.8495L57.6239 57.3972Z" fill="#D05A5A"/>
<path d="M62.2873 53.8981C59.7901 54.2216 58.0294 51.5104 59.3407 49.3607L76.7408 20.8352C77.8909 18.9497 80.6151 18.9113 81.8179 20.7635L97.5545 44.9956C98.7573 46.8478 97.6141 49.3209 95.4239 49.6046L62.2873 53.8981Z" fill="#C6F5A2"/>
<path d="M62.2873 53.8981C59.7901 54.2216 58.0294 51.5104 59.3407 49.3607L76.7408 20.8352C77.8909 18.9497 80.6151 18.9113 81.8179 20.7635L97.5545 44.9956C98.7573 46.8478 97.6141 49.3209 95.4239 49.6046L62.2873 53.8981Z" fill="#C6F5A2"/>
<path d="M62.2873 53.8981C59.7901 54.2216 58.0294 51.5104 59.3407 49.3607L76.7408 20.8352C77.8909 18.9497 80.6151 18.9113 81.8179 20.7635L97.5545 44.9956C98.7573 46.8478 97.6141 49.3209 95.4239 49.6046L62.2873 53.8981Z" fill="#C6F5A2"/>
<path d="M62.2873 53.8981C59.7901 54.2216 58.0294 51.5104 59.3407 49.3607L76.7408 20.8352C77.8909 18.9497 80.6151 18.9113 81.8179 20.7635L97.5545 44.9956C98.7573 46.8478 97.6141 49.3209 95.4239 49.6046L62.2873 53.8981Z" fill="#D05A5A"/>
<path d="M53.6292 51.3607C54.9405 53.5104 53.1798 56.2217 50.6826 55.8981L17.546 51.6047C15.3558 51.3209 14.2126 48.8478 15.4154 46.9956L31.1519 22.7635C32.3548 20.9113 35.079 20.9497 36.2291 22.8352L53.6292 51.3607Z" fill="#C6F5A2"/>
<path d="M53.6292 51.3607C54.9405 53.5104 53.1798 56.2217 50.6826 55.8981L17.546 51.6047C15.3558 51.3209 14.2126 48.8478 15.4154 46.9956L31.1519 22.7635C32.3548 20.9113 35.079 20.9497 36.2291 22.8352L53.6292 51.3607Z" fill="#C6F5A2"/>
<path d="M53.6292 51.3607C54.9405 53.5104 53.1798 56.2217 50.6826 55.8981L17.546 51.6047C15.3558 51.3209 14.2126 48.8478 15.4154 46.9956L31.1519 22.7635C32.3548 20.9113 35.079 20.9497 36.2291 22.8352L53.6292 51.3607Z" fill="#C6F5A2"/>
<path d="M53.6292 51.3607C54.9405 53.5104 53.1798 56.2217 50.6826 55.8981L17.546 51.6047C15.3558 51.3209 14.2126 48.8478 15.4154 46.9956L31.1519 22.7635C32.3548 20.9113 35.079 20.9497 36.2291 22.8352L53.6292 51.3607Z" fill="#D05A5A"/>
<path d="M52.5741 54.0899C55.0911 54.1609 56.406 57.1142 54.7746 59.0323L33.1263 84.4847C31.6954 86.167 28.9987 85.7788 28.1004 83.7613L16.3484 57.3657C15.4501 55.3482 16.9661 53.0844 19.1737 53.1467L52.5741 54.0899Z" fill="#C6F5A2"/>
<path d="M52.5741 54.0899C55.0911 54.1609 56.406 57.1142 54.7746 59.0323L33.1263 84.4847C31.6954 86.167 28.9987 85.7788 28.1004 83.7613L16.3484 57.3657C15.4501 55.3482 16.9661 53.0844 19.1737 53.1467L52.5741 54.0899Z" fill="#C6F5A2"/>
<path d="M52.5741 54.0899C55.0911 54.1609 56.406 57.1142 54.7746 59.0323L33.1263 84.4847C31.6954 86.167 28.9987 85.7788 28.1004 83.7613L16.3484 57.3657C15.4501 55.3482 16.9661 53.0844 19.1737 53.1467L52.5741 54.0899Z" fill="#C6F5A2"/>
<path d="M52.5741 54.0899C55.0911 54.1609 56.406 57.1142 54.7746 59.0323L33.1263 84.4847C31.6954 86.167 28.9987 85.7788 28.1004 83.7613L16.3484 57.3657C15.4501 55.3482 16.9661 53.0844 19.1737 53.1467L52.5741 54.0899Z" fill="#D05A5A"/>
<ellipse cx="75" cy="49.5" rx="1.5" ry="3" transform="rotate(-90 75 49.5)" fill="white"/>
<ellipse cx="75" cy="59.5" rx="1.5" ry="3" transform="rotate(-90 75 59.5)" fill="white"/>
<ellipse cx="39" cy="49.5" rx="1.5" ry="3" transform="rotate(-90 39 49.5)" fill="white"/>
<ellipse cx="39" cy="59.5" rx="1.5" ry="3" transform="rotate(-90 39 59.5)" fill="white"/>
<ellipse cx="51.5" cy="44" rx="1.5" ry="3" fill="white"/>
<ellipse cx="61.5" cy="44" rx="1.5" ry="3" fill="white"/>
<ellipse cx="51.5" cy="68" rx="1.5" ry="3" fill="white"/>
<ellipse cx="61.5" cy="68" rx="1.5" ry="3" fill="white"/>
<ellipse cx="63.8154" cy="53.6592" rx="3.50391" ry="3.21191" transform="rotate(-15 63.8154 53.6592)" fill="black"/>
<ellipse cx="49.2158" cy="53.6592" rx="3.50391" ry="3.21191" transform="rotate(-15 49.2158 53.6592)" fill="black"/>
<path d="M52.5918 57.8257C52.5918 57.8257 53.7082 61.3296 56.3877 61.3296C59.0672 61.3296 60.1836 57.8257 60.1836 57.8257" stroke="black" stroke-width="3"/>
</symbol>

</svg>