<svg xmlns="http://www.w3.org/2000/svg" xmlns:xlink="http://www.w3.org/1999/xlink">

  <!--Apple-->
<symbol id="icon-apple" viewBox="0 0 154 193">
<ellipse rx="44.08" ry="59.3897" transform="matrix(0.984749 0.17398 -0.173317 0.984866 98.7891 126.16)" fill="white"/>
<ellipse rx="44.08" ry="59.3897" transform="matrix(0.984749 -0.17398 0.173317 0.984866 53.7009 126.5)" fill="white"/>
<ellipse cx="98.4951" cy="126.165" rx="43.5" ry="58.5" transform="rotate(10 98.4951 126.165)" fill="#C24141"/>
<ellipse cx="53.9976" cy="126.5" rx="43.5" ry="58.5" transform="rotate(-10 53.9976 126.5)" fill="#C24141"/>
<path fill-rule="evenodd" clip-rule="evenodd" d="M61.3538 144.463C61.2162 144.922 61.1127 145.392 61.0458 145.872C60.2134 151.838 65.3773 156.99 72.5796 157.38C79.7819 157.77 86.2953 153.249 87.1277 147.283C87.1959 146.794 87.2239 146.311 87.2138 145.835L61.3538 144.463Z" fill="black"/>
<path fill-rule="evenodd" clip-rule="evenodd" d="M86.0353 150.393L60.7621 148.599C60.761 148.603 60.7599 148.607 60.7589 148.611C61.5944 153.631 66.2806 157.643 72.3761 158.082C78.4881 158.523 84.0498 155.23 86.0353 150.393Z" fill="#F5B9C8"/>
<ellipse cx="91.7506" cy="140.813" rx="6" ry="5.5" transform="rotate(-15 91.7506 140.813)" fill="black"/>
<ellipse cx="55.355" cy="140.213" rx="6" ry="5.5" transform="rotate(-15 55.355 140.213)" fill="black"/>
<mask id="path-9-inside-1" fill="white">
<path d="M42.503 44.9208C56.4005 52.8839 88.08 52.9572 88.08 52.9572C88.08 52.9572 55.3611 6.31867 47.7218 9.18755C40.0825 12.0564 28.6055 36.9576 42.503 44.9208Z"/>
</mask>
<path d="M42.503 44.9208C56.4005 52.8839 88.08 52.9572 88.08 52.9572C88.08 52.9572 55.3611 6.31867 47.7218 9.18755C40.0825 12.0564 28.6055 36.9576 42.503 44.9208Z" fill="#425B28" stroke="white" stroke-width="2" mask="url(#path-9-inside-1)"/>
<path d="M153.47 23.5C153.47 27.399 150.528 30.5 146.97 30.5C143.412 30.5 140.47 27.399 140.47 23.5C140.47 19.601 143.412 16.5 146.97 16.5C150.528 16.5 153.47 19.601 153.47 23.5Z" fill="#443832" stroke="white"/>
<path d="M83.1637 84.3294C82.8783 85.3945 81.7598 86.2525 79.9335 86.666C78.1327 87.0738 75.7774 87.0089 73.3057 86.3467C70.834 85.6844 68.7618 84.5629 67.4062 83.3093C66.0313 82.0381 65.4917 80.7358 65.7771 79.6706C66.0625 78.6055 67.181 77.7475 69.0073 77.334C70.8081 76.9262 73.1634 76.991 75.6351 77.6533C78.1068 78.3156 80.179 79.4371 81.5346 80.6907C82.9095 81.9619 83.4491 83.2642 83.1637 84.3294Z" fill="#443832" stroke="white"/>
<path d="M74.6923 80.959C74.6923 80.959 80.5944 54.2562 93.0944 35.7562C105.594 17.2562 142.594 23.2562 142.594 23.2562" stroke="white" stroke-width="10"/>
<path d="M74.6923 80.959C74.6923 80.959 80.5944 54.2562 93.0944 35.7562C105.594 17.2562 142.594 23.2562 142.594 23.2562" stroke="#443832" stroke-width="8"/>
</symbol>

  <!--Banana-->
<symbol id="icon-banana" viewBox="0 0 246 105">
<path d="M3.46282 8.93112C4.96799 4.91201 9.62077 4.09821 12.7515 7.30647L20.952 15.7102C21.7286 16.5061 22.1809 17.6246 22.1809 18.7494C22.1809 21.0337 20.3693 22.5513 18.3791 21.9343L8.03068 18.726C4.24601 17.5527 2.02089 12.7814 3.46282 8.93112Z" fill="#443832" stroke="white"/>
<path d="M204.509 79.1773L204.463 79.1996L204.423 79.2308L204.422 79.2313L204.419 79.2337L204.405 79.2446C204.392 79.2545 204.372 79.2696 204.345 79.2898C204.291 79.3302 204.21 79.3909 204.1 79.4707C203.88 79.6304 203.548 79.8665 203.103 80.1695C202.214 80.7753 200.872 81.6482 199.071 82.7106C195.47 84.8354 190.034 87.718 182.707 90.7377C182.22 90.9385 181.73 91.1411 181.235 91.3451C166.792 97.3068 149.366 104.5 131.714 104.5C113.405 104.5 94.9722 100.078 84.8739 95.6212C79.8168 93.3892 72.3485 89.4472 65.1753 84.7421C57.9914 80.0301 51.1552 74.5858 47.3151 69.3592C45.7285 67.1998 43.5288 64.4153 41.0421 61.2675C40.4662 60.5385 39.8749 59.79 39.2723 59.0253C36.0633 54.9532 32.5252 50.4115 29.248 45.8667C25.9694 41.3199 22.9607 36.782 20.8062 32.7178C18.6391 28.6297 17.3843 25.1068 17.5084 22.5611C17.5553 21.598 17.5766 20.6763 17.5965 19.8166C17.6045 19.4686 17.6123 19.1307 17.6215 18.8044C17.6536 17.6621 17.7025 16.6593 17.832 15.8007C17.9617 14.9403 18.1671 14.2644 18.4869 13.757C18.7972 13.2644 19.2277 12.9101 19.862 12.7045C20.5122 12.4937 21.3982 12.4328 22.6149 12.5837C23.8288 12.7343 25.341 13.0917 27.2264 13.689C30.9978 14.8837 36.203 17.0189 43.3968 20.299C49.0668 22.8844 53.7785 25.0886 57.9046 27.0189C74.7162 34.8835 81.8064 38.2004 104.391 44.2247C127.228 50.3162 138.912 50.4655 147.144 50.5707C149.056 50.5952 150.781 50.6172 152.417 50.7108C156.842 50.964 161.326 50.3153 166.824 49.1224C169.642 48.5109 172.754 47.7495 176.275 46.8882C179.594 46.0765 183.274 45.1761 187.413 44.229C206.765 39.8001 216.245 36.6355 227.25 30.2026C229.945 28.6273 232.648 27.5916 235.113 27.1936C237.579 26.7952 239.773 27.0401 241.489 27.9807C244.86 29.8289 246.707 34.5933 244.619 43.629C243.598 48.0469 240.619 52.4837 236.662 56.6731C232.712 60.8556 227.825 64.7512 223.056 68.0902C218.288 71.4278 213.65 74.2007 210.202 76.1395C208.479 77.1087 207.054 77.8689 206.061 78.3865C205.564 78.6453 205.175 78.8434 204.911 78.9766C204.779 79.0432 204.678 79.0936 204.61 79.1272L204.534 79.165L204.515 79.1743L204.51 79.1766L204.509 79.1771C204.509 79.1772 204.509 79.1773 204.729 79.6263L204.509 79.1773Z" fill="#F4D977" stroke="white"/>
<mask id="path-3-inside-1" fill="white">
<path fill-rule="evenodd" clip-rule="evenodd" d="M240.823 27C244.335 29.4867 246.479 34.0335 245.782 40.7093C242.995 41.1197 240.5 39.351 239.854 36.4226L239.155 33.2582C238.671 31.0663 239.35 28.6915 240.823 27Z"/>
</mask>
<path fill-rule="evenodd" clip-rule="evenodd" d="M240.823 27C244.335 29.4867 246.479 34.0335 245.782 40.7093C242.995 41.1197 240.5 39.351 239.854 36.4226L239.155 33.2582C238.671 31.0663 239.35 28.6915 240.823 27Z" fill="#443832"/>
<path d="M240.823 27L241.4 26.1838L240.662 25.6613L240.068 26.3433L240.823 27ZM245.782 40.7093L245.928 41.6986L246.696 41.5855L246.777 40.8131L245.782 40.7093ZM239.854 36.4226L240.83 36.2069L239.854 36.4226ZM239.155 33.2582L240.131 33.0425L239.155 33.2582ZM240.245 27.8162C243.397 30.0479 245.456 34.2018 244.787 40.6055L246.777 40.8131C247.502 33.8651 245.273 28.9256 241.4 26.1838L240.245 27.8162ZM245.636 39.72C243.403 40.0488 241.371 38.6584 240.83 36.2069L238.877 36.6383C239.629 40.0436 242.586 42.1906 245.928 41.6986L245.636 39.72ZM240.83 36.2069L240.131 33.0425L238.178 33.4738L238.877 36.6383L240.83 36.2069ZM240.131 33.0425C239.72 31.1831 240.296 29.1273 241.577 27.6567L240.068 26.3433C238.403 28.2557 237.621 30.9496 238.178 33.4738L240.131 33.0425Z" fill="white" mask="url(#path-3-inside-1)"/>
<path fill-rule="evenodd" clip-rule="evenodd" d="M113.218 74.175C113.08 74.6338 112.977 75.1038 112.91 75.5831C112.078 81.5493 117.241 86.7018 124.444 87.0915C131.646 87.4812 138.159 82.9605 138.992 76.9942C139.06 76.5055 139.088 76.0223 139.078 75.5467L113.218 74.175Z" fill="black"/>
<path fill-rule="evenodd" clip-rule="evenodd" d="M137.899 80.1046L112.626 78.3105C112.625 78.3145 112.624 78.3185 112.623 78.3226C113.458 83.3429 118.145 87.3542 124.24 87.7937C130.352 88.2344 135.914 84.9421 137.899 80.1046Z" fill="#F5B9C8"/>
<ellipse cx="143.615" cy="70.5247" rx="6" ry="5.5" transform="rotate(-15 143.615 70.5247)" fill="black"/>
<ellipse cx="107.219" cy="69.9242" rx="6" ry="5.5" transform="rotate(-15 107.219 69.9242)" fill="black"/>
</symbol>

  <!--Blackberry-->
<symbol id="icon-blackberry" viewBox="0 0 108 147">
<path fill-rule="evenodd" clip-rule="evenodd" d="M63.167 59.6821C63.1601 59.3823 63.1409 59.0855 63.1098 58.7922C63.4071 58.8992 63.7105 58.9935 64.0194 59.0743C63.7251 59.2632 63.4406 59.4661 63.167 59.6821ZM38.4192 97.0709C38.1757 98.08 37.7891 99.0332 37.2819 99.908C37.5746 100.176 37.8523 100.46 38.1137 100.759C38.5049 99.3995 39.1587 98.1511 40.0166 97.0722C39.7557 97.0912 39.4922 97.1009 39.2264 97.1009C38.9549 97.1009 38.6856 97.0908 38.4192 97.0709ZM41.9499 57.9875C41.7299 58.5069 41.4699 59.0052 41.1739 59.4788C41.376 59.458 41.5797 59.4428 41.785 59.4334C41.8075 58.9421 41.8632 58.4594 41.9499 57.9875ZM40.3392 110.755C40.591 111.043 40.858 111.317 41.139 111.576C40.7299 111.66 40.3293 111.768 39.9387 111.897C40.0929 111.526 40.2268 111.145 40.3392 110.755ZM64.3391 126.278C64.8364 125.124 65.1363 123.865 65.1964 122.544C65.5179 122.697 65.8483 122.834 66.1865 122.955C65.4568 123.973 64.9012 125.123 64.5634 126.363C64.5137 126.344 64.4639 126.324 64.4139 126.306L64.3714 126.29L64.3391 126.278ZM78.872 107.228C78.9833 107.406 79.0895 107.587 79.1904 107.772C79.392 107.602 79.6001 107.438 79.8141 107.283C79.4965 107.278 79.1823 107.26 78.872 107.228ZM42.8912 55.1677C42.7936 55.3634 42.7018 55.5625 42.6161 55.7648C42.6602 55.5247 42.6963 55.2818 42.7241 55.0364C42.7794 55.0807 42.8351 55.1245 42.8912 55.1677ZM79.8604 71.7021C80.2349 71.6625 80.6151 71.6422 81 71.6422C81.175 71.6422 81.349 71.6464 81.5219 71.6547C81.5136 71.4819 81.5094 71.3079 81.5094 71.133C81.5094 70.9581 81.5136 70.7842 81.5219 70.6113C81.349 70.6197 81.175 70.6239 81 70.6239C80.7284 70.6239 80.4592 70.6137 80.1927 70.5939C80.1016 70.9715 79.9905 71.3413 79.8604 71.7021ZM20.3847 70.5145L20.3185 70.5238C20.3434 70.5747 20.3678 70.6259 20.3919 70.6772C20.3891 70.6231 20.3867 70.5689 20.3847 70.5145ZM86.0943 126.633C85.8177 126.633 85.5435 126.623 85.2722 126.602C85.4765 127.427 85.5849 128.29 85.5849 129.179C85.5849 135.084 80.7952 139.872 74.8868 139.872C73.4952 139.872 72.1656 139.606 70.946 139.123C69.7097 143.662 65.5561 147 60.6226 147C56.7311 147 53.3248 144.923 51.4528 141.818C49.5808 144.923 46.1746 147 42.283 147C36.3746 147 31.5849 142.213 31.5849 136.307C31.5849 136.274 31.5851 136.241 31.5854 136.208C30.4699 136.602 29.2694 136.817 28.0189 136.817C22.1105 136.817 17.3208 132.029 17.3208 126.124C17.3208 123.611 18.1878 121.301 19.6393 119.476C19.3784 119.495 19.1148 119.505 18.8491 119.505C12.9407 119.505 8.15094 114.717 8.15094 108.812C8.15094 106.741 8.73986 104.808 9.75941 103.17C4.29062 102.695 0 98.1076 0 92.5183C0 88.9591 1.73995 85.806 4.41609 83.8624C1.73995 81.9188 0 78.7657 0 75.2064C0 69.7993 4.01554 65.3296 9.22865 64.6138C8.53832 63.1996 8.15094 61.6106 8.15094 59.9312C8.15094 54.0258 12.9407 49.2385 18.8491 49.2385C20.0159 49.2385 21.1392 49.4253 22.1905 49.7704C23.7877 45.8735 27.6203 43.1284 32.0943 43.1284C34.6264 43.1284 36.9531 44.0077 38.7853 45.4774C39.389 40.1442 43.9178 36 49.4151 36C53.4615 36 56.9832 38.2453 58.801 41.5574C60.7586 39.3951 63.5885 38.0367 66.7359 38.0367C72.6443 38.0367 77.434 42.824 77.434 48.7294C77.434 49.1141 77.4136 49.4941 77.374 49.8684C78.5063 49.4607 79.7272 49.2385 81 49.2385C86.9084 49.2385 91.6981 54.0258 91.6981 59.9312C91.6981 60.1061 91.6939 60.28 91.6856 60.4529C91.8585 60.4446 92.0326 60.4404 92.2076 60.4404C98.116 60.4404 102.906 65.2276 102.906 71.133C102.906 73.1072 102.37 74.9564 101.437 76.5436C105.292 78.1599 108 81.968 108 86.4083C108 91.0075 105.095 94.9286 101.018 96.4381C101.577 97.7346 101.887 99.1637 101.887 100.665C101.887 105.105 99.179 108.913 95.3237 110.53C96.2572 112.117 96.7925 113.966 96.7925 115.94C96.7925 121.846 92.0027 126.633 86.0943 126.633Z" fill="white"/>
<path d="M97 87C97 113.786 75.8167 140.5 52.6207 140.5C29.4248 140.5 9 113.786 9 87C9 60.2142 29.4248 43.5 52.6207 43.5C75.8167 43.5 97 60.2142 97 87Z" fill="#71417C"/>
<circle cx="91.5" cy="71.5" r="10.25" fill="#71417C" stroke="white" stroke-width="0.5"/>
<circle cx="96.5" cy="86.5" r="10.25" fill="#71417C" stroke="white" stroke-width="0.5"/>
<circle cx="80.5" cy="82.5" r="10.25" fill="#71417C" stroke="white" stroke-width="0.5"/>
<circle cx="80.5" cy="60.5" r="10.25" fill="#71417C" stroke="white" stroke-width="0.5"/>
<circle cx="90.5" cy="100.5" r="10.25" fill="#71417C" stroke="white" stroke-width="0.5"/>
<circle cx="11.5" cy="75.5" r="10.25" fill="#71417C" stroke="white" stroke-width="0.5"/>
<circle cx="19.5" cy="60.5" r="10.25" fill="#71417C" stroke="white" stroke-width="0.5"/>
<circle cx="11.5" cy="92.5" r="10.25" fill="#71417C" stroke="white" stroke-width="0.5"/>
<circle cx="21.5" cy="82.5" r="10.25" fill="#71417C" stroke="white" stroke-width="0.5"/>
<circle cx="32.5" cy="54.5" r="10.25" fill="#71417C" stroke="white" stroke-width="0.5"/>
<circle cx="49.5" cy="47.5" r="10.25" fill="#71417C" stroke="white" stroke-width="0.5"/>
<circle cx="66.5" cy="49.5" r="10.25" fill="#71417C" stroke="white" stroke-width="0.5"/>
<circle cx="19.5" cy="108.5" r="10.25" fill="#71417C" stroke="white" stroke-width="0.5"/>
<circle cx="28.5" cy="125.5" r="10.25" fill="#71417C" stroke="white" stroke-width="0.5"/>
<circle cx="60.5" cy="135.5" r="10.25" fill="#71417C" stroke="white" stroke-width="0.5"/>
<circle cx="85.5" cy="115.5" r="10.25" fill="#71417C" stroke="white" stroke-width="0.5"/>
<circle cx="42.5" cy="135.5" r="10.25" fill="#71417C" stroke="white" stroke-width="0.5"/>
<circle cx="74.5" cy="128.5" r="10.25" fill="#71417C" stroke="white" stroke-width="0.5"/>
<circle cx="43.5" cy="121.5" r="10.25" fill="#71417C" stroke="white" stroke-width="0.5"/>
<circle cx="69.5" cy="112.5" r="10.25" fill="#71417C" stroke="white" stroke-width="0.5"/>
<circle cx="31.5" cy="70.5" r="10.25" fill="#71417C" stroke="white" stroke-width="0.5"/>
<circle cx="30.5" cy="107.5" r="10.25" fill="#71417C" stroke="white" stroke-width="0.5"/>
<circle cx="69.5" cy="68.5" r="10.25" fill="#71417C" stroke="white" stroke-width="0.5"/>
<circle cx="52.5" cy="60.5" r="10.25" fill="#71417C" stroke="white" stroke-width="0.5"/>
<circle cx="79.5" cy="96.5" r="10.25" fill="#71417C" stroke="white" stroke-width="0.5"/>
<circle cx="54.5" cy="121.5" r="10.25" fill="#71417C" stroke="white" stroke-width="0.5"/>
<circle cx="28.5" cy="94.5" r="10.25" fill="#71417C" stroke="white" stroke-width="0.5"/>
<circle cx="48.5" cy="103.5" r="10.25" fill="#71417C" stroke="white" stroke-width="0.5"/>
<circle cx="62.5" cy="98.5" r="10.25" fill="#71417C" stroke="white" stroke-width="0.5"/>
<circle cx="42.5" cy="70.5" r="10.25" fill="#71417C" stroke="white" stroke-width="0.5"/>
<circle cx="39.5" cy="86.5" r="10.25" fill="#71417C" stroke="white" stroke-width="0.5"/>
<circle cx="55.5" cy="78.5" r="10.25" fill="#71417C" stroke="white" stroke-width="0.5"/>
<circle cx="68.5" cy="81.5" r="10.25" fill="#71417C" stroke="white" stroke-width="0.5"/>
<circle cx="51.5" cy="93.5" r="10.25" fill="#71417C" stroke="white" stroke-width="0.5"/>
<circle cx="56.5" cy="112.5" r="10.25" fill="#71417C" stroke="white" stroke-width="0.5"/>
<ellipse cx="52.8157" cy="35.2083" rx="11.1842" ry="11.2083" fill="white"/>
<ellipse cx="47.4473" cy="61.2117" rx="11.1842" ry="11.2083" fill="white"/>
<ellipse cx="69.8158" cy="45.9683" rx="11.1842" ry="11.2083" fill="white"/>
<ellipse cx="63.5526" cy="61.2117" rx="11.1842" ry="11.2083" fill="white"/>
<ellipse cx="41.1842" cy="45.9683" rx="11.1842" ry="11.2083" fill="white"/>
<ellipse cx="55.5" cy="50.4517" rx="7.60526" ry="6.725" fill="white"/>
<circle cx="52.921" cy="35.7456" r="10.7456" fill="#425B28"/>
<circle cx="47.7631" cy="60.6754" r="10.7456" fill="#425B28"/>
<circle cx="69.2544" cy="46.0614" r="10.7456" fill="#425B28"/>
<circle cx="63.2368" cy="60.6754" r="10.7456" fill="#425B28"/>
<circle cx="41.7456" cy="46.0614" r="10.7456" fill="#425B28"/>
<path d="M94.5 12.5C94.5 16.399 91.5579 19.5 88 19.5C84.4421 19.5 81.5 16.399 81.5 12.5C81.5 8.60092 84.4421 5.49997 88 5.49997C91.5579 5.49997 94.5 8.60092 94.5 12.5Z" fill="#443832" stroke="white"/>
<path d="M63.1637 51.3294C62.8783 52.3945 61.7598 53.2525 59.9335 53.666C58.1327 54.0738 55.7774 54.009 53.3057 53.3467C50.834 52.6844 48.7618 51.5629 47.4062 50.3093C46.0313 49.0381 45.4917 47.7358 45.7771 46.6706C46.0625 45.6055 47.181 44.7475 49.0073 44.334C50.8081 43.9262 53.1634 43.991 55.6351 44.6533C58.1068 45.3156 60.179 46.4371 61.5346 47.6907C62.9095 48.9619 63.4491 50.2642 63.1637 51.3294Z" fill="#443832" stroke="white"/>
<path d="M55.1367 46.6788C55.1367 46.6788 57.6481 30.4824 62.967 19.2614C68.2858 8.04045 84.0296 11.6797 84.0296 11.6797" stroke="white" stroke-width="10"/>
<path d="M55.1367 46.6788C55.1367 46.6788 57.6481 30.4824 62.967 19.2614C68.2858 8.04045 84.0296 11.6797 84.0296 11.6797" stroke="#443832" stroke-width="8"/>
<path fill-rule="evenodd" clip-rule="evenodd" d="M40.2179 112.175C40.0803 112.634 39.9768 113.104 39.9099 113.583C39.0775 119.549 44.2414 124.702 51.4437 125.092C58.646 125.481 65.1594 120.96 65.9918 114.994C66.06 114.506 66.0879 114.022 66.0778 113.547L40.2179 112.175Z" fill="black"/>
<path fill-rule="evenodd" clip-rule="evenodd" d="M64.8994 118.105L39.6262 116.31C39.6251 116.314 39.624 116.319 39.6229 116.323C40.4585 121.343 45.1447 125.354 51.2401 125.794C57.3522 126.234 62.9139 122.942 64.8994 118.105Z" fill="#F5B9C8"/>
<ellipse cx="70.6146" cy="108.525" rx="6" ry="5.5" transform="rotate(-15 70.6146 108.525)" fill="black"/>
<ellipse cx="34.2191" cy="107.924" rx="6" ry="5.5" transform="rotate(-15 34.2191 107.924)" fill="black"/>
</symbol>

  <!--Blueberry-->
<symbol id="icon-blueberry" viewBox="0 0 83 96">
<path d="M82.5 55.5C82.5 77.58 64.1552 95.5 41.5 95.5C18.8448 95.5 0.5 77.58 0.5 55.5C0.5 33.42 18.8448 15.5 41.5 15.5C64.1552 15.5 82.5 33.42 82.5 55.5Z" fill="#3D5CAD" stroke="#F2F3F1"/>
<ellipse cx="51.8158" cy="11.2083" rx="11.1842" ry="11.2083" fill="white"/>
<ellipse cx="46.4473" cy="37.2117" rx="11.1842" ry="11.2083" fill="white"/>
<ellipse cx="68.8158" cy="21.9683" rx="11.1842" ry="11.2083" fill="white"/>
<ellipse cx="62.5526" cy="37.2117" rx="11.1842" ry="11.2083" fill="white"/>
<ellipse cx="40.1842" cy="21.9683" rx="11.1842" ry="11.2083" fill="white"/>
<ellipse cx="54.5" cy="26.4517" rx="7.60526" ry="6.725" fill="white"/>
<circle cx="51.9211" cy="11.7456" r="10.7456" fill="#425B28"/>
<circle cx="46.7632" cy="36.6754" r="10.7456" fill="#425B28"/>
<circle cx="68.2544" cy="22.0614" r="10.7456" fill="#425B28"/>
<circle cx="62.2369" cy="36.6754" r="10.7456" fill="#425B28"/>
<circle cx="40.7456" cy="22.0614" r="10.7456" fill="#425B28"/>
<ellipse cx="54.5" cy="26.3597" rx="7.30702" ry="6.44737" fill="black" stroke="#F2F3F1"/>
<ellipse cx="55" cy="74.5" rx="6" ry="5.5" fill="black"/>
<ellipse cx="20" cy="64.5" rx="6" ry="5.5" fill="black"/>
<path fill-rule="evenodd" clip-rule="evenodd" d="M25.5699 70.1339C25.3651 70.4656 25.1847 70.8131 25.0312 71.1758C23.1204 75.69 26.0941 80.8274 31.673 82.6505C37.2519 84.4736 43.3236 82.2922 45.2344 77.778C45.3909 77.4082 45.5146 77.0343 45.6069 76.6584L25.5699 70.1339Z" fill="black"/>
<path fill-rule="evenodd" clip-rule="evenodd" d="M24.0127 74L43.4509 80.3158C40.7977 83.3484 35.8403 84.5846 31.2207 83.0749C26.6156 81.57 23.7856 77.8068 24.0127 74Z" fill="#F5B9C8"/>
</symbol>

  <!--Cherry-->
<symbol id="icon-cherry" viewBox="0 0 128 147">
<path d="M82.5 106.5C82.5 128.58 64.1552 146.5 41.5 146.5C18.8448 146.5 0.5 128.58 0.5 106.5C0.5 84.42 18.8448 66.5 41.5 66.5C64.1552 66.5 82.5 84.42 82.5 106.5Z" fill="#C24141" stroke="#F2F3F1"/>
<ellipse cx="55" cy="125.5" rx="6" ry="5.5" fill="black"/>
<ellipse cx="20" cy="115.5" rx="6" ry="5.5" fill="black"/>
<path fill-rule="evenodd" clip-rule="evenodd" d="M25.5699 121.134C25.3651 121.466 25.1847 121.813 25.0312 122.176C23.1204 126.69 26.0941 131.827 31.673 133.651C37.2519 135.474 43.3236 133.292 45.2344 128.778C45.3909 128.408 45.5146 128.034 45.6069 127.658L25.5699 121.134Z" fill="black"/>
<path fill-rule="evenodd" clip-rule="evenodd" d="M24.0127 125L43.4509 131.316C40.7976 134.348 35.8403 135.585 31.2207 134.075C26.6156 132.57 23.7856 128.807 24.0127 125Z" fill="#F5B9C8"/>
<path d="M127.47 26.5C127.47 30.399 124.528 33.5 120.97 33.5C117.412 33.5 114.47 30.399 114.47 26.5C114.47 22.601 117.412 19.5 120.97 19.5C124.528 19.5 127.47 22.601 127.47 26.5Z" fill="#443832" stroke="white"/>
<path d="M57.1637 87.3294C56.8783 88.3945 55.7598 89.2525 53.9335 89.666C52.1327 90.0738 49.7774 90.0089 47.3057 89.3467C44.834 88.6844 42.7618 87.5629 41.4062 86.3093C40.0313 85.0381 39.4917 83.7358 39.7771 82.6706C40.0625 81.6055 41.181 80.7475 43.0073 80.334C44.8081 79.9262 47.1634 79.991 49.6351 80.6533C52.1068 81.3156 54.179 82.4371 55.5346 83.6907C56.9095 84.9619 57.4491 86.2642 57.1637 87.3294Z" fill="#443832" stroke="white"/>
<path d="M48.6923 83.959C48.6923 83.959 54.5944 57.2562 67.0944 38.7562C79.5944 20.2562 116.594 26.2562 116.594 26.2562" stroke="white" stroke-width="10"/>
<path d="M48.6923 83.959C48.6923 83.959 54.5944 57.2562 67.0944 38.7562C79.5944 20.2562 116.594 26.2562 116.594 26.2562" stroke="#443832" stroke-width="8"/>
</symbol>

  <!--Grapes-->
<symbol id="icon-grapes" viewBox="0 0 119 206">
<path d="M58.9483 182.842L58.5864 182.513L58.2498 182.867C56.2131 185.011 54.1085 185.747 51.9732 185.429C49.8008 185.106 47.4999 183.678 45.1374 181.276C40.4149 176.477 35.6494 167.998 31.3917 157.761C22.8816 137.3 16.5 110.062 16.5 91.8902C16.5 73.7396 21.9674 63.6996 29.8709 58.1637C37.8138 52.6001 48.3284 51.5 58.6122 51.5C68.8947 51.5 79.8606 52.5993 88.2517 58.1707C96.5988 63.7129 102.5 73.7544 102.5 91.8902C102.5 110.064 96.3506 137.303 87.7375 157.759C83.4282 167.995 78.5278 176.469 73.5183 181.266C71.0152 183.663 68.5275 185.101 66.1122 185.428C63.7217 185.752 61.3229 184.997 58.9483 182.842Z" fill="#71417C" stroke="white"/>
<path d="M64.0431 41.9866C64.2094 42.2187 64.3569 42.4254 64.4843 42.6042C64.4837 42.6042 64.4831 42.6042 64.4825 42.6042C63.85 42.5918 62.9345 42.5677 61.8046 42.5211C59.5444 42.428 56.4286 42.2451 53.0061 41.8858C46.1324 41.1642 38.1225 39.7403 33.2795 36.9653C28.6475 34.3112 28.1547 28.7927 29.6231 23.4599C30.3511 20.8161 31.5495 18.2825 32.8947 16.2907C34.2542 14.2777 35.7106 12.896 36.9201 12.4418C37.1258 12.3645 37.4187 12.3544 37.8281 12.4687C38.236 12.5825 38.7205 12.8093 39.2767 13.1517C40.389 13.8363 41.7145 14.9369 43.1784 16.3398C46.102 19.1414 49.5059 23.0785 52.7519 27.0944C55.9954 31.107 59.0705 35.1849 61.3354 38.2606C62.4677 39.7982 63.397 41.0847 64.0431 41.9866Z" fill="#425B28" stroke="white"/>
<path d="M102.21 12.5C102.21 16.399 99.2683 19.5 95.7104 19.5C92.1525 19.5 89.2104 16.399 89.2104 12.5C89.2104 8.60094 92.1525 5.49998 95.7104 5.49998C99.2683 5.49998 102.21 8.60094 102.21 12.5Z" fill="#443832" stroke="white"/>
<path d="M70.8741 51.3294C70.5887 52.3945 69.4702 53.2525 67.6439 53.666C65.8431 54.0738 63.4878 54.009 61.0161 53.3467C58.5444 52.6844 56.4722 51.5629 55.1166 50.3093C53.7417 49.0381 53.202 47.7358 53.4875 46.6706C53.7729 45.6055 54.8914 44.7475 56.7176 44.334C58.5185 43.9262 60.8738 43.991 63.3455 44.6533C65.8172 45.3156 67.8893 46.4371 69.245 47.6907C70.6198 48.9619 71.1595 50.2642 70.8741 51.3294Z" fill="#443832" stroke="white"/>
<path d="M62.8471 46.6788C62.8471 46.6788 65.3585 30.4824 70.6774 19.2614C75.9962 8.04045 91.74 11.6797 91.74 11.6797" stroke="white" stroke-width="10"/>
<path d="M62.8471 46.6788C62.8471 46.6788 65.3585 30.4824 70.6774 19.2614C75.9962 8.04045 91.74 11.6797 91.74 11.6797" stroke="#443832" stroke-width="8"/>
<circle cx="60" cy="186" r="19.625" fill="#71417C" stroke="white" stroke-width="0.75"/>
<circle cx="99" cy="76" r="19.625" fill="#71417C" stroke="white" stroke-width="0.75"/>
<circle cx="20" cy="75" r="19.625" fill="#71417C" stroke="white" stroke-width="0.75"/>
<circle cx="47" cy="60" r="19.625" fill="#71417C" stroke="white" stroke-width="0.75"/>
<circle cx="76" cy="61" r="19.625" fill="#71417C" stroke="white" stroke-width="0.75"/>
<circle cx="27" cy="112" r="19.625" fill="#71417C" stroke="white" stroke-width="0.75"/>
<circle cx="96" cy="108" r="19.625" fill="#71417C" stroke="white" stroke-width="0.75"/>
<circle cx="40" cy="163" r="19.625" fill="#71417C" stroke="white" stroke-width="0.75"/>
<circle cx="79" cy="164" r="19.625" fill="#71417C" stroke="white" stroke-width="0.75"/>
<circle cx="27" cy="136" r="19.625" fill="#71417C" stroke="white" stroke-width="0.75"/>
<circle cx="87" cy="139" r="19.625" fill="#71417C" stroke="white" stroke-width="0.75"/>
<circle cx="56" cy="147" r="19.625" fill="#71417C" stroke="white" stroke-width="0.75"/>
<circle cx="76" cy="115" r="19.625" fill="#71417C" stroke="white" stroke-width="0.75"/>
<circle cx="40" cy="103" r="19.625" fill="#71417C" stroke="white" stroke-width="0.75"/>
<circle cx="67" cy="86" r="19.625" fill="#71417C" stroke="white" stroke-width="0.75"/>
<path fill-rule="evenodd" clip-rule="evenodd" d="M47.2179 144.175C47.0803 144.634 46.9768 145.104 46.9099 145.583C46.0775 151.549 51.2414 156.702 58.4437 157.092C65.646 157.481 72.1594 152.96 72.9918 146.994C73.06 146.506 73.0879 146.022 73.0778 145.547L47.2179 144.175Z" fill="black"/>
<path fill-rule="evenodd" clip-rule="evenodd" d="M71.8994 150.105L46.6262 148.31C46.6251 148.314 46.624 148.319 46.6229 148.323C47.4585 153.343 52.1447 157.354 58.2401 157.794C64.3522 158.234 69.9139 154.942 71.8994 150.105Z" fill="#F5B9C8"/>
<ellipse cx="77.6147" cy="140.525" rx="6" ry="5.5" transform="rotate(-15 77.6147 140.525)" fill="black"/>
<ellipse cx="41.2191" cy="139.924" rx="6" ry="5.5" transform="rotate(-15 41.2191 139.924)" fill="black"/>
</symbol>

  <!--Kiwi-->
<symbol id="icon-kiwi" viewBox="0 0 105 105">
<circle cx="52.5" cy="52.5" r="52" fill="#443832" stroke="white"/>
<circle cx="52.5" cy="52.5" r="45.5" fill="#9ADE65"/>
<circle cx="52.5" cy="52.5" r="22.5" fill="#9ADE65" stroke="#443832" stroke-width="2"/>
<path fill-rule="evenodd" clip-rule="evenodd" d="M44.0064 60.7467C43.9126 61.0594 43.842 61.3796 43.7965 61.7062C43.2293 65.7714 46.7478 69.2822 51.6553 69.5477C56.5628 69.8132 61.0009 66.733 61.568 62.6677C61.6145 62.3347 61.6335 62.0054 61.6266 61.6814L44.0064 60.7467Z" fill="black"/>
<path fill-rule="evenodd" clip-rule="evenodd" d="M60.8237 64.787L43.6032 63.5645C43.6025 63.5673 43.6017 63.57 43.601 63.5728C44.1703 66.9936 47.3633 69.7267 51.5166 70.0262C55.6812 70.3264 59.4708 68.0831 60.8237 64.787Z" fill="#F5B9C8"/>
<ellipse cx="64.7179" cy="58.2596" rx="4.08825" ry="3.74756" transform="rotate(-15 64.7179 58.2596)" fill="black"/>
<ellipse cx="39.9189" cy="57.8503" rx="4.08825" ry="3.74756" transform="rotate(-15 39.9189 57.8503)" fill="black"/>
<line x1="12" y1="52.5" x2="22.8167" y2="52.5" stroke="#443832" stroke-width="3"/>
<line x1="82" y1="51.5" x2="92.8167" y2="51.5" stroke="#443832" stroke-width="3"/>
<line x1="51.5" y1="91.8167" x2="51.5" y2="81" stroke="#443832" stroke-width="3"/>
<line x1="66.6297" y1="28.2714" x2="71.0292" y2="18.3899" stroke="#443832" stroke-width="3"/>
<line x1="77.183" y1="39.6332" x2="86.2547" y2="33.742" stroke="#443832" stroke-width="3"/>
<line x1="88.2714" y1="69.7699" x2="78.3899" y2="65.3703" stroke="#443832" stroke-width="3"/>
<line x1="74.6332" y1="85.8886" x2="68.742" y2="76.8169" stroke="#443832" stroke-width="3"/>
<line x1="31.6297" y1="86.2699" x2="36.0292" y2="76.3884" stroke="#443832" stroke-width="3"/>
<line x1="17.183" y1="70.6332" x2="26.2547" y2="64.742" stroke="#443832" stroke-width="3"/>
<line x1="27.2714" y1="38.7699" x2="17.3899" y2="34.3703" stroke="#443832" stroke-width="3"/>
<line x1="35.6332" y1="28.8886" x2="29.742" y2="19.817" stroke="#443832" stroke-width="3"/>
<line x1="51.5" y1="24.8167" x2="51.5" y2="14" stroke="#443832" stroke-width="3"/>
</symbol>

  <!--Orange-->
<symbol id="icon-orange" viewBox="0 0 102 100">
<path d="M101.5 50.2289C101.5 77.4292 78.9019 99.5 51 99.5C23.0981 99.5 0.5 77.4292 0.5 50.2289C0.5 23.0287 23.0981 0.957825 51 0.957825C78.9019 0.957825 101.5 23.0287 101.5 50.2289Z" fill="#EAA656" stroke="#F2F3F1"/>
<path d="M64.157 20.8637C63.6421 22.7856 61.1179 23.9847 58.3145 23.2335C55.5111 22.4824 53.9246 20.1818 54.4396 18.2599C54.9546 16.3381 57.4787 15.139 60.2821 15.8902C63.0855 16.6413 64.672 18.9418 64.157 20.8637Z" fill="#443832" stroke="white"/>
<path fill-rule="evenodd" clip-rule="evenodd" d="M33.6942 65.1586C33.4426 65.5662 33.2209 65.9933 33.0323 66.439C30.6841 71.9865 34.3384 78.2999 41.1944 80.5404C48.0505 82.7809 55.512 80.1001 57.8602 74.5525C58.0526 74.0981 58.2046 73.6386 58.318 73.1766L33.6942 65.1586Z" fill="black"/>
<path fill-rule="evenodd" clip-rule="evenodd" d="M56 77.2742L32.0524 69C32.0503 69.0036 32.0482 69.0072 32.0461 69.0108C31.5538 74.0764 35.0421 79.1638 40.8161 81.166C46.6058 83.1736 52.8301 81.4329 56 77.2742Z" fill="#F5B9C8"/>
<ellipse cx="64" cy="69.5" rx="6" ry="5.5" fill="black"/>
<ellipse cx="29" cy="59.5" rx="6" ry="5.5" fill="black"/>
</symbol>

  <!--Peach-->
<symbol id="icon-peach" viewBox="0 0 154 196">
<path d="M142.197 136.829C136.512 169.133 114.5 178 88.4958 187.651C64.5224 183.415 49.6966 153.795 55.3814 121.491C61.0662 89.1873 85.1089 66.4335 109.082 70.669C133.056 74.9045 147.882 104.525 142.197 136.829Z" fill="white"/>
<path d="M97.1086 121.831C102.793 154.135 87.9676 183.755 63.9942 187.991C39 182 15.978 169.473 10.2932 137.169C4.60844 104.865 19.4343 75.2447 43.4077 71.0092C67.3811 66.7737 91.4238 89.5274 97.1086 121.831Z" fill="white"/>
<path d="M141.334 136.719C135.724 168.536 112 177 88.3367 186.776C64.6773 182.604 50.0456 153.429 55.656 121.611C61.2663 89.7934 84.9941 67.3819 108.654 71.5537C132.313 75.7255 146.945 104.901 141.334 136.719Z" fill="#E89D73"/>
<path d="M96.8367 121.946C102.447 153.764 87.8154 182.939 64.156 187.111C36 178 16.7688 168.872 11.1584 137.054C5.54808 105.236 20.1797 76.0605 43.8391 71.8887C67.4985 67.717 91.2264 90.1285 96.8367 121.946Z" fill="#E89D73"/>
<path fill-rule="evenodd" clip-rule="evenodd" d="M61.3538 147.463C61.2162 147.922 61.1127 148.392 61.0458 148.872C60.2134 154.838 65.3773 159.99 72.5796 160.38C79.7819 160.77 86.2953 156.249 87.1277 150.283C87.1959 149.794 87.2239 149.311 87.2138 148.835L61.3538 147.463Z" fill="black"/>
<path fill-rule="evenodd" clip-rule="evenodd" d="M86.0353 153.393L60.7621 151.599C60.761 151.603 60.7599 151.607 60.7589 151.611C61.5944 156.631 66.2806 160.643 72.3761 161.082C78.4881 161.523 84.0498 158.23 86.0353 153.393Z" fill="#F5B9C8"/>
<ellipse cx="91.7506" cy="143.813" rx="6" ry="5.5" transform="rotate(-15 91.7506 143.813)" fill="black"/>
<ellipse cx="55.355" cy="143.213" rx="6" ry="5.5" transform="rotate(-15 55.355 143.213)" fill="black"/>
<path d="M75.5 81.6403C55.7905 83.2409 43.6218 98.3132 43.5 118.64" stroke="white" stroke-width="2"/>
<path d="M86.2527 54.25C86.5961 54.7293 86.8825 55.1313 87.106 55.446C86.9821 55.4439 86.8471 55.4415 86.7015 55.4386C85.8112 55.4211 84.5231 55.3873 82.9335 55.3218C79.7539 55.1908 75.3706 54.9334 70.5553 54.4279C60.8958 53.414 49.599 51.4105 42.7516 47.487C36.1152 43.6843 35.4478 35.7957 37.5182 28.2765C38.5471 24.5395 40.2407 20.9587 42.1435 18.1412C44.0607 15.3025 46.1372 13.3167 47.8976 12.6556C48.241 12.5266 48.6999 12.5206 49.2995 12.6879C49.8976 12.8548 50.5964 13.1837 51.3871 13.6704C52.9684 14.6437 54.8433 16.2019 56.9046 18.1773C61.023 22.1238 65.8132 27.665 70.3768 33.3109C74.9377 38.9535 79.2615 44.6872 82.4457 49.0113C84.0376 51.173 85.3442 52.9818 86.2527 54.25Z" fill="#425B28" stroke="white"/>
<path d="M153.47 26.5C153.47 30.399 150.528 33.5 146.97 33.5C143.412 33.5 140.47 30.399 140.47 26.5C140.47 22.601 143.412 19.5 146.97 19.5C150.528 19.5 153.47 22.601 153.47 26.5Z" fill="#443832" stroke="white"/>
<path d="M83.1637 87.3294C82.8783 88.3945 81.7598 89.2525 79.9335 89.666C78.1327 90.0738 75.7774 90.0089 73.3057 89.3467C70.834 88.6844 68.7618 87.5629 67.4062 86.3093C66.0313 85.0381 65.4917 83.7358 65.7771 82.6706C66.0625 81.6055 67.181 80.7475 69.0073 80.334C70.8081 79.9262 73.1634 79.991 75.6351 80.6533C78.1068 81.3156 80.179 82.4371 81.5346 83.6907C82.9095 84.9619 83.4491 86.2642 83.1637 87.3294Z" fill="#443832" stroke="white"/>
<path d="M74.6923 83.959C74.6923 83.959 80.5944 57.2562 93.0944 38.7562C105.594 20.2562 142.594 26.2562 142.594 26.2562" stroke="white" stroke-width="10"/>
<path d="M74.6923 83.959C74.6923 83.959 80.5944 57.2562 93.0944 38.7562C105.594 20.2562 142.594 26.2562 142.594 26.2562" stroke="#443832" stroke-width="8"/>
</symbol>

  <!--Pear-->
<symbol id="icon-pear" viewBox="0 0 109 183">
<path d="M55.3106 44.5792L55.6356 44.825L55.9419 44.5564C58.508 42.3062 61.1997 41.5035 63.9608 41.8461C66.7445 42.1915 69.6568 43.7087 72.618 46.216C78.5439 51.2336 84.5151 60.0872 89.8472 70.7681C100.509 92.124 108.5 120.547 108.5 139.5C108.5 158.412 101.669 168.898 91.729 174.699C81.7323 180.532 68.5059 181.68 55.6122 181.68C42.7202 181.68 28.9309 180.533 18.3733 174.693C13.1061 171.78 8.64608 167.699 5.49899 162.004C2.35031 156.305 0.500008 148.962 0.500008 139.5C0.500008 120.543 8.20066 92.1209 18.9908 70.7703C24.3874 60.0919 30.5279 51.2418 36.8154 46.2253C39.9556 43.7199 43.1026 42.1946 46.1878 41.8467C49.2584 41.5005 52.3165 42.3146 55.3106 44.5792Z" fill="#9ADE65" stroke="white"/>
<path d="M55.2475 41.9866C55.4138 42.2187 55.5613 42.4254 55.6886 42.6042C55.6881 42.6042 55.6875 42.6042 55.6869 42.6042C55.0544 42.5918 54.1388 42.5677 53.0089 42.5211C50.7487 42.428 47.633 42.2451 44.2105 41.8858C37.3368 41.1642 29.3268 39.7403 24.4839 36.9653C19.8519 34.3112 19.3591 28.7927 20.8274 23.4599C21.5554 20.8161 22.7538 18.2825 24.099 16.2907C25.4585 14.2777 26.915 12.896 28.1244 12.4418C28.3302 12.3645 28.623 12.3544 29.0325 12.4687C29.4403 12.5825 29.9248 12.8093 30.481 13.1517C31.5933 13.8363 32.9188 14.9369 34.3828 16.3398C37.3064 19.1414 40.7102 23.0785 43.9563 27.0944C47.1997 31.107 50.2748 35.1849 52.5398 38.2606C53.672 39.7982 54.6014 41.0847 55.2475 41.9866Z" fill="#425B28" stroke="white"/>
<path d="M93.4148 12.5C93.4148 16.399 90.4727 19.5 86.9148 19.5C83.3569 19.5 80.4148 16.399 80.4148 12.5C80.4148 8.60096 83.3569 5.5 86.9148 5.5C90.4727 5.5 93.4148 8.60096 93.4148 12.5Z" fill="#443832" stroke="white"/>
<path d="M62.0785 51.3294C61.7931 52.3945 60.6745 53.2525 58.8483 53.666C57.0474 54.0738 54.6921 54.009 52.2204 53.3467C49.7488 52.6844 47.6766 51.5629 46.3209 50.3093C44.9461 49.0381 44.4064 47.7358 44.6918 46.6706C44.9772 45.6055 46.0957 44.7475 47.922 44.334C49.7228 43.9262 52.0781 43.991 54.5498 44.6533C57.0215 45.3156 59.0937 46.4371 60.4494 47.6907C61.8242 48.9619 62.3639 50.2642 62.0785 51.3294Z" fill="#443832" stroke="white"/>
<path d="M54.0515 46.6788C54.0515 46.6788 56.5629 30.4824 61.8817 19.2614C67.2005 8.04045 82.9443 11.6797 82.9443 11.6797" stroke="white" stroke-width="10"/>
<path d="M54.0515 46.6788C54.0515 46.6788 56.5629 30.4824 61.8817 19.2614C67.2005 8.04045 82.9443 11.6797 82.9443 11.6797" stroke="#443832" stroke-width="8"/>
<path fill-rule="evenodd" clip-rule="evenodd" d="M43.1327 132.175C42.9951 132.634 42.8916 133.104 42.8247 133.583C41.9923 139.549 47.1561 144.702 54.3585 145.092C61.5608 145.481 68.0742 140.961 68.9066 134.994C68.9748 134.506 69.0027 134.022 68.9926 133.547L43.1327 132.175Z" fill="black"/>
<path fill-rule="evenodd" clip-rule="evenodd" d="M67.8142 138.105L42.541 136.31C42.5399 136.315 42.5388 136.319 42.5377 136.323C43.3733 141.343 48.0595 145.354 54.1549 145.794C60.267 146.234 65.8287 142.942 67.8142 138.105Z" fill="#F5B9C8"/>
<ellipse cx="73.5294" cy="128.525" rx="6" ry="5.5" transform="rotate(-15 73.5294 128.525)" fill="black"/>
<ellipse cx="37.1339" cy="127.924" rx="6" ry="5.5" transform="rotate(-15 37.1339 127.924)" fill="black"/>
</symbol>

  <!--Pineapple-->
<symbol id="icon-pineapple" viewBox="0 0 108 182">
<path d="M17.013 51.7785C13.7542 48.1362 13.3519 42.3493 13.8236 37.3414C14.0576 34.8571 14.5025 32.6054 14.8895 30.9739C15.0828 30.1586 15.2614 29.4996 15.3912 29.0455C15.4465 28.8522 15.4929 28.6961 15.5279 28.5809C15.6701 28.5316 15.8751 28.4618 16.1353 28.3762C16.677 28.1982 17.4578 27.9523 18.4114 27.6818C20.3202 27.1405 22.9136 26.503 25.662 26.1139C28.4157 25.7241 31.2959 25.588 33.7893 26.0306C36.2834 26.4733 38.3237 27.4813 39.5097 29.3211C40.7667 31.2712 42.6206 35.5898 44.7063 41.0302C46.7844 46.451 49.0735 52.9326 51.2026 59.1682C53.3316 65.403 55.2994 71.3882 56.7351 75.815C57.453 78.0283 58.0377 79.8518 58.4429 81.1218C58.5196 81.3619 58.5897 81.5822 58.6532 81.7817C58.5306 81.7021 58.3991 81.6167 58.259 81.5257C57.2594 80.8762 55.8238 79.9397 54.0796 78.7921C50.5911 76.4967 45.8692 73.3572 40.9348 69.98C35.9998 66.6024 30.8555 62.9892 26.5211 59.7462C22.1736 56.4934 18.6793 53.6409 17.013 51.7785Z" fill="#425B28" stroke="white"/>
<path d="M24.0036 28.809C22.1871 24.2718 23.7883 18.6963 25.9443 14.1517C27.0139 11.8973 28.2021 9.93358 29.1238 8.53276C29.5843 7.83283 29.9775 7.27463 30.2548 6.89227C30.3729 6.72956 30.4699 6.59875 30.5422 6.50247C30.6927 6.50478 30.9091 6.50926 31.1829 6.51789C31.7528 6.53585 32.5707 6.57182 33.5593 6.64382C35.5381 6.78795 38.1931 7.07594 40.9089 7.65035C43.6298 8.22586 46.3829 9.08302 48.5745 10.3517C50.7668 11.6208 52.3393 13.2658 52.8245 15.4003C53.3387 17.6627 53.6037 22.3549 53.7029 28.1806C53.8017 33.9853 53.7359 40.8589 53.604 47.4466C53.4721 54.0336 53.2742 60.3309 53.1093 64.9817C53.0268 67.307 52.9526 69.2205 52.899 70.5526C52.8889 70.8044 52.8795 71.0355 52.8709 71.2446C52.7829 71.1279 52.6885 71.0026 52.588 70.8692C51.8709 69.917 50.8421 68.546 49.5957 66.871C47.1026 63.5209 43.7392 58.9558 40.2575 54.0946C36.7753 49.2327 33.1771 44.0781 30.2132 39.5482C27.2404 35.0046 24.9325 31.129 24.0036 28.809Z" fill="#425B28" stroke="white"/>
<path d="M45.4136 21.217C45.6848 16.3372 49.4923 11.9608 53.3669 8.7532C55.289 7.16201 57.1959 5.88443 58.6232 5.00436C59.3364 4.56464 59.9286 4.22489 60.3416 3.99558C60.5173 3.898 60.6605 3.82044 60.7667 3.76373C60.9021 3.82943 61.0964 3.92496 61.3409 4.04851C61.8498 4.30562 62.5759 4.68387 63.4414 5.16692C65.1739 6.13383 67.4585 7.51691 69.677 9.18523C71.8998 10.8567 74.0327 12.7971 75.4828 14.8731C76.9334 16.9498 77.6633 19.1052 77.201 21.2448C76.7109 23.5126 74.968 27.8772 72.5959 33.1989C70.2323 38.5015 67.2677 44.7033 64.364 50.6181C61.4607 56.5321 58.6201 62.1558 56.5051 66.3012C55.4476 68.3738 54.5717 70.0767 53.9602 71.2613C53.8446 71.4852 53.7384 71.6907 53.6423 71.8765C53.6118 71.7336 53.5792 71.5802 53.5445 71.4168C53.297 70.2507 52.944 68.5734 52.5222 66.5286C51.6785 62.4387 50.5596 56.8799 49.4585 51.0027C48.3573 45.1247 47.2746 38.9324 46.5029 33.5743C45.7288 28.2001 45.275 23.7122 45.4136 21.217Z" fill="#425B28" stroke="white"/>
<path d="M65.618 30.5213C68.6391 26.6796 74.2682 25.2786 79.2819 24.8734C81.7691 24.6725 84.0639 24.7197 85.7379 24.8174C86.5743 24.8663 87.2543 24.9277 87.7241 24.9767C87.924 24.9976 88.0858 25.0162 88.2053 25.0306C88.2786 25.1621 88.3829 25.3518 88.5124 25.5933C88.7817 26.0958 89.1595 26.8221 89.5915 27.7142C90.4561 29.5 91.5342 31.9433 92.3946 34.5824C93.2567 37.2266 93.8908 40.0394 93.888 42.5718C93.8851 45.1048 93.2467 47.2892 91.6407 48.7766C89.9385 50.3532 86.0075 52.9288 81.0119 55.9275C76.0343 58.9154 70.0487 62.2952 64.2775 65.4748C58.5071 68.6541 52.9546 71.6313 48.8444 73.8139C46.7894 74.9052 45.0951 75.7977 43.9147 76.4173C43.6916 76.5345 43.4868 76.6418 43.3014 76.739C43.3585 76.6044 43.4197 76.4601 43.4851 76.3063C43.9511 75.2092 44.6241 73.6327 45.4514 71.7157C47.1061 67.8816 49.378 62.6863 51.847 57.2404C54.3164 51.7938 56.9813 46.1003 59.4224 41.2687C61.8709 36.4223 64.0732 32.4858 65.618 30.5213Z" fill="#425B28" stroke="white"/>
<path d="M54.9986 35.1331C56.0691 31.8734 59.4585 29.5767 62.7238 28.0804C64.3384 27.3405 65.8856 26.8131 67.0302 26.4706C67.6019 26.2995 68.0718 26.175 68.3977 26.0935C68.5003 26.0678 68.5887 26.0464 68.6613 26.0292C68.7368 26.0949 68.8335 26.18 68.9487 26.2831C69.2514 26.5538 69.6815 26.9481 70.1884 27.4405C71.2034 28.4263 72.5208 29.7997 73.7393 31.3561C74.9611 32.9167 76.0651 34.6383 76.6753 36.3207C77.2858 38.0038 77.3804 39.583 76.69 40.9266C75.9397 42.3869 73.9381 45.0677 71.3122 48.3075C68.6996 51.5311 65.505 55.265 62.4048 58.8129C59.3052 62.3602 56.3024 65.7186 54.0744 68.1904C52.9605 69.4262 52.0403 70.4403 51.3988 71.1453C51.3767 71.1695 51.355 71.1933 51.3337 71.2168C51.3785 70.3687 51.444 69.1682 51.5289 67.7139C51.7031 64.733 51.959 60.6868 52.2862 56.4242C52.6134 52.1608 53.0115 47.6849 53.4698 43.8436C53.9301 39.986 54.446 36.8157 54.9986 35.1331Z" fill="#425B28" stroke="white"/>
<path d="M31.0545 44.2593C29.7793 41.074 30.8993 37.136 32.4389 33.8909C33.2002 32.2862 34.0464 30.8877 34.703 29.8896C35.0311 29.3911 35.311 28.9937 35.5082 28.7217C35.5704 28.6361 35.6243 28.5629 35.6689 28.503C35.7689 28.5048 35.8977 28.5079 36.0522 28.5127C36.4581 28.5255 37.041 28.5511 37.7458 28.6025C39.157 28.7053 41.049 28.9106 42.9829 29.3196C44.922 29.7297 46.8743 30.3388 48.4232 31.2355C49.9727 32.1324 51.0603 33.2813 51.3951 34.7543C51.759 36.3553 51.9488 39.6955 52.0198 43.8652C52.0904 48.014 52.0434 52.9277 51.9491 57.6383C51.8547 62.3481 51.7133 66.851 51.5953 70.1766C51.5364 71.8393 51.4833 73.2076 51.445 74.1601C51.4437 74.1928 51.4424 74.225 51.4411 74.2567C50.9303 73.5783 50.2088 72.6165 49.3391 71.4478C47.5565 69.0524 45.1517 65.7883 42.6623 62.3127C40.1725 58.8364 37.6004 55.1518 35.4824 51.9145C33.3554 48.6636 31.7127 45.9033 31.0545 44.2593Z" fill="#425B28" stroke="white"/>
<path d="M107.5 119.5C107.5 136.734 105.124 152.228 97.2782 163.407C89.4598 174.548 76.1371 181.5 54 181.5C34.3817 181.5 21.0401 174.559 12.5861 163.392C4.11451 152.202 0.5 136.701 0.5 119.5C0.5 102.303 4.23818 86.8005 12.7726 75.609C21.2902 64.4396 34.6335 57.5 54 57.5C73.3665 57.5 86.7098 64.4396 95.2274 75.609C103.762 86.8005 107.5 102.303 107.5 119.5Z" fill="#F5D253" stroke="white"/>
<path fill-rule="evenodd" clip-rule="evenodd" d="M42.2179 151.175C42.0803 151.634 41.9768 152.104 41.9099 152.583C41.0775 158.549 46.2414 163.702 53.4437 164.092C60.646 164.481 67.1594 159.96 67.9918 153.994C68.06 153.506 68.0879 153.022 68.0778 152.547L42.2179 151.175Z" fill="black"/>
<path fill-rule="evenodd" clip-rule="evenodd" d="M66.8994 157.105L41.6262 155.31C41.6251 155.314 41.624 155.319 41.6229 155.323C42.4585 160.343 47.1447 164.354 53.2401 164.794C59.3522 165.234 64.9139 161.942 66.8994 157.105Z" fill="#F5B9C8"/>
<ellipse cx="72.6146" cy="147.525" rx="6" ry="5.5" transform="rotate(-15 72.6146 147.525)" fill="black"/>
<ellipse cx="36.2191" cy="146.924" rx="6" ry="5.5" transform="rotate(-15 36.2191 146.924)" fill="black"/>
<line x1="71.7682" y1="113.36" x2="81.7682" y2="125.36" stroke="black" stroke-width="2"/>
<line x1="80.234" y1="125.323" x2="90.2746" y2="113.357" stroke="black" stroke-width="2"/>
<line x1="64.7682" y1="84.3598" x2="74.7682" y2="96.3598" stroke="black" stroke-width="2"/>
<line x1="73.234" y1="96.3232" x2="83.2746" y2="84.3572" stroke="black" stroke-width="2"/>
<line x1="46.7682" y1="101.36" x2="56.7682" y2="113.36" stroke="black" stroke-width="2"/>
<line x1="55.234" y1="113.323" x2="65.2746" y2="101.357" stroke="black" stroke-width="2"/>
<line x1="24.7682" y1="88.3598" x2="34.7682" y2="100.36" stroke="black" stroke-width="2"/>
<line x1="33.234" y1="100.323" x2="43.2746" y2="88.3572" stroke="black" stroke-width="2"/>
<line x1="41.7682" y1="71.3598" x2="51.7682" y2="83.3598" stroke="black" stroke-width="2"/>
<line x1="50.234" y1="83.3232" x2="60.2746" y2="71.3572" stroke="black" stroke-width="2"/>
</symbol>

  <!--Raspberry-->
<symbol id="icon-raspberry" viewBox="0 0 108 147">
<path fill-rule="evenodd" clip-rule="evenodd" d="M63.167 59.6821C63.1601 59.3823 63.1409 59.0855 63.1098 58.7922C63.4071 58.8992 63.7105 58.9935 64.0194 59.0743C63.7251 59.2632 63.4406 59.4661 63.167 59.6821ZM38.4192 97.0709C38.1757 98.08 37.7891 99.0332 37.2819 99.908C37.5746 100.176 37.8523 100.46 38.1137 100.759C38.5049 99.3995 39.1587 98.1511 40.0166 97.0722C39.7557 97.0912 39.4922 97.1009 39.2264 97.1009C38.9549 97.1009 38.6856 97.0908 38.4192 97.0709ZM41.9499 57.9875C41.7299 58.5069 41.4699 59.0052 41.1739 59.4788C41.376 59.458 41.5797 59.4428 41.785 59.4334C41.8075 58.9421 41.8632 58.4594 41.9499 57.9875ZM40.3392 110.755C40.591 111.043 40.858 111.317 41.139 111.576C40.7299 111.66 40.3293 111.768 39.9387 111.897C40.0929 111.526 40.2268 111.145 40.3392 110.755ZM64.3391 126.278C64.8364 125.124 65.1363 123.865 65.1964 122.544C65.5179 122.697 65.8483 122.834 66.1865 122.955C65.4568 123.973 64.9012 125.123 64.5634 126.363C64.5137 126.344 64.4639 126.324 64.4139 126.306L64.3714 126.29L64.3391 126.278ZM78.872 107.228C78.9833 107.406 79.0895 107.587 79.1904 107.772C79.392 107.602 79.6001 107.438 79.8141 107.283C79.4965 107.278 79.1823 107.26 78.872 107.228ZM42.8912 55.1677C42.7936 55.3634 42.7018 55.5625 42.6161 55.7648C42.6602 55.5247 42.6963 55.2818 42.7241 55.0364C42.7794 55.0807 42.8351 55.1245 42.8912 55.1677ZM79.8604 71.7021C80.2349 71.6625 80.6151 71.6422 81 71.6422C81.175 71.6422 81.349 71.6464 81.5219 71.6547C81.5136 71.4819 81.5094 71.3079 81.5094 71.133C81.5094 70.9581 81.5136 70.7842 81.5219 70.6113C81.349 70.6197 81.175 70.6239 81 70.6239C80.7284 70.6239 80.4592 70.6137 80.1927 70.5939C80.1016 70.9715 79.9905 71.3413 79.8604 71.7021ZM20.3847 70.5145L20.3185 70.5238C20.3434 70.5747 20.3678 70.6259 20.3919 70.6772C20.3891 70.6231 20.3867 70.5689 20.3847 70.5145ZM86.0943 126.633C85.8177 126.633 85.5435 126.623 85.2722 126.602C85.4765 127.427 85.5849 128.29 85.5849 129.179C85.5849 135.084 80.7952 139.872 74.8868 139.872C73.4952 139.872 72.1656 139.606 70.946 139.123C69.7097 143.662 65.5561 147 60.6226 147C56.7311 147 53.3248 144.923 51.4528 141.818C49.5808 144.923 46.1746 147 42.283 147C36.3746 147 31.5849 142.213 31.5849 136.307C31.5849 136.274 31.5851 136.241 31.5854 136.208C30.4699 136.602 29.2694 136.817 28.0189 136.817C22.1105 136.817 17.3208 132.029 17.3208 126.124C17.3208 123.611 18.1878 121.301 19.6393 119.476C19.3784 119.495 19.1148 119.505 18.8491 119.505C12.9407 119.505 8.15094 114.717 8.15094 108.812C8.15094 106.741 8.73986 104.808 9.75941 103.17C4.29062 102.695 0 98.1076 0 92.5183C0 88.9591 1.73995 85.806 4.41609 83.8624C1.73995 81.9188 0 78.7657 0 75.2064C0 69.7993 4.01554 65.3296 9.22865 64.6138C8.53832 63.1996 8.15094 61.6106 8.15094 59.9312C8.15094 54.0258 12.9407 49.2385 18.8491 49.2385C20.0159 49.2385 21.1392 49.4253 22.1905 49.7704C23.7877 45.8735 27.6203 43.1284 32.0943 43.1284C34.6264 43.1284 36.9531 44.0077 38.7853 45.4774C39.389 40.1442 43.9178 36 49.4151 36C53.4615 36 56.9832 38.2453 58.801 41.5574C60.7586 39.3951 63.5885 38.0367 66.7359 38.0367C72.6443 38.0367 77.434 42.824 77.434 48.7294C77.434 49.1141 77.4136 49.4941 77.374 49.8684C78.5063 49.4607 79.7272 49.2385 81 49.2385C86.9084 49.2385 91.6981 54.0258 91.6981 59.9312C91.6981 60.1061 91.6939 60.28 91.6856 60.4529C91.8585 60.4446 92.0326 60.4404 92.2076 60.4404C98.116 60.4404 102.906 65.2276 102.906 71.133C102.906 73.1072 102.37 74.9564 101.437 76.5436C105.292 78.1599 108 81.968 108 86.4083C108 91.0075 105.095 94.9286 101.018 96.4381C101.577 97.7346 101.887 99.1637 101.887 100.665C101.887 105.105 99.179 108.913 95.3237 110.53C96.2572 112.117 96.7925 113.966 96.7925 115.94C96.7925 121.846 92.0027 126.633 86.0943 126.633Z" fill="white"/>
<path d="M97 87C97 113.786 75.8167 140.5 52.6207 140.5C29.4248 140.5 9 113.786 9 87C9 60.2142 29.4248 43.5 52.6207 43.5C75.8167 43.5 97 60.2142 97 87Z" fill="#71417C"/>
<circle cx="91.5" cy="71.5" r="10.25" fill="#B4306F" stroke="white" stroke-width="0.5"/>
<circle cx="96.5" cy="86.5" r="10.25" fill="#B4306F" stroke="white" stroke-width="0.5"/>
<circle cx="80.5" cy="82.5" r="10.25" fill="#B4306F" stroke="white" stroke-width="0.5"/>
<circle cx="80.5" cy="60.5" r="10.25" fill="#B4306F" stroke="white" stroke-width="0.5"/>
<circle cx="90.5" cy="100.5" r="10.25" fill="#B4306F" stroke="white" stroke-width="0.5"/>
<circle cx="11.5" cy="75.5" r="10.25" fill="#B4306F" stroke="white" stroke-width="0.5"/>
<circle cx="19.5" cy="60.5" r="10.25" fill="#B4306F" stroke="white" stroke-width="0.5"/>
<circle cx="11.5" cy="92.5" r="10.25" fill="#B4306F" stroke="white" stroke-width="0.5"/>
<circle cx="21.5" cy="82.5" r="10.25" fill="#B4306F" stroke="white" stroke-width="0.5"/>
<circle cx="32.5" cy="54.5" r="10.25" fill="#B4306F" stroke="white" stroke-width="0.5"/>
<circle cx="49.5" cy="47.5" r="10.25" fill="#B4306F" stroke="white" stroke-width="0.5"/>
<circle cx="66.5" cy="49.5" r="10.25" fill="#B4306F" stroke="white" stroke-width="0.5"/>
<circle cx="19.5" cy="108.5" r="10.25" fill="#B4306F" stroke="white" stroke-width="0.5"/>
<circle cx="28.5" cy="125.5" r="10.25" fill="#B4306F" stroke="white" stroke-width="0.5"/>
<circle cx="60.5" cy="135.5" r="10.25" fill="#B4306F" stroke="white" stroke-width="0.5"/>
<circle cx="85.5" cy="115.5" r="10.25" fill="#B4306F" stroke="white" stroke-width="0.5"/>
<circle cx="42.5" cy="135.5" r="10.25" fill="#B4306F" stroke="white" stroke-width="0.5"/>
<circle cx="74.5" cy="128.5" r="10.25" fill="#B4306F" stroke="white" stroke-width="0.5"/>
<circle cx="43.5" cy="121.5" r="10.25" fill="#B4306F" stroke="white" stroke-width="0.5"/>
<circle cx="69.5" cy="112.5" r="10.25" fill="#B4306F" stroke="white" stroke-width="0.5"/>
<circle cx="31.5" cy="70.5" r="10.25" fill="#B4306F" stroke="white" stroke-width="0.5"/>
<circle cx="30.5" cy="107.5" r="10.25" fill="#B4306F" stroke="white" stroke-width="0.5"/>
<circle cx="69.5" cy="68.5" r="10.25" fill="#B4306F" stroke="white" stroke-width="0.5"/>
<circle cx="52.5" cy="60.5" r="10.25" fill="#B4306F" stroke="white" stroke-width="0.5"/>
<circle cx="79.5" cy="96.5" r="10.25" fill="#B4306F" stroke="white" stroke-width="0.5"/>
<circle cx="54.5" cy="121.5" r="10.25" fill="#B4306F" stroke="white" stroke-width="0.5"/>
<circle cx="28.5" cy="94.5" r="10.25" fill="#B4306F" stroke="white" stroke-width="0.5"/>
<circle cx="48.5" cy="103.5" r="10.25" fill="#B4306F" stroke="white" stroke-width="0.5"/>
<circle cx="62.5" cy="98.5" r="10.25" fill="#B4306F" stroke="white" stroke-width="0.5"/>
<circle cx="42.5" cy="70.5" r="10.25" fill="#B4306F" stroke="white" stroke-width="0.5"/>
<circle cx="39.5" cy="86.5" r="10.25" fill="#B4306F" stroke="white" stroke-width="0.5"/>
<circle cx="55.5" cy="78.5" r="10.25" fill="#B4306F" stroke="white" stroke-width="0.5"/>
<circle cx="68.5" cy="81.5" r="10.25" fill="#B4306F" stroke="white" stroke-width="0.5"/>
<circle cx="51.5" cy="93.5" r="10.25" fill="#B4306F" stroke="white" stroke-width="0.5"/>
<circle cx="56.5" cy="112.5" r="10.25" fill="#B4306F" stroke="white" stroke-width="0.5"/>
<ellipse cx="52.8157" cy="35.2083" rx="11.1842" ry="11.2083" fill="white"/>
<ellipse cx="47.4473" cy="61.2117" rx="11.1842" ry="11.2083" fill="white"/>
<ellipse cx="69.8158" cy="45.9683" rx="11.1842" ry="11.2083" fill="white"/>
<ellipse cx="63.5526" cy="61.2117" rx="11.1842" ry="11.2083" fill="white"/>
<ellipse cx="41.1842" cy="45.9683" rx="11.1842" ry="11.2083" fill="white"/>
<ellipse cx="55.5" cy="50.4517" rx="7.60526" ry="6.725" fill="white"/>
<circle cx="52.921" cy="35.7456" r="10.7456" fill="#425B28"/>
<circle cx="47.7631" cy="60.6754" r="10.7456" fill="#425B28"/>
<circle cx="69.2544" cy="46.0614" r="10.7456" fill="#425B28"/>
<circle cx="63.2368" cy="60.6754" r="10.7456" fill="#425B28"/>
<circle cx="41.7456" cy="46.0614" r="10.7456" fill="#425B28"/>
<path d="M94.5 12.5C94.5 16.399 91.5579 19.5 88 19.5C84.4421 19.5 81.5 16.399 81.5 12.5C81.5 8.60092 84.4421 5.49997 88 5.49997C91.5579 5.49997 94.5 8.60092 94.5 12.5Z" fill="#443832" stroke="white"/>
<path d="M63.1637 51.3294C62.8783 52.3945 61.7598 53.2525 59.9335 53.666C58.1327 54.0738 55.7774 54.009 53.3057 53.3467C50.834 52.6844 48.7618 51.5629 47.4062 50.3094C46.0313 49.0381 45.4917 47.7358 45.7771 46.6706C46.0625 45.6055 47.181 44.7475 49.0073 44.334C50.8081 43.9262 53.1634 43.9911 55.6351 44.6534C58.1068 45.3156 60.179 46.4371 61.5346 47.6907C62.9095 48.9619 63.4491 50.2642 63.1637 51.3294Z" fill="#443832" stroke="white"/>
<path d="M55.1367 46.6788C55.1367 46.6788 57.6481 30.4824 62.967 19.2614C68.2858 8.04045 84.0296 11.6797 84.0296 11.6797" stroke="white" stroke-width="10"/>
<path d="M55.1367 46.6788C55.1367 46.6788 57.6481 30.4824 62.967 19.2614C68.2858 8.04045 84.0296 11.6797 84.0296 11.6797" stroke="#443832" stroke-width="8"/>
<path fill-rule="evenodd" clip-rule="evenodd" d="M40.2179 112.175C40.0803 112.634 39.9768 113.104 39.9099 113.583C39.0775 119.549 44.2414 124.702 51.4437 125.092C58.646 125.481 65.1594 120.96 65.9918 114.994C66.06 114.506 66.0879 114.022 66.0778 113.547L40.2179 112.175Z" fill="black"/>
<path fill-rule="evenodd" clip-rule="evenodd" d="M64.8994 118.105L39.6262 116.31C39.6251 116.314 39.624 116.319 39.6229 116.323C40.4585 121.343 45.1447 125.354 51.2401 125.794C57.3522 126.234 62.9139 122.942 64.8994 118.105Z" fill="#F5B9C8"/>
<ellipse cx="70.6146" cy="108.525" rx="6" ry="5.5" transform="rotate(-15 70.6146 108.525)" fill="black"/>
<ellipse cx="34.2191" cy="107.924" rx="6" ry="5.5" transform="rotate(-15 34.2191 107.924)" fill="black"/>
</symbol>

  <!--Strawberry-->
<symbol id="icon-strawberry" viewBox="0 0 98 138">
<path d="M97.5 71C97.5 84.2541 90.8554 100.904 81.292 114.254C76.5149 120.922 71.026 126.743 65.3047 130.893C59.5793 135.046 53.6564 137.5 48 137.5C42.3456 137.5 36.5495 135.048 31.0141 130.898C25.4818 126.751 20.2429 120.932 15.7152 114.264C6.65232 100.917 0.5 84.2641 0.5 71C0.5 64.383 2.03083 59.26 4.65524 55.2879C7.28038 51.3146 11.024 48.4564 15.509 46.4102C24.5017 42.3077 36.4035 41.5 48 41.5C59.5947 41.5 72.0025 42.307 81.5 46.4142C86.2392 48.4637 90.2317 51.3259 93.0411 55.3008C95.8482 59.2723 97.5 64.3909 97.5 71Z" fill="#C24141" stroke="white"/>
<path fill-rule="evenodd" clip-rule="evenodd" d="M37.2179 106.175C37.0803 106.634 36.9768 107.104 36.9099 107.583C36.0775 113.549 41.2414 118.702 48.4437 119.092C55.646 119.481 62.1594 114.96 62.9918 108.994C63.06 108.506 63.0879 108.022 63.0778 107.547L37.2179 106.175Z" fill="black"/>
<path fill-rule="evenodd" clip-rule="evenodd" d="M61.8994 112.105L36.6262 110.31C36.6251 110.314 36.624 110.319 36.6229 110.323C37.4585 115.343 42.1447 119.354 48.2401 119.794C54.3522 120.234 59.9139 116.942 61.8994 112.105Z" fill="#F5B9C8"/>
<ellipse cx="67.6146" cy="102.525" rx="6" ry="5.5" transform="rotate(-15 67.6146 102.525)" fill="black"/>
<ellipse cx="31.2191" cy="101.924" rx="6" ry="5.5" transform="rotate(-15 31.2191 101.924)" fill="black"/>
<ellipse cx="47.8157" cy="35.2083" rx="11.1842" ry="11.2083" fill="white"/>
<ellipse cx="42.4473" cy="61.2117" rx="11.1842" ry="11.2083" fill="white"/>
<ellipse cx="64.8158" cy="45.9683" rx="11.1842" ry="11.2083" fill="white"/>
<ellipse cx="58.5526" cy="61.2117" rx="11.1842" ry="11.2083" fill="white"/>
<ellipse cx="36.1842" cy="45.9683" rx="11.1842" ry="11.2083" fill="white"/>
<ellipse cx="50.5" cy="50.4517" rx="7.60526" ry="6.725" fill="white"/>
<circle cx="47.921" cy="35.7456" r="10.7456" fill="#425B28"/>
<circle cx="42.7631" cy="60.6754" r="10.7456" fill="#425B28"/>
<circle cx="64.2544" cy="46.0614" r="10.7456" fill="#425B28"/>
<circle cx="58.2368" cy="60.6754" r="10.7456" fill="#425B28"/>
<circle cx="36.7456" cy="46.0614" r="10.7456" fill="#425B28"/>
<path d="M89.5 12.5C89.5 16.399 86.5579 19.5 83 19.5C79.4421 19.5 76.5 16.399 76.5 12.5C76.5 8.60092 79.4421 5.49997 83 5.49997C86.5579 5.49997 89.5 8.60092 89.5 12.5Z" fill="#443832" stroke="white"/>
<path d="M58.1637 51.3294C57.8783 52.3945 56.7598 53.2525 54.9335 53.666C53.1327 54.0738 50.7774 54.009 48.3057 53.3467C45.834 52.6844 43.7618 51.5629 42.4062 50.3094C41.0313 49.0381 40.4917 47.7358 40.7771 46.6706C41.0625 45.6055 42.181 44.7475 44.0073 44.334C45.8081 43.9262 48.1634 43.9911 50.6351 44.6534C53.1068 45.3156 55.179 46.4371 56.5346 47.6907C57.9095 48.9619 58.4491 50.2642 58.1637 51.3294Z" fill="#443832" stroke="white"/>
<path d="M50.1367 46.6788C50.1367 46.6788 52.6481 30.4824 57.967 19.2614C63.2858 8.04043 79.0296 11.6797 79.0296 11.6797" stroke="white" stroke-width="10"/>
<path d="M50.1367 46.6788C50.1367 46.6788 52.6481 30.4824 57.967 19.2614C63.2858 8.04043 79.0296 11.6797 79.0296 11.6797" stroke="#443832" stroke-width="8"/>
<ellipse cx="80.5" cy="67" rx="1.5" ry="3" fill="black"/>
<ellipse cx="74.5" cy="87" rx="1.5" ry="3" fill="black"/>
<ellipse cx="22.5" cy="86" rx="1.5" ry="3" fill="black"/>
<ellipse cx="71.5" cy="77" rx="1.5" ry="3" fill="black"/>
<ellipse cx="81.5" cy="79" rx="1.5" ry="3" fill="black"/>
<ellipse cx="17.5" cy="66" rx="1.5" ry="3" fill="black"/>
<ellipse cx="14.5" cy="79" rx="1.5" ry="3" fill="black"/>
<ellipse cx="24.5" cy="76" rx="1.5" ry="3" fill="black"/>
</symbol>

  <!--Watermelon-->
<symbol id="icon-watermelon" viewBox="0 0 121 62">
<path fill-rule="evenodd" clip-rule="evenodd" d="M0.00209165 0C0.000698121 0.172054 0 0.344276 0 0.516664C0 34.473 27.0868 62 60.5 62C93.9132 62 121 34.473 121 0.516664C121 0.344276 120.999 0.172054 120.998 0H0.00209165Z" fill="white"/>
<path fill-rule="evenodd" clip-rule="evenodd" d="M1.00206 1C1.00069 1.1665 1 1.33317 1 1.5C1 34.3609 27.6391 61 60.5 61C93.3609 61 120 34.3609 120 1.5C120 1.33317 119.999 1.1665 119.998 1H1.00206Z" fill="#425B28"/>
<path fill-rule="evenodd" clip-rule="evenodd" d="M12.0026 1C12.0009 1.16646 12 1.33313 12 1.5C12 27.7335 33.2665 49 59.5 49C85.7335 49 107 27.7335 107 1.5C107 1.33313 106.999 1.16646 106.997 1H12.0026Z" fill="#9ADE65"/>
<path fill-rule="evenodd" clip-rule="evenodd" d="M14.0027 1C14.0009 1.16645 14 1.33312 14 1.5C14 26.629 34.371 47 59.5 47C84.629 47 105 26.629 105 1.5C105 1.33312 104.999 1.16645 104.997 1H14.0027Z" fill="#C24141"/>
<path fill-rule="evenodd" clip-rule="evenodd" d="M49.4945 32.0182C49.3853 32.3825 49.3031 32.7556 49.25 33.1361C48.5891 37.8731 52.689 41.964 58.4073 42.2734C64.1257 42.5828 69.2971 38.9935 69.958 34.2565C70.0121 33.8685 70.0343 33.4849 70.0263 33.1072L49.4945 32.0182Z" fill="black"/>
<path fill-rule="evenodd" clip-rule="evenodd" d="M69.0906 36.7261L49.0247 35.3016C49.0239 35.3048 49.023 35.308 49.0221 35.3112C49.6855 39.2972 53.4062 42.4819 58.2457 42.8309C63.0984 43.1808 67.5142 40.5668 69.0906 36.7261Z" fill="#F5B9C8"/>
<ellipse cx="73.6283" cy="29.12" rx="4.76377" ry="4.36678" transform="rotate(-15 73.6283 29.12)" fill="black"/>
<ellipse cx="44.7317" cy="28.6432" rx="4.76377" ry="4.36678" transform="rotate(-15 44.7317 28.6432)" fill="black"/>
<ellipse cx="83.5" cy="12" rx="1.5" ry="3" fill="black"/>
<ellipse cx="89.5" cy="20" rx="1.5" ry="3" fill="black"/>
<ellipse cx="93.5" cy="9" rx="1.5" ry="3" fill="black"/>
<ellipse cx="23.5" cy="9" rx="1.5" ry="3" fill="black"/>
<ellipse cx="34.5" cy="12" rx="1.5" ry="3" fill="black"/>
<ellipse cx="28.5" cy="20" rx="1.5" ry="3" fill="black"/>
<ellipse cx="48.5" cy="9" rx="1.5" ry="3" fill="black"/>
<ellipse cx="68.5" cy="9" rx="1.5" ry="3" fill="black"/>
<ellipse cx="58.5" cy="15" rx="1.5" ry="3" fill="black"/>
<ellipse cx="75.5" cy="18" rx="1.5" ry="3" fill="black"/>
<ellipse cx="43.5" cy="18" rx="1.5" ry="3" fill="black"/>
</symbol>


</svg>