<svg width="83" height="96" viewBox="0 0 83 96" fill="none" xmlns="http://www.w3.org/2000/svg">
<path d="M82.5 55.5C82.5 77.58 64.1552 95.5 41.5 95.5C18.8448 95.5 0.5 77.58 0.5 55.5C0.5 33.42 18.8448 15.5 41.5 15.5C64.1552 15.5 82.5 33.42 82.5 55.5Z" fill="#8BA9F4" stroke="#F2F3F1"/>
<ellipse cx="51.8158" cy="11.2083" rx="11.1842" ry="11.2083" fill="white"/>
<ellipse cx="46.4473" cy="37.2117" rx="11.1842" ry="11.2083" fill="white"/>
<ellipse cx="68.8158" cy="21.9683" rx="11.1842" ry="11.2083" fill="white"/>
<ellipse cx="62.5526" cy="37.2117" rx="11.1842" ry="11.2083" fill="white"/>
<ellipse cx="40.1842" cy="21.9683" rx="11.1842" ry="11.2083" fill="white"/>
<ellipse cx="54.5" cy="26.4517" rx="7.60526" ry="6.725" fill="white"/>
<circle cx="51.9211" cy="11.7456" r="10.7456" fill="#7C91C8"/>
<circle cx="46.7632" cy="36.6754" r="10.7456" fill="#7C91C8"/>
<circle cx="68.2544" cy="22.0614" r="10.7456" fill="#7C91C8"/>
<circle cx="62.2369" cy="36.6754" r="10.7456" fill="#7C91C8"/>
<circle cx="40.7456" cy="22.0614" r="10.7456" fill="#7C91C8"/>
<ellipse cx="54.5" cy="26.3597" rx="7.30702" ry="6.44737" fill="#485578" stroke="#F2F3F1"/>
<ellipse cx="55" cy="74.5" rx="6" ry="5.5" fill="black"/>
<ellipse cx="20" cy="64.5" rx="6" ry="5.5" fill="black"/>
<path fill-rule="evenodd" clip-rule="evenodd" d="M25.5699 70.1339C25.3651 70.4656 25.1847 70.8131 25.0312 71.1758C23.1204 75.69 26.0941 80.8274 31.673 82.6505C37.2519 84.4736 43.3236 82.2922 45.2344 77.778C45.3909 77.4082 45.5146 77.0343 45.6069 76.6584L25.5699 70.1339Z" fill="black"/>
<path fill-rule="evenodd" clip-rule="evenodd" d="M24.0127 74L43.4509 80.3158C40.7977 83.3484 35.8403 84.5846 31.2207 83.0749C26.6156 81.57 23.7856 77.8068 24.0127 74Z" fill="#F5B9C8"/>
</svg>
