<svg width="364" height="876" viewBox="0 0 364 876" fill="none" xmlns="http://www.w3.org/2000/svg">
<path fill-rule="evenodd" clip-rule="evenodd" d="M364 0H212.725V875.699H364V0Z" fill="#24ACDE"/>
<path fill-rule="evenodd" clip-rule="evenodd" d="M363 0H110.139C49.1821 0 0.119141 49.0629 0.119141 110.02V820.689C0.119141 876.566 41.3456 876.225 95.1691 875.78C100.062 875.74 105.059 875.699 110.139 875.699H363V0Z" fill="#26A7DF"/>
<path fill-rule="evenodd" clip-rule="evenodd" d="M364 696.914L49.1821 382.096L47.6953 512.93L364 829.235V696.914Z" fill="#1BA3D5"/>
<path d="M251.381 324.113L49.1821 123.401L47.6953 254.235L119.06 324.113H251.381Z" fill="#1BA3D5"/>
<path d="M37.288 820.689V110.02C37.288 49.0629 86.351 0 147.308 0H110.139C49.1821 0 0.119141 49.0629 0.119141 110.02V820.689C0.119141 881.646 49.1821 875.699 110.139 875.699C68.5099 875.699 37.288 868.265 37.288 820.689Z" fill="#2AAFE8"/>
<path d="M363 324H0V342H363V324Z" fill="#053C54"/>
<path d="M71.4833 242.341C71.4833 251.262 64.0495 260.182 53.6423 260.182C44.7217 260.182 35.8012 252.748 35.8012 242.341V144.215C35.8012 135.295 43.235 126.374 53.6423 126.374C62.5628 126.374 71.4833 133.808 71.4833 144.215V242.341Z" fill="#053C54"/>
<path fill-rule="evenodd" clip-rule="evenodd" d="M364 307.758H0.119141V343.44H364V307.758Z" fill="#03263A"/>
<path d="M46.2087 127.861C40.2616 130.834 35.8014 136.781 35.8014 144.215V242.341C35.8014 249.775 40.2616 255.722 46.2087 258.695C52.1557 255.722 56.616 249.775 56.616 242.341V144.215C58.1027 136.781 53.6425 130.834 46.2087 127.861Z" fill="#055875"/>
<path d="M71.4835 496.576C71.4835 505.497 64.0497 514.417 53.6424 514.417C44.7219 514.417 35.8014 506.984 35.8014 496.576V398.45C35.8014 389.53 43.2351 380.609 53.6424 380.609C62.5629 380.609 71.4835 388.043 71.4835 398.45V496.576Z" fill="#053C54"/>
<path d="M46.2087 382.096C40.2616 385.069 35.8014 391.016 35.8014 398.45V496.576C35.8014 504.01 40.2616 509.957 46.2087 512.93C52.1557 509.957 56.616 504.01 56.616 496.576V398.45C58.1027 391.016 53.6425 383.583 46.2087 382.096Z" fill="#055875"/>
</svg>
