<svg width="1101" height="988" viewBox="0 0 1101 988" fill="none" xmlns="http://www.w3.org/2000/svg">
<g clip-path="url(#clip0)">
<path d="M1101 0H0V988H1101V0Z" fill="white"/>
<path d="M1101.99 1900.93C1101.99 2042.12 988.351 2028.34 847.159 2028.34H254.841C113.649 2028.34 0.0065918 2042.12 0.0065918 1900.93V254.834C0.0065918 113.642 113.649 0 254.841 0H847.159C988.351 0 1101.99 113.642 1101.99 254.834V1900.93Z" fill="#26A7DF"/>
<path d="M847.159 0H492.457V2028.34H847.159C988.351 2028.34 1101.99 2042.12 1101.99 1900.93V254.834C1101.99 113.642 988.351 0 847.159 0Z" fill="#24ACDE"/>
<path d="M581.993 750.728L113.649 285.828L110.205 588.874L275.503 750.728H581.993Z" fill="#1BA3D5"/>
<path d="M1101.99 1900.93V1873.38L113.649 885.033L110.205 1188.08L950.47 2028.34C1040.01 2024.9 1101.99 2004.24 1101.99 1900.93Z" fill="#1BA3D5"/>
<path d="M86.0993 1900.93V254.834C86.0993 113.642 199.742 0 340.934 0H254.841C113.649 0 0.0065918 113.642 0.0065918 254.834V1900.93C0.0065918 2042.12 113.649 2028.34 254.841 2028.34C158.417 2028.34 86.0993 2011.13 86.0993 1900.93Z" fill="#2AAFE8"/>
<path d="M1101.99 712.848H0.0065918V795.497H1101.99V712.848Z" fill="#03263A"/>
<path d="M1101.99 750.728H0.0065918V792.053H1101.99V750.728Z" fill="#053C54"/>
<path d="M165.305 561.324C165.305 581.987 148.086 602.649 123.98 602.649C103.318 602.649 82.6555 585.43 82.6555 561.324V334.04C82.6555 313.377 99.874 292.715 123.98 292.715C144.642 292.715 165.305 309.934 165.305 334.04V561.324Z" fill="#053C54"/>
<path d="M106.761 296.159C92.9866 303.046 82.6555 316.821 82.6555 334.04V561.324C82.6555 578.543 92.9866 592.318 106.761 599.205C120.536 592.318 130.867 578.543 130.867 561.324V334.04C134.311 316.821 123.98 303.046 106.761 296.159Z" fill="#055875"/>
<path d="M165.305 1150.2C165.305 1170.86 148.086 1191.52 123.98 1191.52C103.318 1191.52 82.6555 1174.3 82.6555 1150.2V922.914C82.6555 902.252 99.874 881.589 123.98 881.589C144.642 881.589 165.305 898.808 165.305 922.914V1150.2Z" fill="#053C54"/>
<path d="M106.761 885.033C92.9866 891.921 82.6555 905.695 82.6555 922.914V1150.2C82.6555 1167.42 92.9866 1181.19 106.761 1188.08C120.536 1181.19 130.867 1167.42 130.867 1150.2V922.914C134.311 905.695 123.98 888.477 106.761 885.033Z" fill="#055875"/>
<path d="M964.245 571.656C960.801 571.656 957.358 568.212 957.358 564.768C957.358 561.325 960.801 557.881 964.245 557.881H1015.9C1019.34 557.881 1022.79 561.325 1022.79 564.768C1022.79 568.212 1019.34 571.656 1015.9 571.656H964.245Z" fill="#03263A"/>
<path d="M964.245 616.424C960.801 616.424 957.358 612.98 957.358 609.537C957.358 606.093 960.801 602.649 964.245 602.649H1015.9C1019.34 602.649 1022.79 606.093 1022.79 609.537C1022.79 612.98 1019.34 616.424 1015.9 616.424H964.245Z" fill="#03263A"/>
<path d="M964.245 657.748C960.801 657.748 957.358 654.305 957.358 650.861C957.358 647.417 960.801 643.974 964.245 643.974H1015.9C1019.34 643.974 1022.79 647.417 1022.79 650.861C1022.79 654.305 1019.34 657.748 1015.9 657.748H964.245Z" fill="#03263A"/>
</g>
<defs>
<clipPath id="clip0">
<rect width="1101" height="988" fill="white"/>
</clipPath>
</defs>
</svg>
