<svg xmlns="http://www.w3.org/2000/svg" xmlns:xlink="http://www.w3.org/1999/xlink">

  <!--Logo-->
<symbol id="icon-logo" viewBox="0 0 188 188">
<path fill-rule="evenodd" clip-rule="evenodd" d="M94 188C145.915 188 188 145.915 188 94C188 42.0852 145.915 0 94 0C42.0852 0 0 42.0852 0 94C0 145.915 42.0852 188 94 188ZM156.326 81.5951H170.338C177.34 81.5951 183.038 87.2834 183.038 94.2753C183.038 101.267 177.34 106.956 170.337 106.956H156.326C154.704 114.873 151.54 122.486 147.059 129.24L156.971 139.121C159.369 141.51 160.689 144.69 160.685 148.077C160.685 151.464 159.359 154.646 156.959 157.039C154.562 159.431 151.373 160.75 147.975 160.754H147.96C144.565 160.754 141.379 159.44 138.985 157.053L129.073 147.172C122.3 151.638 114.661 154.794 106.72 156.408V170.376C106.72 177.357 101.016 183.038 94.0006 183.038C86.9855 183.038 81.281 177.357 81.281 170.376V156.408C73.3399 154.794 65.7008 151.638 58.9282 147.172L49.016 157.053C44.0692 161.991 36.0014 161.986 31.0423 157.039C28.6449 154.65 27.3189 151.469 27.3158 148.085C27.3096 144.696 28.6295 141.511 31.0299 139.12L40.942 129.24C36.461 122.486 33.2967 114.872 31.6756 106.956H17.6639C10.6612 106.956 4.96288 101.269 4.96288 94.276C4.96288 87.2834 10.6612 81.5951 17.6639 81.5943H31.6756C33.2967 73.6778 36.461 66.0646 40.942 59.3106L31.0299 49.4292C28.6326 47.0408 27.3127 43.8602 27.3158 40.4732C27.3158 37.087 28.6419 33.9041 31.0423 31.5111C33.4396 29.1196 36.6286 27.8015 40.0261 27.7961H40.0415C43.4359 27.7961 46.6218 29.1104 49.016 31.4972L58.9282 41.3794C65.7015 36.9138 73.3407 33.7578 81.281 32.1432V18.1749C81.281 11.1938 86.9863 5.51319 94.0014 5.51319C101.016 5.51319 106.721 11.1938 106.721 18.1749V32.1432C114.661 33.7578 122.3 36.9138 129.074 41.3794L138.986 31.498C143.936 26.5634 152.004 26.568 156.96 31.5118C159.357 33.9018 160.683 37.0824 160.686 40.4663C160.692 43.8556 159.372 47.0401 156.972 49.4315L147.06 59.3114C151.541 66.0653 154.705 73.6793 156.326 81.5951ZM153.671 100.616H170.338C173.834 100.616 176.679 97.7731 176.678 94.276C176.678 90.779 173.834 87.9356 170.337 87.9356H153.67C152.105 87.9356 150.776 86.803 150.53 85.2623C149.13 76.4796 145.614 68.0225 140.36 60.8043C139.444 59.5432 139.58 57.8039 140.686 56.7013L152.474 44.9481C153.669 43.7562 154.328 42.1679 154.325 40.4763C154.322 38.7832 153.66 37.1917 152.462 35.9952C149.98 33.5214 145.95 33.5176 143.481 35.9814L131.693 47.7345C130.591 48.8379 128.843 48.9757 127.579 48.0595C120.337 42.8215 111.853 39.316 103.04 37.9224C101.497 37.6776 100.36 36.3494 100.36 34.791V18.1757C100.36 14.6901 97.5055 11.8544 93.9998 11.8544C90.4934 11.8544 87.6397 14.6901 87.6397 18.1757V34.791C87.6397 36.3494 86.5036 37.6776 84.9597 37.9216C76.1466 39.3144 67.6625 42.8208 60.4211 48.0587C59.1606 48.9749 57.4128 48.8371 56.3069 47.7338L44.5195 35.9806C43.327 34.7918 41.7368 34.1374 40.0415 34.1374H40.0322C38.3339 34.1389 36.7375 34.798 35.5388 35.9945C34.337 37.1925 33.6759 38.7832 33.6759 40.4786C33.6728 42.1686 34.3309 43.7555 35.5264 44.9458L47.3153 56.6998C48.4206 57.8015 48.5573 59.5416 47.6413 60.8028C42.3871 68.0202 38.8714 76.478 37.4712 85.2608C37.2263 86.8007 35.8972 87.934 34.3316 87.934H17.6647C14.1683 87.934 11.3238 90.7774 11.3238 94.2745C11.3238 97.7716 14.1683 100.615 17.6647 100.615H34.3316C35.8964 100.615 37.2256 101.748 37.4712 103.289C38.8714 112.072 42.3871 120.529 47.6413 127.747C48.5573 129.008 48.4213 130.747 47.3153 131.85L35.5272 143.603C34.3324 144.795 33.6736 146.383 33.6767 148.075C33.679 149.768 34.3409 151.36 35.5396 152.556C38.018 155.026 42.0488 155.031 44.5203 152.57L56.3084 140.817C56.9232 140.202 57.7372 139.888 58.5567 139.888C59.2085 139.888 59.8634 140.086 60.4226 140.492C67.664 145.73 76.1481 149.235 84.9612 150.629C86.5043 150.874 87.6412 152.202 87.6412 153.76V170.376C87.6412 173.861 90.4958 176.697 94.0014 176.697C97.5078 176.697 100.362 173.861 100.362 170.375V153.76C100.362 152.201 101.498 150.873 103.042 150.629C111.855 149.236 120.339 145.73 127.58 140.492C128.844 139.58 130.592 139.714 131.694 140.817L143.482 152.57C144.675 153.759 146.265 154.413 147.96 154.413H147.97C149.668 154.412 151.265 153.753 152.463 152.556C153.665 151.358 154.326 149.767 154.326 148.072C154.329 146.382 153.671 144.795 152.476 143.605L140.687 131.85C139.582 130.748 139.445 129.008 140.361 127.747C145.616 120.53 149.131 112.072 150.532 103.289C150.776 101.749 152.106 100.616 153.671 100.616Z" fill="#475B73"/>
</symbol>
<!--Settings-->
<symbol id="icon-settings" viewBox="0 0 28 28">
<g clip-path="url(#clip0)">
<path d="M25.5334 16.6861C24.0643 14.1416 24.948 10.8814 27.5065 9.39912L24.7546 4.63299C23.9689 5.09412 23.0545 5.35837 22.0789 5.35837C19.138 5.35837 16.7545 2.95912 16.7545 -0.00100708H11.2516C11.2586 0.912493 11.0311 1.83912 10.542 2.68524C9.07289 5.22974 5.80738 6.09512 3.24538 4.61987L0.494385 9.38599C1.28626 9.83662 1.97226 10.4955 2.45963 11.3407C3.92613 13.8809 3.04763 17.1359 0.49876 18.6199L3.25063 23.386C4.03376 22.9292 4.94376 22.6685 5.91413 22.6685C8.84538 22.6685 11.2228 25.0529 11.2376 27.999H16.7405C16.7379 27.0942 16.9671 26.179 17.4501 25.3407C18.9166 22.8006 22.1743 21.9335 24.7345 23.3991L27.4864 18.633C26.6998 18.1824 26.0181 17.5252 25.5334 16.6852V16.6861ZM14 19.669C10.8693 19.669 8.33088 17.1306 8.33088 13.9999C8.33088 10.8691 10.8693 8.33074 14 8.33074C17.1308 8.33074 19.6691 10.8691 19.6691 13.9999C19.6691 17.1306 17.1308 19.669 14 19.669Z"/>
</g>
<defs>
<clipPath id="clip0">
<rect width="28" height="28" fill="white"/>
</clipPath>
</defs>
</symbol>
<!--User-->
<symbol id="icon-user" viewBox="0 0 28 28">
<path d="M14 0C21.734 0 28 6.266 28 14C28 21.688 21.766 28 14 28C6.25 28 0 21.703 0 14C0 6.266 6.266 0 14 0ZM23.672 21.109C25.125 19.109 26 16.656 26 14C26 7.391 20.609 2 14 2C7.391 2 2 7.391 2 14C2 16.656 2.875 19.109 4.328 21.109C4.89 18.312 6.25 16 9.109 16C10.375 17.234 12.093 18 14 18C15.907 18 17.625 17.234 18.891 16C21.75 16 23.11 18.312 23.672 21.109ZM20 11C20 7.687 17.312 5 14 5C10.688 5 8 7.688 8 11C8 14.312 10.688 17 14 17C17.312 17 20 14.312 20 11Z"/>
</symbol>
<!--pencil-->
<symbol id="icon-pencil" viewBox="0 0 32 32">
<path d="M27 0c2.761 0 5 2.239 5 5 0 1.126-0.372 2.164-1 3l-2 2-7-7 2-2c0.836-0.628 1.874-1 3-1zM2 23l-2 9 9-2 18.5-18.5-7-7-18.5 18.5zM22.362 11.362l-14 14-1.724-1.724 14-14 1.724 1.724z"></path>
</symbol>
<!--search-->
<symbol id="icon-search" viewBox="0 0 48 48">
<path d="M29.652 13.998c2.16 0.5 3.879 2.34 4.379 4.35 0.171 0.94 0.99 1.65 1.971 1.65 1.1 0 2-0.9 2-2 0-1.44-1.21-3.63-2.86-5.27-1.62-1.6-3.55-2.73-5.14-2.73-1.1 0-2 0.93-2 2.030 0 0.979 0.71 1.8 1.65 1.97zM2.162 40.218c-1.55 1.549-1.55 4.070 0 5.619 1.55 1.551 4.070 1.551 5.61 0l11.489-11.48c2.681 1.672 5.84 2.641 9.24 2.641 9.67 0 17.5-7.83 17.5-17.5s-7.83-17.5-17.5-17.5-17.5 7.83-17.5 17.5c0 3.39 0.971 6.56 2.641 9.24l-11.48 11.48zM16.002 19.498c0-6.9 5.601-12.5 12.5-12.5 6.9 0 12.5 5.6 12.5 12.5s-5.6 12.5-12.5 12.5c-6.899-0.001-12.5-5.601-12.5-12.5z"></path>
</symbol>
<!--trashcan-->
<symbol id="icon-trashcan" viewBox="0 0 48 48">
<path d="M42.5 10h-6.5v-6c0-2.21-1.79-4-4-4h-16c-2.21 0-4 1.79-4 4v6h-6.5c-1.38 0-2.5 1.12-2.5 2.5s1.12 2.5 2.5 2.5h1.5v29c0 2.21 1.79 4 4 4h26c2.21 0 4-1.79 4-4l-0-29h1.5c1.38 0 2.5-1.12 2.5-2.5s-1.12-2.5-2.5-2.5zM31 10h-14v-2.8c0-1.22 0.98-2.2 2.2-2.2h9.6c1.22 0 2.2 0.98 2.2 2.2v2.8zM17 17v24c0 1.1-0.9 2-2 2s-2-0.9-2-2v-24c0-1.1 0.9-2 2-2s2 0.9 2 2zM26 17v24c0 1.1-0.9 2-2 2s-2-0.9-2-2v-24c0-1.1 0.9-2 2-2s2 0.9 2 2zM35 17v24c0 1.1-0.9 2-2 2s-2-0.9-2-2v-24c0-1.1 0.9-2 2-2s2 0.9 2 2z"></path>
</symbol>
<!--save-->
<symbol id="icon-save" viewBox="0 0 24 28">
<path d="M6 24h12v-6h-12v6zM20 24h2v-14c0-0.297-0.266-0.938-0.469-1.141l-4.391-4.391c-0.219-0.219-0.828-0.469-1.141-0.469v6.5c0 0.828-0.672 1.5-1.5 1.5h-9c-0.828 0-1.5-0.672-1.5-1.5v-6.5h-2v20h2v-6.5c0-0.828 0.672-1.5 1.5-1.5h13c0.828 0 1.5 0.672 1.5 1.5v6.5zM14 9.5v-5c0-0.266-0.234-0.5-0.5-0.5h-3c-0.266 0-0.5 0.234-0.5 0.5v5c0 0.266 0.234 0.5 0.5 0.5h3c0.266 0 0.5-0.234 0.5-0.5zM24 10v14.5c0 0.828-0.672 1.5-1.5 1.5h-21c-0.828 0-1.5-0.672-1.5-1.5v-21c0-0.828 0.672-1.5 1.5-1.5h14.5c0.828 0 1.969 0.469 2.562 1.062l4.375 4.375c0.594 0.594 1.062 1.734 1.062 2.562z"></path>
</symbol>
<!--travel-->
<symbol id="icon-travel" viewBox="0 0 50 50">
<path d="M49.675 16.1325C49.9725 16.775 49.9925 19.3575 37.465 25.2375L25.1825 31.0025C20.9075 33.01 14.705 35.65 11.97 36.38C10.055 36.89 8.22751 35.59 8.22751 35.59C8.22751 35.59 2.71251 30.6525 1.24751 29.5425C-0.214989 28.4325 -0.0899889 27.8675 1.78501 27.2675C2.95251 26.895 9.61001 28.5 12.4475 29.2175C15.795 27.2175 18.8525 25.5025 20.3 24.7225C16.81 22.14 10.28 17.3175 8.19751 15.8475C6.20001 14.435 8.22251 13.9275 8.22251 13.9275C9.14251 13.68 11.1275 13.3575 12.1275 13.5675C18.93 14.99 30.285 18.745 31.155 19.0325C33.235 17.9425 36.475 16.3025 38.46 15.37C43.6475 12.935 49.2775 15.2775 49.675 16.1325Z"/>
</symbol>
<!--tracker-->
<symbol id="icon-tracker" viewBox="0 0 50 50">
<path d="M44.5308 29.2964C46.3635 30.2732 46.9942 32.4768 45.9423 34.1786L44.0192 37.2482C42.9673 38.95 40.5942 39.5357 38.7615 38.5589L30.7692 34.2893V42.8554C30.7692 44.8089 29.0269 46.4268 26.9231 46.4268H23.0769C20.9731 46.4268 19.2308 44.8089 19.2308 42.8554V34.2893L11.2385 38.5589C9.40578 39.5357 7.0327 38.95 5.98078 37.2482L4.0577 34.1786C3.00578 32.4768 3.63655 30.2714 5.46924 29.2964L13.4615 25L5.46924 20.7036C3.63655 19.7268 3.00578 17.5232 4.0577 15.8214L5.98078 12.7518C7.0327 11.05 9.40578 10.4643 11.2385 11.4411L19.2308 15.7107V7.14465C19.2308 5.19108 20.9731 3.57322 23.0769 3.57322H26.9231C29.0269 3.57322 30.7692 5.19108 30.7692 7.14465V15.7107L38.7615 11.4411C40.5942 10.4643 42.9692 11.05 44.0192 12.7518L45.9423 15.8214C46.9942 17.5232 46.3635 19.7286 44.5308 20.7036L36.5385 25L44.5308 29.2964Z" />
</symbol>
<!--calendar-->
<symbol id="icon-calendar" viewBox="0 0 70 70">
<path d="M5.38462 65H17.5V53.75H5.38462V65ZM20.1923 65H33.6538V53.75H20.1923V65ZM5.38462 51.25H17.5V38.75H5.38462V51.25ZM20.1923 51.25H33.6538V38.75H20.1923V51.25ZM5.38462 36.25H17.5V25H5.38462V36.25ZM36.3462 65H49.8077V53.75H36.3462V65ZM20.1923 36.25H33.6538V25H20.1923V36.25ZM52.5 65H64.6154V53.75H52.5V65ZM36.3462 51.25H49.8077V38.75H36.3462V51.25ZM21.5385 17.5V6.25C21.5385 5.585 20.9085 5 20.1923 5H17.5C16.7838 5 16.1538 5.585 16.1538 6.25V17.5C16.1538 18.165 16.7838 18.75 17.5 18.75H20.1923C20.9085 18.75 21.5385 18.165 21.5385 17.5ZM52.5 51.25H64.6154V38.75H52.5V51.25ZM36.3462 36.25H49.8077V25H36.3462V36.25ZM52.5 36.25H64.6154V25H52.5V36.25ZM53.8462 17.5V6.25C53.8462 5.585 53.2162 5 52.5 5H49.8077C49.0915 5 48.4615 5.585 48.4615 6.25V17.5C48.4615 18.165 49.0915 18.75 49.8077 18.75H52.5C53.2162 18.75 53.8462 18.165 53.8462 17.5ZM70 15V65C70 67.735 67.5608 70 64.6154 70H5.38462C2.43923 70 0 67.735 0 65V15C0 12.265 2.43923 10 5.38462 10H10.7692V6.25C10.7692 2.8125 13.7981 0 17.5 0H20.1923C23.8942 0 26.9231 2.8125 26.9231 6.25V10H43.0769V6.25C43.0769 2.8125 46.1058 0 49.8077 0H52.5C56.2019 0 59.2308 2.8125 59.2308 6.25V10H64.6154C67.5608 10 70 12.265 70 15Z" />
</symbol>
<!--tasks-->
<symbol id="icon-tasks" viewBox="0 0 33 33">
<path d="M25.8403 17.7516L15.6864 27.1802C15.4288 27.4006 15.0315 27.4006 14.7738 27.1802L9.06231 21.8766C8.82496 21.6374 8.82496 21.2685 9.06231 21.0481L9.97488 20.2007C10.2122 19.9803 10.6095 19.9803 10.8672 20.2007L15.2295 24.2515L24.0342 16.0757C24.2918 15.8553 24.6891 15.8553 24.9264 16.0757L25.839 16.9231C26.0763 17.1435 26.0763 17.5124 25.839 17.7516H25.8403ZM2.53846 30.6429H30.4615V11.7857H2.53846V30.6429ZM10.1538 8.25V2.94643C10.1538 2.61525 9.87588 2.35714 9.51923 2.35714H8.25C7.89335 2.35714 7.61538 2.61525 7.61538 2.94643V8.25C7.61538 8.58118 7.89335 8.83929 8.25 8.83929H9.51923C9.87588 8.83929 10.1538 8.58118 10.1538 8.25ZM25.3846 8.25V2.94643C25.3846 2.61525 25.1067 2.35714 24.75 2.35714H23.4808C23.1241 2.35714 22.8462 2.61525 22.8462 2.94643V8.25C22.8462 8.58118 23.1241 8.83929 23.4808 8.83929H24.75C25.1067 8.83929 25.3846 8.58118 25.3846 8.25ZM33 7.07143V30.6429C33 31.9322 31.8501 33 30.4615 33H2.53846C1.14992 33 0 31.9322 0 30.6429V7.07143C0 5.78207 1.14992 4.71429 2.53846 4.71429H5.07692V2.94643C5.07692 1.32589 6.50481 0 8.25 0H9.51923C11.2644 0 12.6923 1.32589 12.6923 2.94643V4.71429H20.3077V2.94643C20.3077 1.32589 21.7356 0 23.4808 0H24.75C26.4952 0 27.9231 1.32589 27.9231 2.94643V4.71429H30.4615C31.8501 4.71429 33 5.78207 33 7.07143Z" />
</symbol>
<!--list-->
<symbol id="icon-list" viewBox="0 0 33 33">
<path d="M12.375 26.8125H33V30.9375H12.375V26.8125ZM12.375 14.4375H33V18.5625H12.375V14.4375ZM12.375 2.0625H33V6.1875H12.375V2.0625ZM6.1875 0V8.25H4.125V2.0625H2.0625V0H6.1875ZM4.125 16.9517V18.5635H8.25V20.626H2.0625V15.9204L6.1875 13.9868V12.375H2.0625V10.3125H8.25V15.0181L4.125 16.9517ZM8.25 22.6875V33H2.0625V30.9375H6.1875V28.875H2.0625V26.8125H6.1875V24.75H2.0625V22.6875H8.25Z" />
</symbol>
<!--budget-->
<symbol id="icon-budget" viewBox="0 0 55 55">
<path d="M42.4084 37.6561C42.4084 37.6561 48.1319 33.7408 48.1319 26.0184C48.1319 14.5234 35.9494 10.273 29.3992 10.3864C22.8473 10.5016 20.8948 12.2255 20.8948 12.2255C20.8948 12.2255 18.6656 10.6047 16.3023 9.24688C14.4942 8.5422 14.0748 8.44079 12.8184 8.8447C11.813 8.8447 12.4455 10.5188 12.8494 11.122C13.2498 11.7253 15.1972 15.058 15.1972 15.058C15.1972 15.058 11.11 19.2672 10.8075 22.0344C10.8075 21.9845 8.8825 22.0189 7.82719 22.0189C6.77188 22.0189 6.87157 23.1688 6.87157 23.1688L6.90078 31.2709C6.90078 31.2709 6.83547 32.4208 7.79282 32.4208C8.74844 32.4208 10.78 32.4431 10.78 32.4431C10.78 32.4431 13.6383 36.5939 15.4498 37.3484C15.4498 37.3983 13.8841 41.6505 13.8841 41.6505C13.8841 41.6505 13.1295 42.9584 14.4873 43.462C15.8452 43.9639 19.3875 45.4506 20.8966 45.9044C22.4056 46.3581 22.6205 45.3303 22.6205 45.3303L24.1141 42.1042L33.8852 42.1197L35.3788 45.4455C35.3788 45.4455 35.6658 46.9889 37.6767 46.1347C39.6894 45.2805 41.8859 44.2664 43.5463 43.4122C45.2048 42.558 44.1134 40.9613 44.1134 40.9613L42.4084 37.6561ZM16.0222 23.6569C15.1061 23.6569 14.3636 22.9127 14.3636 21.9966C14.3636 21.0805 15.1061 20.338 16.0222 20.338C16.9383 20.338 17.6825 21.0805 17.6825 21.9966C17.6825 22.9127 16.9383 23.6569 16.0222 23.6569ZM39.4023 18.4869C38.873 19.1142 38.5275 18.6519 38.1013 18.5264C38.1013 18.5264 36.2948 16.8506 33.6411 16.0686C30.8928 15.2608 28.0002 15.6509 28.0002 15.6509C27.5739 15.5255 27.0566 15.5117 27.0531 14.8534C27.0755 14.0405 28.062 14.0336 28.05 14.0061C28.05 14.0061 31.3053 13.7053 34.0295 14.5063C36.7091 15.2934 38.7561 17.0053 38.7561 17.0053C38.7561 17.0053 39.8509 17.7599 39.4023 18.4869Z" />
</symbol>
<!--menu-->
<symbol id="icon-menu" viewBox="0 0 50 50">
<path d="M10.9375 0C5.75938 0 1.5625 4.89687 1.5625 10.9375C1.5625 16.1094 4.63906 20.4422 8.775 21.5813L7.22344 46.8797C7.11875 48.5953 8.43906 49.9984 10.1578 49.9984H11.7203C13.4391 49.9984 14.7594 48.5953 14.6547 46.8797L13.1031 21.5813C17.2375 20.4422 20.3156 16.1094 20.3156 10.9375C20.3156 4.89687 16.1187 0 10.9406 0L10.9375 0ZM42.4484 0L39.8438 15.625H37.8906L36.5891 0H35.2875L33.9859 15.625H32.0328L29.4281 0H28.1266V20.3125C28.1266 21.175 28.8266 21.875 29.6891 21.875H33.7578L32.2234 46.8812C32.1187 48.5969 33.4391 50 35.1578 50H36.7203C38.4391 50 39.7594 48.5969 39.6547 46.8812L38.1203 21.875H42.1891C43.0516 21.875 43.7516 21.175 43.7516 20.3125V0H42.45H42.4484Z" fill="#2C3138" />
</symbol>
<!--alpha-->
<symbol id="icon-alpha" viewBox="0 0 26 28">
<path d="M18.609 6.37499H21.375L20.25 2.96899L20.063 2.23499C20.047 2.10999 20.032 2.01599 20.032 1.92199H19.969L19.922 2.23499C19.875 2.42199 19.859 2.65699 19.75 2.96899L18.609 6.37499ZM11.5 22.5C11.5 22.641 11.437 22.766 11.344 22.875L6.35999 27.859C6.25099 27.953 6.12599 28 6.00099 28C5.87599 28 5.75099 27.953 5.64199 27.859L0.641994 22.859C0.500994 22.703 0.454994 22.5 0.532994 22.312C0.610994 22.124 0.798994 21.999 1.00199 21.999H4.00199V0.498993C4.00199 0.217993 4.22099 -0.00100708 4.50199 -0.00100708H7.50199C7.78299 -0.00100708 8.00199 0.217993 8.00199 0.498993V21.999H11.002C11.283 21.999 11.502 22.218 11.502 22.499L11.5 22.5ZM24.563 24.359V28H15.438V26.594L21.204 18.328C21.329 18.141 21.454 17.984 21.532 17.906L21.704 17.765V17.718C21.641 17.718 21.579 17.734 21.485 17.734C21.36 17.765 21.204 17.781 21.016 17.781H17.391V19.578H15.516V16H24.375V17.391L18.609 25.672C18.515 25.813 18.39 25.953 18.281 26.078L18.109 26.25V26.281L18.328 26.25C18.469 26.219 18.609 26.219 18.797 26.219H22.672V24.36H24.563V24.359ZM25.953 10.344V12H21.453V10.344H22.625L21.891 8.09399H18.094L17.36 10.344H18.532V12H14.048V10.344H15.142L18.736 -7.08003e-06H21.267L24.861 10.344H25.955H25.953Z" fill="#2C3138"/>
</symbol>
<!--downarrow-->
<symbol id="icon-down" viewBox="0 0 12 27">
<path d="M11.953 20.297C12.031 20.484 12 20.688 11.875 20.844L6.40597 26.844C6.31197 26.938 6.18697 27 6.04697 27C5.90597 27 5.76597 26.937 5.67197 26.844L0.124971 20.844C-2.93031e-05 20.688 -0.0310293 20.485 0.0469707 20.297C0.124971 20.125 0.296971 20 0.499971 20H3.99997V0.5C3.99997 0.219 4.21897 0 4.49997 0H7.49997C7.78097 0 7.99997 0.219 7.99997 0.5V20H11.5C11.703 20 11.875 20.109 11.953 20.297Z" fill="#2C3138"/>
</symbol>
</svg>
